<svg width="30" height="38" viewBox="0 0 30 38" fill="none" xmlns="http://www.w3.org/2000/svg">
<path d="M22.2264 0.66687C22.2264 0.66687 19.5 0.732908 17 3.2329C14.5 5.7329 14.9217 9.10082 14.9217 9.10082C14.9217 9.10082 17.3965 9.55335 20.0377 6.91215C22.679 4.27094 22.2264 0.66687 22.2264 0.66687Z" fill="#090A0A"/>
<path d="M15.2075 11.2327C13.3647 11.2201 12.2327 9.62893 9.09433 9.62893C6.27041 9.62893 3.43954 11.4509 2.23585 13.2138C1.03773 14.9686 0 16.8931 0 20.7987C0 24.7044 1.88053 31.4214 6.50475 35.9685C7.29667 36.7472 8.34497 37.3326 9.5409 37.3688C11.6918 37.434 13.0126 35.8239 15.7296 35.8239C18.4465 35.8239 19.2641 37.3688 21.717 37.3688C22.8324 37.3688 24.1044 36.8608 25.3396 35.5472C26.9245 33.8617 28.8912 30.6515 29.893 27.5723C29.893 27.5723 24.8764 25.6349 24.937 20.0503C24.9874 15.4214 28.9182 13.1446 28.9182 13.1446C28.9182 13.1446 26.6225 9.48425 21.7421 9.48425C18.3711 9.50946 16.8616 11.244 15.2075 11.2327Z" fill="#090A0A"/>
</svg>
