<?xml version="1.0" encoding="UTF-8"?>
<svg id="Layer_2" data-name="Layer 2" xmlns="http://www.w3.org/2000/svg" viewBox="0 0 25.2 28.2">
  <defs>
    <style>
      .cls-1 {
        fill: #fff;
        stroke-width: 0px;
      }

      .cls-2 {
        fill: none;
        stroke: #fff;
        stroke-linecap: round;
        stroke-linejoin: round;
        stroke-width: 1.5px;
      }
    </style>
  </defs>
  <g id="Layer_1-2" data-name="Layer 1">
    <g>
      <path class="cls-2" d="M15.2,4l-2.6-3.3"/>
      <path class="cls-2" d="M22.1,8.5c1.5,2,2.4,4.4,2.4,7.1,0,6.5-5.3,11.9-11.9,11.9S.8,22.1.8,15.6,6.1,3.7,12.6,3.7s1.8.1,2.6.3"/>
      <path class="cls-1" d="M9.8,15.6v-.8h.7c.3,0,.5,0,.7-.2.2-.2.3-.4.3-.6s0-.4-.3-.6c-.2-.1-.4-.2-.7-.2s-.5,0-.7.2c-.2.2-.3.4-.3.6h-.9c0-.5.2-.9.6-1.2.4-.3.8-.5,1.4-.5s1,.1,1.4.4c.4.3.5.6.5,1.1s-.1.6-.3.9c-.2.2-.5.4-.8.4h0c.4,0,.8.2,1,.4.3.2.4.6.4.9s-.2.9-.6,1.2c-.4.3-.9.5-1.5.5s-1.1-.2-1.5-.5c-.4-.3-.6-.7-.6-1.2h1c0,.3.1.5.3.6.2.2.5.2.8.2s.6,0,.8-.2c.2-.2.3-.4.3-.6s-.1-.5-.3-.7c-.2-.2-.5-.2-.8-.2h-.7ZM15.6,18.2c-.7,0-1.2-.3-1.6-.8-.4-.5-.6-1.2-.6-2.2s.2-1.6.6-2.1c.4-.5.9-.8,1.6-.8s1.2.3,1.6.8c.4.5.6,1.2.6,2.1s-.2,1.6-.6,2.2c-.4.5-.9.8-1.6.8ZM15.6,17.4c.4,0,.7-.2.9-.6.2-.4.3-.9.3-1.6s-.1-1.2-.3-1.5c-.2-.4-.5-.6-.9-.6s-.7.2-.9.6c-.2.4-.3.9-.3,1.5s.1,1.2.3,1.6c.2.4.5.6.9.6Z"/>
    </g>
  </g>
</svg>