<svg width="262" height="560" viewBox="0 0 262 560" fill="none" xmlns="http://www.w3.org/2000/svg">
<path d="M178.721 168.663C185.745 173.103 189.55 180.746 191.979 188.45C194.532 196.634 195.553 205.22 198.384 213.326C199.904 217.949 202.293 222.239 205.423 225.966C205.639 226.213 206.135 224.852 205.841 224.527C199.885 217.689 197.61 208.732 195.692 200.099C193.944 192.178 192.273 184.118 188.204 177.002C186.027 173.051 182.914 169.694 179.139 167.225C178.783 166.993 178.381 168.447 178.721 168.663Z" fill="white"/>
<path d="M183.532 163.063C189.303 169.096 195.754 175.95 196.032 184.722C196.032 185.727 196.667 184.49 196.651 184.056C196.357 174.774 189.984 167.843 183.966 161.547C183.718 161.284 183.223 162.661 183.532 162.986V163.063Z" fill="white"/>
<path d="M186.441 158.484C189.775 160.363 192.639 162.974 194.817 166.12C196.996 169.265 198.432 172.865 199.018 176.646C199.018 176.987 199.235 176.894 199.405 176.646C199.604 176.329 199.681 175.949 199.622 175.579C199.027 171.694 197.558 167.995 195.326 164.76C193.094 161.526 190.156 158.84 186.735 156.906C186.503 156.767 186.023 158.19 186.441 158.453V158.484Z" fill="white"/>
<path d="M182.774 191.56C186.394 196.866 187.137 203.487 188.127 209.675C189.071 215.477 190.246 221.711 194.222 226.291C195.991 228.539 198.577 229.996 201.416 230.344C201.849 230.344 202.081 228.797 201.71 228.797C196.017 228.317 192.428 222.717 190.788 217.797C188.746 211.779 188.514 205.344 186.998 199.233C186.285 195.999 185.002 192.919 183.207 190.136C183.053 189.904 182.527 191.204 182.774 191.575V191.56Z" fill="white"/>
<path d="M180.686 210.263C181.202 215.757 182.645 221.124 184.956 226.136C186.982 230.514 190.277 235.062 195.522 235.418C195.955 235.418 196.171 233.871 195.816 233.871C190.571 233.53 187.338 228.967 185.342 224.589C183.159 219.745 181.785 214.577 181.274 209.288C181.274 208.933 181.057 209.041 180.887 209.211C180.693 209.531 180.621 209.91 180.686 210.279V210.263Z" fill="white"/>
<path d="M191.546 270.52C193.529 283.853 198.095 296.67 204.99 308.253C206.537 310.898 208.269 313.482 210.079 315.988C210.25 316.22 210.776 314.92 210.513 314.549C202.974 304.161 197.459 292.447 194.253 280.019C193.361 276.559 192.658 273.052 192.149 269.515C192.149 269.175 191.933 269.252 191.763 269.437C191.563 269.755 191.486 270.135 191.546 270.505V270.52Z" fill="white"/>
<path d="M208.099 269.886C212.208 277.428 214.121 285.971 213.622 294.546C213.622 295.598 214.194 294.902 214.225 294.252C214.783 285.354 212.849 276.477 208.641 268.617C208.378 268.153 207.913 269.53 208.099 269.886Z" fill="white"/>
<path d="M205.283 296.263C201.187 288.716 199.28 280.176 199.776 271.603C199.776 270.551 199.204 271.247 199.157 271.897C198.605 280.796 200.544 289.673 204.758 297.531C205.02 297.996 205.469 296.619 205.283 296.263Z" fill="white"/>
<path d="M206.413 281.752C207.018 291.339 210.093 300.607 215.339 308.655C215.494 308.887 216.02 307.603 215.772 307.216C210.664 299.395 207.654 290.392 207.032 281.071C206.954 280.081 206.382 281.303 206.413 281.752Z" fill="white"/>
<path d="M217.087 334.552C217.997 334.577 218.882 334.849 219.648 335.34C220.414 335.83 221.032 336.521 221.435 337.337C221.638 337.792 221.75 338.282 221.764 338.781C221.778 339.279 221.693 339.775 221.515 340.241C221.337 340.707 221.069 341.132 220.726 341.494C220.383 341.856 219.972 342.146 219.516 342.349C218.722 342.701 217.861 342.877 216.992 342.866C216.124 342.855 215.268 342.657 214.482 342.286C213.697 341.915 213.001 341.378 212.441 340.714C211.882 340.049 211.472 339.272 211.24 338.435C210.696 336.417 210.934 334.268 211.905 332.417C212.805 330.457 213.882 328.582 215.123 326.817C216.67 324.636 218.48 322.702 218.835 319.948C219.145 317.566 218.65 314.688 216.02 313.915C212.926 312.986 211.1 317.009 211.889 319.515C212.818 322.501 216.19 324.342 218.805 325.595C221.744 327.018 224.9 328.256 226.957 330.917C229.015 333.577 230.052 337.306 228.334 340.276C226.996 342.411 224.939 343.997 222.533 344.747C222.146 344.871 222.022 346.371 222.394 346.294C224.408 345.631 226.201 344.427 227.576 342.813C228.621 341.499 229.326 339.948 229.628 338.296C229.93 336.645 229.821 334.944 229.309 333.345C228.53 330.781 226.891 328.563 224.668 327.064C221.837 325.131 218.48 324.202 215.633 322.191C214.303 321.217 212.245 319.499 212.261 317.689C212.261 315.431 215.061 314.92 216.623 315.926C217.185 316.35 217.625 316.916 217.897 317.565C218.169 318.215 218.263 318.925 218.17 319.623C218.048 320.99 217.508 322.287 216.623 323.336C214.205 326.322 212.259 329.661 210.853 333.237C209.77 336.47 209.971 340.384 212.601 342.844C213.248 343.475 214.035 343.944 214.898 344.214C215.76 344.483 216.674 344.545 217.566 344.394C218.457 344.243 219.3 343.884 220.026 343.346C220.752 342.808 221.34 342.106 221.744 341.297C223.291 337.77 221.527 333.284 217.304 333.113C216.871 333.113 216.67 334.66 217.01 334.66L217.087 334.552Z" fill="white"/>
<path d="M211.255 264.935C214.634 270.206 216.922 276.1 217.985 282.27C219.048 288.44 218.864 294.76 217.443 300.858C217.443 300.997 217.304 301.631 217.567 301.662C217.83 301.693 217.954 301.105 217.985 300.95C219.482 294.598 219.688 288.009 218.591 281.575C217.493 275.141 215.114 268.994 211.595 263.497C211.456 263.265 210.93 264.549 211.178 264.935H211.255Z" fill="white"/>
<path d="M200.085 253.921C199.959 254.122 199.783 254.287 199.574 254.401C199.366 254.514 199.132 254.573 198.894 254.57C198.606 254.597 198.315 254.555 198.046 254.448C197.777 254.34 197.537 254.17 197.347 253.952C196.979 253.457 196.791 252.852 196.813 252.236C196.836 251.62 197.068 251.03 197.471 250.564C197.776 249.92 198.266 249.381 198.879 249.017C199.178 248.849 199.524 248.786 199.862 248.836C200.201 248.887 200.514 249.048 200.751 249.295C201.156 249.753 201.48 250.276 201.71 250.842C202.036 251.518 202.315 252.216 202.545 252.931C202.834 253.539 202.904 254.228 202.743 254.882C202.583 255.536 202.201 256.114 201.663 256.52C201.427 256.759 201.294 257.081 201.292 257.417C201.292 257.51 201.292 258.175 201.524 258.02C202.216 257.478 202.754 256.765 203.085 255.951C203.416 255.137 203.529 254.25 203.412 253.379C203.321 252.339 203.049 251.324 202.607 250.378C202.309 249.522 201.887 248.714 201.354 247.98C201.112 247.666 200.776 247.436 200.395 247.325C200.014 247.214 199.608 247.226 199.235 247.361C198.38 247.79 197.694 248.493 197.285 249.357C196.728 250.127 196.368 251.022 196.239 251.964C196.109 252.905 196.214 253.864 196.543 254.756C196.712 255.13 196.983 255.45 197.325 255.677C197.667 255.904 198.066 256.03 198.477 256.04C198.885 256.028 199.281 255.895 199.614 255.658C199.947 255.421 200.202 255.091 200.348 254.71C200.516 254.385 200.55 254.007 200.441 253.658C200.287 253.379 200.101 253.658 200.024 253.859L200.085 253.921Z" fill="white"/>
<path d="M191.763 246.278C190.37 248.955 188.901 251.94 189.581 255.034C189.855 256.455 190.631 257.729 191.767 258.624C192.904 259.519 194.325 259.975 195.769 259.908C196.637 259.901 197.498 259.76 198.322 259.49C198.724 259.335 198.833 257.943 198.461 257.943C197.292 258.407 196.012 258.518 194.78 258.262C193.549 258.006 192.419 257.395 191.531 256.504C190.574 255.422 190.06 254.019 190.092 252.575C190.348 250.724 191.003 248.95 192.01 247.377C192.204 247.057 192.275 246.678 192.211 246.309C192.211 246.062 191.979 245.938 191.825 246.232L191.763 246.278Z" fill="white"/>
<path d="M193.604 261.099C190.649 261.253 188.112 258.005 187.168 255.499C186.619 253.852 186.543 252.086 186.948 250.399C187.352 248.711 188.222 247.171 189.457 245.953C190.496 244.811 191.773 243.91 193.198 243.314C194.622 242.717 196.16 242.441 197.703 242.503C199.246 242.806 200.682 243.51 201.865 244.546C203.041 245.385 204.084 246.397 204.959 247.547C206.062 249.065 206.608 250.916 206.507 252.79C206.405 254.663 205.662 256.445 204.402 257.835C204.186 258.13 204.082 258.491 204.108 258.856C204.108 259.01 204.185 259.474 204.433 259.196C205.586 257.864 206.409 256.279 206.836 254.57C207.264 252.861 207.283 251.075 206.893 249.357C206.073 245.907 202.963 243.091 199.869 241.529C196.775 239.966 192.289 241.823 189.829 244.159C188.512 245.442 187.491 246.997 186.837 248.715C186.182 250.432 185.91 252.272 186.038 254.106C186.237 256.185 187.063 258.154 188.405 259.753C188.94 260.582 189.662 261.274 190.515 261.771C191.367 262.269 192.325 262.558 193.31 262.615C193.774 262.615 193.913 261.068 193.604 261.068V261.099Z" fill="white"/>
<path d="M200.256 239.162C201.341 239.082 202.43 239.236 203.45 239.615C204.47 239.994 205.396 240.589 206.165 241.359C206.918 242.122 207.489 243.047 207.835 244.062C208.18 245.077 208.292 246.157 208.161 247.222C208.161 247.377 208.161 247.887 208.393 247.81C208.625 247.733 208.733 247.114 208.764 246.913C208.946 245.728 208.872 244.519 208.547 243.366C208.221 242.213 207.652 241.143 206.877 240.229C206.091 239.343 205.111 238.649 204.014 238.201C202.917 237.753 201.732 237.563 200.55 237.646C200.086 237.646 199.946 239.193 200.256 239.193V239.162Z" fill="white"/>
<path d="M159.831 461.95C160.412 461.911 160.994 461.991 161.542 462.185C162.09 462.379 162.593 462.684 163.018 463.08C164.565 464.859 163.637 468.216 162.446 469.887C161.255 471.558 159.166 472.687 157.495 471.078C156.493 469.93 155.829 468.527 155.577 467.025C154.788 463.656 155.114 460.122 156.505 456.954C157.712 454.092 159.723 450.642 162.802 449.481C166.314 448.151 168.99 451.26 170.413 454.122C172.153 457.77 172.695 461.875 171.96 465.849C170.8 472.176 168.99 479.772 163.39 483.64C161.914 484.84 160.078 485.51 158.176 485.543C157.191 485.431 156.244 485.093 155.41 484.557C154.576 484.02 153.876 483.299 153.365 482.449C152.268 480.757 151.473 478.889 151.013 476.926C149.771 470.87 149.967 464.606 151.586 458.64C152.642 454.026 154.307 449.572 156.536 445.397C158.104 442.594 159.862 439.901 161.796 437.337C162.985 436.089 163.818 434.545 164.21 432.866C164.38 430.53 161.379 431.319 160.048 431.845C156.643 433.126 153.598 435.212 151.174 437.925C148.749 440.638 147.017 443.897 146.125 447.424C144.781 452.73 144.576 458.261 145.521 463.652C145.599 464.225 145.707 464.782 145.831 465.338C145.955 465.895 146.496 464.704 146.419 464.333C145.349 459.453 145.275 454.406 146.202 449.497C146.904 445.712 148.602 442.182 151.122 439.271C153.747 436.23 157.214 434.034 161.085 432.959C161.487 432.79 161.928 432.735 162.359 432.8C162.79 432.866 163.195 433.049 163.529 433.33C163.529 433.253 163.622 433.036 163.529 433.176C163.436 433.315 163.421 433.423 163.359 433.531C163.146 433.927 162.908 434.31 162.647 434.676C160.945 437.151 159.089 439.518 157.526 442.087C152.935 449.76 150.225 458.412 149.621 467.334C149.16 471.96 149.753 476.63 151.354 480.994C152.777 484.413 155.5 487.987 159.692 486.935C163.146 485.782 166.033 483.36 167.768 480.159C169.421 477.26 170.635 474.132 171.372 470.877C172.612 466.962 173.054 462.837 172.672 458.748C172.293 455.3 170.849 452.056 168.541 449.466C167.994 448.888 167.327 448.436 166.586 448.142C165.846 447.848 165.051 447.719 164.256 447.764C162.73 447.996 161.325 448.731 160.265 449.853C158.055 452.134 156.416 454.907 155.484 457.944C154.286 461.435 154.151 465.204 155.098 468.773C155.385 470.289 156.112 471.687 157.186 472.795C157.852 473.321 158.699 473.562 159.542 473.467C160.385 473.371 161.156 472.946 161.688 472.285C163.106 470.791 163.992 468.872 164.21 466.824C164.457 465.277 164.535 462.786 163.204 461.579C162.318 460.899 161.226 460.544 160.11 460.574C159.677 460.574 159.46 462.121 159.816 462.121L159.831 461.95Z" fill="white"/>
<path d="M175.874 464.843C175.735 476.353 170.29 490.075 158.331 493.757C157.929 493.881 157.805 495.304 158.192 495.304C170.924 491.375 176.339 476.338 176.509 464.209C176.509 463.946 176.431 463.745 176.184 463.868C175.936 463.992 175.89 464.673 175.874 464.89V464.843Z" fill="white"/>
<path d="M145.738 474.28C145.576 478.462 146.099 482.643 147.285 486.656C148.322 489.472 150.58 492.984 153.968 492.845C154.417 492.845 154.587 491.298 154.262 491.298C150.983 491.375 148.817 488.033 147.811 485.311C146.655 481.487 146.132 477.499 146.264 473.507C146.264 472.517 145.63 473.739 145.645 474.187L145.738 474.28Z" fill="white"/>
<path d="M97.8109 462.863C96.7589 466.174 97.5325 470.97 100.719 472.872C103.906 474.775 105.902 470.691 106.567 468.138C107.49 464.69 107.399 461.048 106.304 457.65C105.399 454.627 103.762 451.875 101.539 449.636C99.1568 447.408 96.0164 446.944 93.5102 449.249C91.1785 451.759 89.6721 454.923 89.194 458.315C88.5988 462.326 88.8946 466.42 90.0603 470.304C90.7066 473.375 91.7466 476.349 93.1544 479.153C94.712 482.32 97.2741 484.882 100.441 486.44C101.346 486.897 102.353 487.114 103.366 487.071C104.379 487.028 105.364 486.725 106.227 486.192C107.637 485.201 108.763 483.856 109.491 482.294C111.36 478.349 112.267 474.018 112.136 469.654C112.086 460.993 109.964 452.469 105.948 444.794C104.358 441.833 102.542 438.999 100.518 436.316C99.8994 435.465 99.2497 434.63 98.6927 433.732C98.5071 433.407 98.3988 433.067 98.2286 432.758C98.0585 432.448 98.2286 432.572 98.2286 432.572C98.2286 432.572 98.1358 432.974 98.1513 433.005C98.1667 433.036 98.1513 432.928 98.2751 432.928C98.3988 432.928 98.7082 432.773 98.9093 432.758C99.1714 432.727 99.4362 432.727 99.6983 432.758C100.456 432.868 101.198 433.065 101.911 433.346C103.8 434.087 105.579 435.081 107.201 436.3C110.375 438.67 112.815 441.887 114.24 445.583C116.245 451.151 116.741 457.15 115.679 462.971C115.586 463.575 115.478 464.178 115.354 464.766C115.354 464.921 115.215 465.555 115.478 465.586C115.741 465.617 115.865 465.029 115.896 464.874C118.139 454.2 116.7 441.313 107.14 434.568C105.7 433.526 104.142 432.658 102.498 431.984C101.397 431.421 100.155 431.19 98.9248 431.319C97.3777 431.659 97.5015 433.547 98.0584 434.63C99.1647 436.475 100.395 438.242 101.74 439.92C103.912 442.984 105.758 446.266 107.248 449.713C110.489 457.002 111.973 464.951 111.58 472.919C111.463 474.774 111.141 476.611 110.62 478.395C110.009 480.924 108.565 483.175 106.521 484.784C103.117 487.012 99.0176 484.46 96.6197 481.907C94.3627 479.34 92.7083 476.301 91.7775 473.012C90.7288 469.904 90.0132 466.694 89.6426 463.435C89.2635 459.582 90.178 455.712 92.2416 452.436C93.0521 451.04 94.3365 449.98 95.8617 449.45C96.6315 449.255 97.4361 449.241 98.2121 449.41C98.988 449.58 99.714 449.927 100.333 450.425C102.786 452.45 104.611 455.134 105.592 458.16C106.835 461.32 107.041 464.792 106.18 468.077C106.067 468.825 105.799 469.541 105.395 470.18C104.99 470.819 104.457 471.367 103.829 471.789C101.787 472.764 99.8066 470.66 98.9867 468.989C98.1293 467.302 97.9201 465.359 98.3988 463.528C98.5844 462.925 98.275 461.981 97.9501 463.018L97.8109 462.863Z" fill="white"/>
<path d="M85.2182 464.843C85.3729 476.802 90.7875 491.406 103.303 495.258C103.659 495.366 104.015 493.881 103.612 493.711C91.4373 489.952 85.9917 475.812 85.837 464.132C85.837 463.869 85.837 463.668 85.5121 463.791C85.1873 463.915 85.2182 464.596 85.2182 464.812V464.843Z" fill="white"/>
<path d="M115.37 474.28C115.485 478.085 115.01 481.884 113.962 485.543C113.003 488.219 110.868 491.452 107.681 491.39C107.232 491.39 107.047 492.937 107.387 492.937C110.899 493.015 113.189 489.379 114.271 486.486C115.547 482.325 116.127 477.981 115.989 473.63C115.989 473.367 115.989 473.166 115.664 473.29C115.339 473.414 115.37 474.079 115.37 474.311V474.28Z" fill="white"/>
<path d="M82.8512 167.194C76.0597 171.495 72.1767 178.766 69.6859 186.176C66.9322 194.391 65.9421 203.054 63.2348 211.269C61.7644 216.135 59.3283 220.655 56.072 224.558C55.8566 224.853 55.7525 225.215 55.7781 225.579C55.7781 225.734 55.7781 226.198 56.0875 225.919C67.6438 212.692 65.3697 193.432 73.5999 178.673C75.7571 174.638 78.8896 171.208 82.712 168.694C83.0987 168.447 83.1142 167.039 82.8512 167.147V167.194Z" fill="white"/>
<path d="M77.9626 161.656C71.7744 168.153 65.3697 175.331 65.0603 184.861C65.0603 185.14 65.0603 185.341 65.3852 185.217C65.71 185.093 65.6791 184.413 65.6791 184.196C65.9576 175.61 72.4087 168.911 77.9781 163.079C78.2411 162.8 78.3184 161.346 77.9781 161.718L77.9626 161.656Z" fill="white"/>
<path d="M75.1933 156.983C71.7108 158.971 68.7249 161.724 66.4605 165.033C64.1961 168.343 62.7124 172.123 62.1209 176.089C62.1209 176.228 61.9971 176.878 62.2447 176.894C62.4922 176.909 62.6469 176.352 62.6778 176.198C63.2651 172.499 64.684 168.981 66.8278 165.91C68.9716 162.839 71.7843 160.295 75.0541 158.468C75.4409 158.252 75.4718 156.813 75.1933 156.921V156.983Z" fill="white"/>
<path d="M78.6278 190.26C75.3171 195.149 74.2806 201.089 73.3679 206.875C72.4242 212.909 71.6197 219.53 67.6438 224.45C66.7804 225.64 65.6836 226.642 64.4202 227.395C63.1568 228.148 61.7533 228.635 60.2954 228.828C59.8313 228.828 59.7075 230.375 60.0015 230.375C65.3387 229.926 68.9897 224.96 70.8307 220.365C73.2131 214.394 73.5535 207.989 74.8685 201.662C75.495 198.031 76.8359 194.56 78.8134 191.451C79.0145 191.142 79.0609 189.657 78.6278 190.291V190.26Z" fill="white"/>
<path d="M80.3757 209.923C79.8768 215.057 78.5388 220.074 76.4153 224.774C74.4661 229.075 71.2637 233.546 66.1275 233.871C65.6634 233.871 65.5242 235.418 65.8336 235.418C71.2018 235.062 74.5279 230.421 76.6628 225.95C79.0253 220.793 80.5052 215.276 81.0409 209.629C81.1492 208.577 80.4995 209.304 80.4376 209.938L80.3757 209.923Z" fill="white"/>
<path d="M159.136 251.507C150.405 258.98 144.192 268.963 141.345 280.096C141.345 280.236 141.19 281.427 141.577 281.025C145.125 277.498 149.676 275.152 154.607 274.308C159.538 273.463 164.61 274.161 169.129 276.306C169.392 276.43 169.841 274.991 169.423 274.759C164.843 272.609 159.711 271.925 154.727 272.8C149.743 273.674 145.151 276.066 141.577 279.648L141.809 280.576C144.609 269.771 150.67 260.091 159.166 252.853C159.46 252.606 159.553 251.136 159.166 251.492L159.136 251.507Z" fill="white"/>
<path d="M166.376 261.099C164.338 261.307 162.365 261.932 160.579 262.935C158.793 263.939 157.233 265.299 155.995 266.931C155.79 267.231 155.686 267.589 155.701 267.952C155.701 268.076 155.809 268.571 156.026 268.293C157.224 266.708 158.734 265.386 160.464 264.409C162.194 263.432 164.106 262.822 166.082 262.615C166.546 262.615 166.654 261.068 166.376 261.068V261.099Z" fill="white"/>
<path d="M102.359 252.9C110.949 260.232 117.066 270.038 119.872 280.978L120.367 279.632C116.79 276.054 112.195 273.669 107.21 272.802C102.226 271.935 97.0951 272.63 92.5202 274.79C92.118 274.991 92.0561 276.445 92.381 276.337C96.9058 274.2 101.98 273.511 106.911 274.364C111.841 275.217 116.389 277.57 119.934 281.102C120.274 281.473 120.46 279.926 120.413 279.756C117.57 268.758 111.42 258.897 102.792 251.507C102.499 251.26 102.034 252.683 102.359 252.946V252.9Z" fill="white"/>
<path d="M95.3515 262.615C97.3424 262.818 99.27 263.43 101.014 264.412C102.757 265.395 104.279 266.726 105.485 268.324C105.67 268.571 105.902 267.952 105.933 267.86C105.998 267.705 106.032 267.54 106.032 267.372C106.032 267.205 105.998 267.039 105.933 266.885C104.708 265.269 103.164 263.922 101.397 262.927C99.6303 261.931 97.6779 261.309 95.661 261.099C95.2278 261.099 94.9957 262.646 95.367 262.646L95.3515 262.615Z" fill="white"/>
<path d="M144.129 128.369C148.711 138.148 156.808 145.843 166.809 149.919C169.642 151.072 172.594 151.907 175.612 152.41C176.014 152.41 176.308 150.956 175.921 150.863C165.369 149.033 155.885 143.315 149.343 134.835C147.517 132.435 145.961 129.841 144.702 127.1C144.485 126.621 144.006 127.998 144.176 128.353L144.129 128.369Z" fill="white"/>
<path d="M140.989 137.939C143.316 142.179 146.479 145.901 150.287 148.882C154.095 151.863 158.469 154.04 163.143 155.282C163.514 155.374 163.854 153.874 163.436 153.735C158.824 152.527 154.505 150.396 150.74 147.471C146.974 144.546 143.841 140.888 141.53 136.717C141.267 136.253 140.803 137.63 140.989 137.986V137.939Z" fill="white"/>
<path d="M171.512 160.526C163.65 159.93 155.846 162.267 149.606 167.085C146.587 169.377 144.153 172.351 142.505 175.764C140.948 179.322 140.051 183.133 139.86 187.011C139.736 189.027 139.767 191.049 139.952 193.06C140.265 195.409 140.182 197.794 139.705 200.115C138.699 204.183 137.245 208.175 137.322 212.491C137.322 217.039 139.395 221.201 140.138 225.625C140.574 228.708 140.521 231.841 139.983 234.907C139.349 238.961 138.436 242.983 137.756 247.036C136.972 251.78 136.374 256.561 135.961 261.377C135.868 262.429 136.503 261.718 136.564 261.068C136.92 256.829 137.431 252.59 138.111 248.382C138.668 244.855 139.411 241.374 140.061 237.862C140.683 234.847 141.03 231.782 141.097 228.704C140.903 225.076 140.222 221.491 139.071 218.045C138.355 215.782 137.979 213.425 137.957 211.052C138.072 208.881 138.446 206.73 139.071 204.647C139.597 202.698 140.246 200.749 140.618 198.753C140.865 196.755 140.865 194.734 140.618 192.735C139.952 184.598 141.267 176.275 147.378 170.396C150.556 167.423 154.319 165.143 158.425 163.702C162.532 162.261 166.894 161.691 171.233 162.027C171.667 162.027 171.883 160.48 171.527 160.48L171.512 160.526Z" fill="white"/>
<path d="M163.05 153.766C157.421 154.207 152.044 156.282 147.579 159.737C143.222 163.242 139.83 167.8 137.725 172.98C137.554 173.382 137.725 174.743 138.05 173.831C140.129 168.739 143.512 164.284 147.858 160.913C152.176 157.679 157.318 155.728 162.694 155.282C163.158 155.282 163.282 153.735 162.988 153.735L163.05 153.766Z" fill="white"/>
<path d="M159.414 185.789C158.842 183.283 157.759 179.477 154.51 179.601C152.468 179.601 151.509 181.875 151.06 183.577C149.931 187.878 152.004 192.07 155.036 195.087C156.654 196.713 158.706 197.84 160.947 198.334C163.188 198.828 165.523 198.667 167.675 197.872C172.61 195.783 173.77 189.827 173.105 185.047C172.685 181.978 171.511 179.061 169.689 176.555C167.867 174.05 165.453 172.035 162.663 170.69C162.384 170.566 161.951 172.005 162.369 172.237C164.53 173.284 166.463 174.749 168.056 176.547C169.649 178.344 170.871 180.439 171.651 182.711C173.09 186.841 173.353 192.333 169.578 195.334C166.484 197.841 161.518 197.562 158.114 195.721C156.473 194.785 155.036 193.529 153.888 192.028C152.74 190.526 151.905 188.81 151.431 186.98C151.075 185.248 151.431 182.339 153.148 181.411C153.801 181.158 154.517 181.119 155.192 181.3C155.868 181.48 156.469 181.872 156.908 182.417C157.912 183.704 158.553 185.237 158.764 186.857C158.934 187.63 159.445 186.222 159.368 185.867L159.414 185.789Z" fill="white"/>
<path d="M136.348 143.292C135.998 146.023 136.533 148.793 137.875 151.197C139.218 153.6 141.296 155.509 143.805 156.643C144.098 156.767 144.532 155.313 144.114 155.096C141.784 154.082 139.837 152.352 138.554 150.158C137.272 147.963 136.722 145.418 136.982 142.89C136.982 142.704 136.982 142.271 136.75 142.302C136.518 142.333 136.394 143.045 136.379 143.199L136.348 143.292Z" fill="white"/>
<path d="M117.165 127.317C112.625 136.898 104.652 144.424 94.8254 148.403C92.0189 149.555 89.0923 150.391 86.1002 150.894C85.6206 150.894 85.5433 152.441 85.8063 152.441C96.5993 150.577 106.276 144.668 112.864 135.918C114.686 133.515 116.242 130.922 117.505 128.183C117.691 127.781 117.598 126.435 117.18 127.332L117.165 127.317Z" fill="white"/>
<path d="M120.367 136.733C118.063 140.903 114.936 144.561 111.176 147.486C107.416 150.412 103.1 152.543 98.4918 153.75C98.1051 153.843 97.9504 155.297 98.3526 155.297C103.049 154.055 107.443 151.87 111.267 148.875C115.092 145.88 118.267 142.138 120.599 137.877C120.793 137.558 120.864 137.178 120.8 136.81C120.707 136.578 120.584 136.408 120.413 136.733H120.367Z" fill="white"/>
<path d="M90.1998 162.042C98.0092 161.442 105.764 163.757 111.967 168.54C115.099 170.914 117.57 174.051 119.145 177.652C120.637 181.396 121.383 185.395 121.342 189.425C121.342 191.575 121.017 193.71 120.955 195.845C120.91 197.809 121.155 199.769 121.682 201.662C122.827 205.994 124.312 210.294 123.554 214.827C122.842 218.989 121.11 222.887 120.738 227.111C120.544 229.996 120.7 232.895 121.202 235.743C121.837 239.703 122.749 243.633 123.399 247.593C124.173 252.234 124.745 256.999 125.163 261.733C125.163 262.089 125.379 261.981 125.55 261.733C125.743 261.413 125.815 261.034 125.751 260.666C125.379 256.349 124.869 252.049 124.204 247.779C123.631 244.143 122.873 240.554 122.208 236.95C121.547 233.854 121.246 230.693 121.311 227.528C121.543 223.274 123.275 219.375 124.049 215.152C124.64 211.13 124.29 207.026 123.028 203.162C122.282 200.973 121.794 198.704 121.574 196.402C121.574 194.174 121.868 191.962 121.945 189.734C122.27 181.999 120.088 174.047 114.364 168.664C111.17 165.718 107.404 163.464 103.299 162.039C99.1948 160.615 94.8408 160.053 90.5091 160.387C90.045 160.387 89.9213 161.934 90.2152 161.934L90.1998 162.042Z" fill="white"/>
<path d="M98.6619 155.281C104.131 155.721 109.36 157.718 113.73 161.036C118.047 164.457 121.409 168.933 123.492 174.031C123.693 174.496 124.188 173.134 124.033 172.778C121.924 167.613 118.526 163.075 114.163 159.598C109.76 156.242 104.488 154.218 98.9713 153.765C98.5381 153.765 98.3061 155.312 98.6619 155.312V155.281Z" fill="white"/>
<path d="M102.87 186.346C103.055 184.929 103.586 183.579 104.417 182.416C104.829 181.888 105.388 181.493 106.024 181.281C106.66 181.069 107.344 181.05 107.991 181.225C109.367 181.736 109.955 183.515 110.218 184.83C110.976 188.62 107.867 192.843 104.881 194.947C103.276 196.082 101.407 196.788 99.4528 196.999C97.4983 197.211 95.5222 196.92 93.7115 196.154C89.3024 194.019 88.4515 188.667 89.3643 184.319C89.9472 181.681 91.1276 179.211 92.8145 177.101C94.5015 174.99 96.6501 173.294 99.0952 172.144C99.4974 171.959 99.5593 170.504 99.2344 170.597C96.7479 171.803 94.5526 173.534 92.8005 175.67C91.0483 177.807 89.7809 180.299 89.0858 182.973C87.8637 187.615 87.8946 193.803 92.1799 196.897C96.063 199.62 101.833 198.691 105.376 195.845C108.919 192.998 111.564 188.465 110.837 184.072C110.559 182.386 109.801 179.864 107.851 179.508C104.216 178.843 102.839 183.53 102.251 186.16C102.05 187.042 102.591 187.15 102.793 186.269L102.87 186.346Z" fill="white"/>
<path d="M124.776 143.632C125.011 146.047 124.466 148.473 123.221 150.556C121.977 152.638 120.098 154.267 117.861 155.204C117.459 155.374 117.381 156.844 117.722 156.751C120.322 155.525 122.465 153.503 123.839 150.977C125.213 148.451 125.747 145.554 125.364 142.704C125.364 142.379 125.132 142.426 124.977 142.704C124.783 143.024 124.712 143.403 124.776 143.772V143.632Z" fill="white"/>
<path d="M179.108 325.022C177.389 327.573 175.092 329.682 172.403 331.177C169.715 332.672 166.711 333.51 163.637 333.624C163.173 333.624 163.018 335.171 163.343 335.171C166.511 335.034 169.602 334.149 172.363 332.59C175.125 331.031 177.478 328.84 179.231 326.198C179.439 325.884 179.517 325.501 179.448 325.131C179.371 324.852 179.231 324.775 179.061 325.053L179.108 325.022Z" fill="white"/>
<path d="M165.355 315.199C166.3 310.157 166.591 305.014 166.221 299.898C166.153 297.709 165.352 295.606 163.947 293.927C162.565 292.528 160.78 291.598 158.842 291.266C156.691 291 154.509 291.287 152.501 292.099C150.492 292.911 148.724 294.222 147.363 295.907C144.617 299.3 142.995 303.463 142.721 307.819C142.248 312.086 143.188 316.391 145.398 320.072C146.477 321.787 147.932 323.236 149.652 324.307C151.373 325.379 153.314 326.047 155.33 326.26C165.123 327.111 169.361 315.74 171.697 308.206C173.043 303.859 173.755 298.924 171.945 294.654C170.135 290.384 166.252 288.141 162.369 286.594C158.006 284.768 153.164 283.856 148.724 285.975C144.984 287.937 142.01 291.096 140.277 294.948C138.209 299.297 136.881 303.961 136.348 308.747C135.962 311.014 136.115 313.339 136.795 315.535C137.475 317.731 138.662 319.735 140.262 321.387C145.986 328.116 154.866 335.604 164.287 331.968C172.115 328.952 177.174 320.768 179.015 312.924C180.246 307.685 180.152 302.222 178.742 297.028C177.333 291.834 174.651 287.073 170.939 283.175C170.707 282.927 170.212 284.289 170.522 284.614C176.19 290.515 179.327 298.399 179.262 306.582C179.212 310.395 178.382 314.157 176.823 317.637C175.264 321.117 173.009 324.241 170.197 326.817C167.178 329.772 163.128 331.437 158.903 331.458C154.549 331.082 150.432 329.313 147.161 326.415C145.561 325.09 144.042 323.669 142.613 322.16C141.139 320.719 139.826 319.122 138.699 317.395C136.054 313.156 136.673 308.484 137.786 303.859C138.634 299.493 140.465 295.377 143.139 291.823C144.346 290.273 145.856 288.986 147.577 288.039C149.298 287.092 151.194 286.506 153.148 286.315C157.522 286.296 161.813 287.514 165.525 289.827C167.368 290.746 168.959 292.102 170.159 293.776C171.359 295.451 172.131 297.393 172.409 299.434C172.981 304.075 171.218 308.577 169.563 312.785C168.015 316.746 166.02 320.814 162.322 323.181C160.762 324.158 158.981 324.727 157.143 324.838C155.306 324.949 153.469 324.597 151.803 323.816C150.032 323.007 148.451 321.836 147.162 320.378C145.872 318.921 144.902 317.209 144.315 315.353C141.685 307.618 144.423 297.114 152.437 293.695C154.199 292.884 156.159 292.598 158.079 292.873C160 293.147 161.801 293.97 163.266 295.242C164.765 296.795 165.626 298.854 165.679 301.012C165.834 303.356 165.834 305.707 165.679 308.051C165.544 310.475 165.26 312.887 164.829 315.276C164.829 315.431 164.705 316.065 164.968 316.096C165.231 316.127 165.355 315.539 165.386 315.384L165.355 315.199Z" fill="white"/>
<path d="M163.127 300.718C163.091 300.069 162.905 299.437 162.584 298.873C162.262 298.308 161.813 297.826 161.273 297.464C160.733 297.102 160.116 296.871 159.471 296.789C158.826 296.707 158.171 296.776 157.558 296.99C154.464 297.872 152.793 301.043 151.787 303.843C150.545 306.766 150.462 310.051 151.555 313.033C152.073 314.301 152.965 315.381 154.111 316.13C155.258 316.879 156.606 317.261 157.975 317.225C158.439 317.225 158.563 315.678 158.269 315.678C157.173 315.733 156.081 315.499 155.104 315C154.127 314.5 153.297 313.752 152.7 312.832C151.978 311.635 151.545 310.286 151.435 308.892C151.325 307.498 151.541 306.098 152.066 304.803C152.886 302.327 154.324 299.666 156.877 298.614C159.012 297.764 162.384 298.614 162.508 301.337C162.508 302.327 163.142 301.105 163.127 300.657V300.718Z" fill="white"/>
<path d="M148.94 312.631C149.242 314.227 149.866 315.746 150.773 317.094C151.679 318.443 152.851 319.593 154.216 320.474C156.923 322.176 160.713 322.408 162.694 319.5C162.891 319.175 162.963 318.79 162.895 318.417C162.895 318.138 162.694 318.076 162.508 318.339C160.605 321.139 156.676 320.428 154.278 318.788C151.828 317.104 150.126 314.537 149.528 311.625C149.528 311.316 149.312 311.331 149.142 311.548C148.952 311.875 148.881 312.257 148.94 312.631Z" fill="white"/>
<path d="M135.11 318.324C135.457 322.893 137.433 327.187 140.679 330.421C144.075 333.722 148.585 335.627 153.319 335.759C153.767 335.759 153.968 334.212 153.613 334.212C149.076 334.071 144.747 332.272 141.446 329.157C138.145 326.041 136.1 321.824 135.698 317.303C135.698 316.947 135.481 317.055 135.311 317.225C135.117 317.545 135.046 317.924 135.11 318.293V318.324Z" fill="white"/>
<path d="M153.813 288.249C151.911 287.962 149.968 288.335 148.307 289.306C146.646 290.277 145.368 291.788 144.686 293.587C144.524 293.918 144.485 294.297 144.578 294.654C144.732 294.933 144.934 294.654 145.011 294.453C145.688 292.826 146.901 291.479 148.448 290.635C149.996 289.791 151.785 289.5 153.52 289.812C153.906 289.812 154.2 288.358 153.813 288.265V288.249Z" fill="white"/>
<path d="M82.3098 326.306C84.0506 328.914 86.3832 331.074 89.1174 332.609C91.8517 334.144 94.9101 335.012 98.0432 335.14C98.4763 335.14 98.6774 333.593 98.3371 333.593C95.2306 333.47 92.1976 332.612 89.4869 331.09C86.7761 329.568 84.465 327.425 82.743 324.837C82.5728 324.589 82.3252 325.223 82.2943 325.301C82.2256 325.454 82.1901 325.62 82.1901 325.788C82.1901 325.956 82.2256 326.122 82.2943 326.275L82.3098 326.306Z" fill="white"/>
<path d="M96.9291 314.642C96.0482 309.9 95.7675 305.066 96.0937 300.254C96.118 299.134 96.39 298.032 96.8902 297.029C97.3904 296.026 98.1063 295.147 98.9866 294.453C100.535 293.311 102.4 292.678 104.324 292.643C113.173 292.411 118.247 301.585 118.417 309.397C118.524 311.485 118.216 313.574 117.509 315.542C116.803 317.509 115.713 319.317 114.302 320.861C113.015 322.204 111.445 323.244 109.705 323.905C107.966 324.566 106.101 324.832 104.247 324.682C102.38 324.378 100.604 323.666 99.0451 322.596C97.486 321.527 96.1824 320.126 95.2274 318.494C94.0283 316.538 93.033 314.464 92.257 312.306C91.4263 310.284 90.7084 308.218 90.1067 306.118C88.9 301.739 88.6679 296.681 91.8084 293.03C94.7496 290.079 98.4404 287.988 102.483 286.981C104.47 286.301 106.583 286.071 108.669 286.307C110.756 286.542 112.764 287.237 114.55 288.342C117.824 290.606 120.341 293.802 121.774 297.516C122.622 299.578 123.305 301.704 123.817 303.874C124.43 306.092 124.809 308.369 124.946 310.666C125.051 313.059 124.425 315.428 123.151 317.457C121.971 319.23 120.602 320.869 119.067 322.346C116.211 325.55 112.745 328.153 108.872 330.004C106.954 330.86 104.877 331.303 102.777 331.303C100.676 331.303 98.5994 330.86 96.6816 330.004C89.6426 326.801 84.9241 319.36 83.2688 312.012C82.4066 308.191 82.3058 304.238 82.9721 300.378C83.6384 296.519 85.0587 292.828 87.1518 289.518C88.2871 287.726 89.5927 286.047 91.0503 284.505C91.3133 284.227 91.3907 282.773 91.0503 283.129C88.0258 286.322 85.6623 290.082 84.0959 294.191C82.5294 298.301 81.7909 302.68 81.9228 307.077C82.0094 311.191 82.9524 315.241 84.6918 318.97C86.4311 322.7 88.9287 326.025 92.025 328.735C93.727 330.251 95.7355 331.382 97.9139 332.052C100.092 332.722 102.389 332.915 104.649 332.618C109.227 331.638 113.418 329.336 116.7 325.997C119.949 322.996 123.445 319.592 124.869 315.307C126.416 310.759 125.255 305.839 124.064 301.384C123.056 296.802 120.87 292.562 117.721 289.085C116.211 287.484 114.347 286.26 112.278 285.511C110.209 284.761 107.994 284.507 105.809 284.768C103.454 285.12 101.162 285.808 99.0021 286.811C96.9645 287.651 95.0536 288.77 93.3245 290.137C91.7366 291.564 90.4938 293.333 89.6898 295.311C88.8858 297.289 88.5417 299.424 88.6834 301.554C88.8071 306.411 90.71 311.238 92.6284 315.647C94.3456 319.608 96.8672 323.584 100.982 325.394C102.844 326.129 104.862 326.381 106.847 326.126C108.832 325.872 110.721 325.12 112.338 323.939C115.657 321.489 117.906 317.855 118.619 313.791C120.336 305.592 117.365 294.84 108.733 291.792C106.795 291.027 104.667 290.889 102.647 291.397C100.626 291.905 98.8162 293.033 97.4705 294.623C96.3404 296.283 95.6827 298.219 95.5677 300.223C95.3589 302.828 95.3589 305.446 95.5677 308.051C95.7061 310.599 96.0006 313.136 96.4495 315.647C96.5888 316.405 97.1147 315.013 97.0374 314.642H96.9291Z" fill="white"/>
<path d="M99.2033 300.904C99.3125 300.3 99.5988 299.742 100.026 299.302C100.453 298.861 101.001 298.557 101.601 298.429C102.71 298.17 103.873 298.301 104.896 298.8C107.134 300.105 108.768 302.239 109.445 304.741C110.357 307.247 110.837 310.263 109.352 312.661C108.789 313.638 107.97 314.443 106.983 314.988C105.996 315.534 104.878 315.799 103.752 315.755C103.318 315.755 103.086 317.302 103.442 317.302C108.377 317.705 111.054 312.445 110.914 308.19C110.775 303.936 108.176 296.82 102.947 296.851C101.79 296.887 100.691 297.369 99.8805 298.196C99.0702 299.024 98.6114 300.133 98.6 301.291C98.6 302.343 99.1724 301.631 99.2033 300.981V300.904Z" fill="white"/>
<path d="M112.214 312.074C111.908 313.515 111.311 314.878 110.46 316.08C109.608 317.283 108.521 318.299 107.264 319.066C104.773 320.613 101.168 320.892 99.3272 318.2C99.157 317.952 98.9095 318.587 98.894 318.664C98.8289 318.818 98.7954 318.984 98.7954 319.151C98.7954 319.319 98.8289 319.484 98.894 319.639C100.952 322.655 105.082 322.021 107.681 320.196C110.338 318.274 112.155 315.405 112.755 312.182C112.755 312.012 112.895 311.408 112.632 311.362C112.369 311.316 112.245 311.934 112.214 312.074Z" fill="white"/>
<path d="M126.013 317.983C125.559 322.374 123.518 326.448 120.274 329.441C117.03 332.435 112.806 334.142 108.393 334.243C107.929 334.243 107.774 335.79 108.099 335.79C112.964 335.657 117.593 333.664 121.032 330.22C124.294 326.826 126.269 322.4 126.617 317.705C126.694 316.653 126.06 317.364 126.013 318.014V317.983Z" fill="white"/>
<path d="M107.913 289.766C109.702 289.472 111.538 289.796 113.118 290.685C114.698 291.573 115.929 292.973 116.607 294.654C116.731 294.964 116.963 294.654 117.025 294.453C117.184 294.126 117.222 293.754 117.133 293.401C116.457 291.653 115.202 290.188 113.579 289.251C111.955 288.314 110.059 287.961 108.207 288.249C107.727 288.327 107.65 289.796 107.913 289.796V289.766Z" fill="white"/>
<path d="M144.176 344.391C143.147 355.84 142.729 367.335 142.923 378.828C143.026 384.531 143.278 390.24 143.681 395.954C144.052 401.152 144.207 406.644 146.001 411.594C147.548 415.941 151.385 420.691 156.537 420.026C157.016 420.026 157.109 418.479 156.83 418.479C152.189 419.082 148.538 415.183 146.898 411.269C144.903 406.505 144.733 401.09 144.361 396.016C143.552 384.995 143.314 373.939 143.65 362.894C143.835 356.613 144.212 350.342 144.779 344.082C144.887 343.03 144.238 343.741 144.176 344.376V344.391Z" fill="white"/>
<path d="M167.613 347.47C169.992 353.372 171.634 359.544 172.502 365.848C174.049 376.987 173.121 388.574 168.155 398.785C165.4 404.392 161.568 409.402 156.877 413.528C156.583 413.776 156.49 415.245 156.877 414.889C165.709 407 171.487 396.256 173.198 384.537C174.585 374.474 173.837 364.232 171.001 354.478C170.236 351.672 169.306 348.913 168.216 346.217C168.031 345.752 167.536 347.114 167.69 347.47H167.613Z" fill="white"/>
<path d="M148.925 368.246C146.943 378.943 147.472 389.953 150.472 400.409C151.27 403.135 152.242 405.806 153.38 408.407C153.597 408.872 154.077 407.51 153.922 407.154C148.62 394.95 147.049 381.45 149.404 368.355C149.404 368.215 149.544 367.566 149.281 367.55C149.018 367.535 148.894 368.092 148.863 368.246H148.925Z" fill="white"/>
<path d="M180.67 335.341C178.922 350.363 177.808 365.431 176.725 380.514C176.339 386.13 175.952 391.761 175.178 397.346C174.711 401.268 173.668 405.099 172.084 408.717C171.032 410.95 169.526 412.938 167.661 414.555C165.796 416.172 163.614 417.382 161.255 418.107C160.853 418.231 160.729 419.654 161.116 419.654C165.553 418.272 169.298 415.252 171.589 411.208C173.411 407.743 174.645 404 175.24 400.131C176.14 394.789 176.755 389.403 177.081 383.995C177.654 376.508 178.118 369.005 178.705 361.501C179.407 352.683 180.268 343.881 181.289 335.094C181.289 334.908 181.289 334.459 181.057 334.506C180.825 334.552 180.717 335.233 180.686 335.403L180.67 335.341Z" fill="white"/>
<path d="M163.715 357.758C167.43 368.355 167.625 379.869 164.272 390.586C164.071 391.205 164.395 392.133 164.72 391.096C168.283 379.815 168.12 367.686 164.256 356.505C164.132 356.18 163.885 356.505 163.823 356.706C163.665 357.033 163.626 357.405 163.715 357.758Z" fill="white"/>
<path d="M158.439 350.486C155.438 353.998 154.974 358.856 155.144 363.296C155.422 369.107 156.256 374.878 157.635 380.53C157.82 381.288 158.331 379.896 158.238 379.54C157.021 374.499 156.224 369.366 155.856 364.193C155.577 359.954 155.546 355.267 158.455 351.817C158.672 351.528 158.782 351.172 158.764 350.811C158.764 350.657 158.671 350.193 158.439 350.456V350.486Z" fill="white"/>
<path d="M116.932 344.747C117.907 355.636 118.325 366.567 118.185 377.498C118.108 382.959 117.907 388.404 117.551 393.865C117.211 399.002 117.118 404.463 115.648 409.429C114.287 414.07 110.574 419.206 105.175 418.494C104.773 418.494 104.51 419.964 104.881 420.041C109.29 420.614 112.941 417.086 114.751 413.42C117.087 408.779 117.412 403.271 117.845 398.135C118.76 386.551 119.049 374.927 118.711 363.311C118.526 356.783 118.123 350.255 117.551 343.757C117.551 343.401 117.319 343.509 117.164 343.68C116.961 344.002 116.884 344.387 116.948 344.763L116.932 344.747Z" fill="white"/>
<path d="M93.6805 346.418C91.1356 352.711 89.4044 359.303 88.5288 366.034C86.9818 377.451 88.0493 389.394 93.1699 399.837C95.9614 405.574 99.863 410.701 104.649 414.921C104.943 415.184 105.392 413.776 105.082 413.482C96.4899 405.843 90.8553 395.429 89.1631 384.057C87.838 374.303 88.6026 364.378 91.4063 354.942C92.1332 352.369 93.0008 349.839 94.0053 347.362C94.0982 347.129 94.2993 346.511 94.1137 346.294C93.928 346.077 93.7888 346.294 93.6805 346.495V346.418Z" fill="white"/>
<path d="M112.214 368.803C114.607 381.804 113.084 395.223 107.836 407.355C107.666 407.758 107.836 409.119 108.161 408.206C112.693 397.796 114.61 386.436 113.745 375.115C113.56 372.662 113.25 370.22 112.817 367.798C112.678 367.04 112.152 368.432 112.214 368.803Z" fill="white"/>
<path d="M80.376 335.681C82.186 351.152 83.2844 366.622 84.4137 382.092C84.8159 387.631 85.2027 393.2 86.0845 398.692C86.5848 402.667 87.6854 406.542 89.3488 410.187C90.4506 412.447 92.0095 414.454 93.9267 416.081C95.844 417.708 98.078 418.92 100.487 419.639C100.828 419.747 101.184 418.262 100.781 418.092C96.3813 416.733 92.6744 413.729 90.4317 409.707C88.6829 406.252 87.5222 402.529 86.9973 398.692C86.0691 393.37 85.6514 387.956 85.2491 382.572C84.7077 375.177 84.2436 367.782 83.7021 360.388C83.0214 351.807 82.1808 343.241 81.1804 334.691C81.1804 334.335 80.9484 334.444 80.7937 334.691C80.5945 335.009 80.5175 335.388 80.5771 335.759L80.376 335.681Z" fill="white"/>
<path d="M97.5018 356.876C93.6137 368.049 93.4238 380.178 96.9603 391.467C97.0686 391.808 97.3161 391.467 97.3935 391.266C97.5468 390.937 97.5797 390.565 97.4863 390.214C94.1015 379.507 94.2643 367.993 97.9504 357.386C98.167 356.783 97.8576 355.839 97.5018 356.876Z" fill="white"/>
<path d="M103.055 351.894C105.979 355.313 106.149 360.016 105.886 364.271C105.57 369.566 104.799 374.825 103.581 379.989C103.581 380.128 103.458 380.762 103.705 380.793C103.953 380.824 104.092 380.252 104.123 380.097C105.493 374.517 106.327 368.818 106.614 363.079C106.83 358.701 106.536 353.906 103.519 350.425C103.303 350.177 102.792 351.523 103.086 351.863L103.055 351.894Z" fill="white"/>
<path d="M69.5467 269.963C67.6014 283.146 63.075 295.816 56.2267 307.247C54.6797 309.8 53.0398 312.29 51.2917 314.704C51.0751 315.013 51.0132 316.498 51.4618 315.864C59.1446 305.252 64.7554 293.285 67.9996 280.591C68.8841 277.123 69.5915 273.612 70.1191 270.072C70.1191 269.932 70.2429 269.298 69.9953 269.267C69.7478 269.236 69.5931 269.809 69.5622 269.963H69.5467Z" fill="white"/>
<path d="M53.2565 268.679C48.9427 276.656 46.9441 285.679 47.486 294.731C47.486 295.737 48.1203 294.515 48.1048 294.066C47.582 285.645 49.4311 277.247 53.4421 269.824C53.6359 269.504 53.7074 269.125 53.6432 268.757C53.5504 268.525 53.4266 268.354 53.2565 268.679Z" fill="white"/>
<path d="M56.7835 297.423C61.0993 289.442 63.098 280.413 62.554 271.356C62.554 270.366 61.9042 271.588 61.9351 272.036C62.4563 280.457 60.6073 288.855 56.5979 296.278C56.404 296.598 56.3326 296.977 56.3967 297.346C56.4896 297.578 56.6133 297.748 56.7835 297.346V297.423Z" fill="white"/>
<path d="M54.6951 281.566C54.0911 290.761 51.123 299.644 46.0782 307.355C45.877 307.665 45.8306 309.15 46.2483 308.515C51.5572 300.363 54.6742 290.98 55.2985 281.272C55.2985 280.205 54.7415 280.916 54.6951 281.566Z" fill="white"/>
<path d="M44.624 333.005C43.8186 333.069 43.0353 333.299 42.3241 333.682C41.6128 334.066 40.9892 334.593 40.4929 335.23C39.9966 335.868 39.6385 336.602 39.4415 337.385C39.2445 338.169 39.2128 338.984 39.3486 339.781C39.4655 340.586 39.7613 341.355 40.2144 342.031C40.6675 342.707 41.2662 343.272 41.9667 343.686C42.6671 344.1 43.4515 344.352 44.262 344.423C45.0726 344.494 45.8888 344.383 46.6506 344.097C49.8839 342.983 51.4773 339.301 51.4154 336.083C51.4154 332.185 48.9247 328.348 46.7743 325.254C45.2273 323.026 42.7521 320.52 43.572 317.519C43.8314 316.733 44.3866 316.079 45.12 315.694C45.8534 315.31 46.7075 315.227 47.5014 315.461C47.986 315.636 48.4141 315.939 48.74 316.338C49.0659 316.737 49.2774 317.217 49.352 317.727C49.4267 318.236 49.3616 318.757 49.1637 319.232C48.9659 319.708 48.6427 320.121 48.2286 320.427C45.8307 323.104 42.3498 324.202 39.2712 325.827C36.8255 327.005 34.8005 328.906 33.4698 331.272C32.5452 332.861 32.0402 334.659 32.0023 336.496C31.9644 338.334 32.3949 340.151 33.2532 341.777C34.6428 343.903 36.7255 345.482 39.1475 346.247C39.4723 346.356 39.8591 344.871 39.4414 344.7C37.4876 344.059 35.7481 342.892 34.4135 341.328C33.3451 339.982 32.7294 338.332 32.6544 336.615C32.5794 334.898 33.0489 333.201 33.9958 331.767C37.2137 326.322 44.624 326.167 48.5225 321.433C50.1778 319.437 50.9977 315.709 48.2904 314.131C47.6835 313.827 46.9979 313.716 46.3259 313.812C45.6539 313.909 45.0276 314.209 44.5311 314.672C43.5943 315.553 43.0158 316.749 42.9068 318.03C42.7702 319.203 42.8696 320.392 43.199 321.526C43.5285 322.661 44.0813 323.718 44.8251 324.635C47.306 327.596 49.2391 330.975 50.5336 334.614C50.8834 335.69 50.949 336.838 50.724 337.946C50.499 339.055 49.9911 340.087 49.2496 340.941C48.5998 341.667 47.776 342.215 46.8558 342.534C45.9356 342.854 44.9493 342.934 43.9897 342.767C42.9615 342.631 42.0083 342.156 41.2821 341.415C40.5558 340.675 40.0984 339.713 39.9829 338.682C39.7508 336.254 42.1796 334.567 44.3764 334.475C44.8405 334.475 44.9953 332.928 44.6704 332.928L44.624 333.005Z" fill="white"/>
<path d="M50.1623 263.667C46.6139 269.206 44.2084 275.399 43.0873 281.882C41.9661 288.364 42.152 295.005 43.6338 301.415C43.804 302.173 44.3145 300.78 44.2217 300.424C42.8141 294.382 42.6365 288.117 43.6996 282.005C44.7627 275.892 47.0447 270.055 50.4099 264.843C50.611 264.533 50.6574 263.048 50.2397 263.698L50.1623 263.667Z" fill="white"/>
<path d="M61.2082 254.973C61.3614 255.28 61.5913 255.542 61.8757 255.735C62.1601 255.927 62.4893 256.043 62.8315 256.071C63.1737 256.099 63.5174 256.038 63.8292 255.895C64.1411 255.751 64.4106 255.529 64.6117 255.251C65.1433 254.487 65.4511 253.59 65.5003 252.661C65.5495 251.731 65.3382 250.807 64.8902 249.991C64.2095 248.645 62.6779 246.356 60.9453 247.671C60.3264 248.232 59.8493 248.932 59.5529 249.713C59.0751 250.704 58.6968 251.741 58.4236 252.807C58.0059 254.601 58.1451 256.953 59.8314 258.067C60.2027 258.299 60.6049 256.844 60.2646 256.628C59.7709 256.289 59.379 255.822 59.1309 255.276C58.8829 254.731 58.7881 254.129 58.8568 253.534C58.9571 252.792 59.1765 252.071 59.5065 251.399C59.7492 250.769 60.0496 250.163 60.4038 249.589C60.5626 249.327 60.7921 249.116 61.0658 248.979C61.3395 248.842 61.6463 248.785 61.9508 248.815C62.3059 248.905 62.6395 249.064 62.9318 249.285C63.2241 249.506 63.4692 249.782 63.6526 250.099C64.2559 250.981 65.2924 252.575 64.7045 253.658C64.5525 253.921 64.3338 254.14 64.0703 254.292C63.8069 254.444 63.5081 254.524 63.2039 254.524C62.8997 254.524 62.6009 254.444 62.3375 254.292C62.0741 254.14 61.8554 253.921 61.7033 253.658C61.5795 253.333 61.3475 253.658 61.2856 253.859C61.1271 254.186 61.0887 254.558 61.1773 254.911L61.2082 254.973Z" fill="white"/>
<path d="M69.5468 247.485C71.001 250.254 72.8729 253.812 70.4131 256.597C69.517 257.476 68.3841 258.074 67.153 258.319C65.922 258.563 64.6463 258.443 63.4824 257.974C63.1575 257.866 62.7708 259.351 63.1885 259.521C64.1716 259.889 65.2242 260.035 66.2704 259.946C67.3165 259.858 68.3299 259.538 69.2373 259.01C70.3103 258.221 71.1528 257.16 71.6778 255.936C72.2028 254.712 72.391 253.37 72.2231 252.049C71.8865 249.995 71.1563 248.025 70.0727 246.247C69.8252 245.783 69.3611 247.16 69.5468 247.516V247.485Z" fill="white"/>
<path d="M68.108 262.615C71.4961 262.785 74.2962 258.825 75.1934 255.947C75.7378 254.146 75.8379 252.24 75.4849 250.392C75.132 248.543 74.3366 246.808 73.1668 245.335C71.001 242.596 67.1025 240.399 63.5134 241.065C61.7698 241.578 60.1771 242.507 58.8722 243.772C57.4058 244.893 56.2328 246.353 55.4533 248.026C54.6477 249.862 54.3743 251.886 54.6642 253.87C54.9542 255.853 55.7959 257.715 57.0932 259.242C57.3252 259.49 57.8203 258.128 57.5263 257.804C56.4327 256.629 55.6894 255.172 55.3805 253.598C55.0716 252.023 55.2093 250.393 55.7782 248.893C56.4748 247.451 57.5033 246.194 58.7794 245.226C59.9045 244.196 61.1967 243.364 62.6006 242.766C65.4781 241.792 68.9125 243.215 71.1093 245.056C72.3946 246.098 73.4241 247.421 74.1187 248.922C74.8132 250.424 75.1545 252.065 75.1161 253.719C74.9167 255.573 74.1183 257.311 72.842 258.67C72.3474 259.387 71.6932 259.98 70.9308 260.401C70.1684 260.823 69.3187 261.061 68.4484 261.099C68.0152 261.099 67.8141 262.646 68.1545 262.646L68.108 262.615Z" fill="white"/>
<path d="M61.4558 237.646C60.2355 237.562 59.0123 237.764 57.8841 238.237C56.756 238.709 55.754 239.439 54.9583 240.369C54.1458 241.364 53.5489 242.518 53.2054 243.756C52.8618 244.994 52.7792 246.29 52.9626 247.562C52.9626 247.872 53.1947 247.872 53.3494 247.562C53.5323 247.238 53.603 246.863 53.5505 246.495C52.9471 242.163 57.0468 238.76 61.1619 239.085C61.595 239.085 61.8116 237.537 61.4558 237.537V237.646Z" fill="white"/>
<path d="M151.648 508.469C151.588 511.603 151.978 514.729 152.808 517.752C153.484 520.727 154.827 523.51 156.737 525.889C158.362 527.653 160.914 528.859 163.08 527.235C165.246 525.61 165.602 522.965 166.608 520.753C166.843 520.029 167.272 519.383 167.847 518.884C168.422 518.386 169.122 518.053 169.872 517.922C170.862 517.922 172.811 518.463 172.672 519.763C172.548 520.815 173.198 520.103 173.275 519.469C173.33 519.016 173.275 518.556 173.113 518.13C172.952 517.703 172.691 517.321 172.35 517.017C172.01 516.713 171.601 516.496 171.159 516.384C170.717 516.273 170.254 516.269 169.81 516.375C167.335 516.746 166.267 519.701 165.556 521.727C164.643 524.265 162.91 527.374 159.692 526.198C156.83 525.146 155.299 521.913 154.293 519.268C152.865 515.581 152.182 511.648 152.282 507.696C152.282 507.417 152.205 507.216 151.957 507.34C151.71 507.464 151.663 508.144 151.648 508.361V508.469Z" fill="white"/>
<path d="M107.929 508.47C108.012 512.001 107.457 515.517 106.289 518.85C105.314 521.62 103.876 525.038 100.983 526.23C98.0896 527.421 95.8928 524.683 94.9492 522.161C94.1756 520.103 93.2938 516.963 90.7567 516.499C90.2469 516.398 89.7204 516.422 89.2218 516.568C88.7232 516.714 88.2671 516.978 87.8922 517.338C87.5173 517.698 87.2346 518.142 87.068 518.635C86.9015 519.127 86.856 519.652 86.9355 520.165C86.9355 520.506 87.1521 520.413 87.3222 520.165C87.5175 519.84 87.594 519.458 87.5388 519.082C87.5388 518.711 88.2505 518.309 88.5444 518.17C89.0302 517.954 89.5609 517.858 90.0914 517.891C90.7417 518.002 91.3544 518.272 91.8753 518.677C92.3961 519.082 92.809 519.609 93.0772 520.212C94.3303 522.439 94.6243 525.41 96.6818 527.096C98.7394 528.782 101.215 527.808 102.87 526.137C104.81 523.999 106.22 521.433 106.985 518.649C108.103 515.152 108.626 511.491 108.532 507.82C108.532 506.83 107.898 508.052 107.913 508.485L107.929 508.47Z" fill="white"/>
</svg>
