<svg width="238" height="560" viewBox="0 0 238 560" fill="none" xmlns="http://www.w3.org/2000/svg">
<path d="M170.277 218.19C171.194 220.335 172.652 222.205 174.509 223.617C176.366 225.029 178.558 225.935 180.87 226.246C183.183 226.496 185.522 226.116 187.636 225.144C189.751 224.173 191.563 222.647 192.879 220.728C194.404 218.596 195.308 216.084 195.491 213.469C195.491 212.466 194.959 213.13 194.915 213.749C194.605 216.582 193.341 219.225 191.33 221.244C189.319 223.263 186.681 224.537 183.85 224.859C181.126 225.071 178.403 224.428 176.062 223.018C173.721 221.608 171.879 219.503 170.793 216.995C170.601 216.552 170.144 217.851 170.277 218.19Z" fill="white"/>
<path d="M186.417 197.27C186.417 193.611 184.219 189.199 180.014 189.244C178.34 189.364 176.742 189.994 175.437 191.049C174.131 192.104 173.18 193.533 172.711 195.145C171.735 198.002 171.642 201.087 172.445 203.997C173.38 207.025 175.376 209.613 178.067 211.286C179.601 212.227 181.402 212.639 183.193 212.458C184.984 212.277 186.666 211.512 187.981 210.282C189.673 208.795 190.967 206.909 191.743 204.794C193.006 201.166 193.18 197.248 192.245 193.522C191.322 190.326 189.822 187.326 187.819 184.67C185.03 180.613 182.02 176.703 179.321 172.572C176.346 168.033 173.622 163.335 171.162 158.497C170.926 158.055 170.483 159.368 170.646 159.692C174.409 166.995 178.72 174.004 183.54 180.657C187.494 186.131 192.023 191.575 192.156 198.657C192.303 201.481 191.554 204.279 190.017 206.653C189.266 207.883 188.247 208.928 187.037 209.71C185.826 210.492 184.454 210.99 183.024 211.168C176.606 211.566 171.87 204.204 172.49 198.435C172.543 196.876 173.038 195.364 173.919 194.076C174.799 192.788 176.028 191.777 177.462 191.162C182.094 189.347 185.709 193.537 185.753 197.919C185.753 198.184 185.753 198.361 186.063 198.243C186.373 198.125 186.343 197.491 186.343 197.284L186.417 197.27Z" fill="white"/>
<path d="M175.426 155.296C179.288 159.032 182.593 163.305 185.237 167.984C187.336 171.981 189.183 176.105 190.77 180.332C191.528 182.074 192.025 183.919 192.245 185.806C192.245 186.75 192.85 185.585 192.835 185.172C192.694 183.564 192.327 181.985 191.743 180.48C190.991 178.252 190.106 176.054 189.161 173.944C187.647 170.193 185.811 166.579 183.673 163.145C181.338 159.851 178.716 156.77 175.839 153.938C175.603 153.688 175.131 155.001 175.426 155.296Z" fill="white"/>
<path d="M178.199 150.943C181.392 152.723 184.138 155.206 186.228 158.205C188.319 161.203 189.701 164.638 190.267 168.249C190.267 168.574 190.474 168.5 190.636 168.249C190.826 167.946 190.9 167.584 190.843 167.231C190.256 163.531 188.837 160.013 186.693 156.941C184.548 153.869 181.735 151.324 178.465 149.497C178.243 149.364 177.786 150.722 178.184 150.973L178.199 150.943Z" fill="white"/>
<path d="M197.645 296.635C198.604 302.123 205.11 302.964 208.341 306.623C209.275 307.832 209.88 309.263 210.097 310.775C210.314 312.287 210.136 313.83 209.58 315.254C208.784 317.85 205.951 320.55 203.118 318.809C202.764 318.588 202.395 319.989 202.705 320.181C203.615 320.677 204.67 320.838 205.687 320.636C206.703 320.434 207.616 319.881 208.267 319.075C209.696 317.201 210.52 314.937 210.628 312.583C211.008 310.258 210.519 307.874 209.256 305.885C207.789 304.146 205.961 302.747 203.9 301.784C201.495 300.397 198.722 298.626 198.205 295.676C198.087 294.953 197.586 296.28 197.645 296.635Z" fill="white"/>
<path d="M197.276 293.433C196.391 297.018 193.425 299.526 191.551 302.566C190.622 304.035 190.001 305.679 189.727 307.396C189.453 309.113 189.532 310.868 189.958 312.554C190.814 315.77 193.499 319.444 197.187 319.355C198.766 319.189 200.236 318.473 201.339 317.332C202.442 316.191 203.109 314.698 203.221 313.114C203.355 311.306 202.832 309.511 201.748 308.058C200.664 306.605 199.091 305.593 197.32 305.206C196.966 305.206 196.656 306.579 197.04 306.682C198.506 306.978 199.839 307.732 200.85 308.835C201.86 309.938 202.494 311.333 202.661 312.819C202.779 315.918 199.312 318.381 196.405 317.821C193.248 317.216 191.064 314.044 190.401 311.078C189.619 307.626 190.858 304.705 192.894 301.975C194.93 299.246 196.936 297.062 197.704 293.935C197.704 293.743 197.925 293.138 197.704 293.005C197.482 292.872 197.32 293.286 197.276 293.448V293.433Z" fill="white"/>
<path d="M176.164 237.901C177.004 251.851 180.589 265.498 186.712 278.06C188.07 280.834 189.56 283.563 191.139 286.219C191.286 286.455 191.537 285.835 191.552 285.776C191.614 285.629 191.646 285.471 191.646 285.311C191.646 285.152 191.614 284.994 191.552 284.847C184.771 273.553 180.171 261.087 177.993 248.095C177.393 244.505 176.985 240.885 176.769 237.252C176.769 236.307 176.149 237.473 176.164 237.901Z" fill="white"/>
<path d="M193.218 238.845C196.735 246.883 197.935 255.743 196.685 264.427C196.685 264.56 196.553 265.18 196.803 265.195C197.054 265.209 197.187 264.678 197.202 264.531C198.578 255.422 197.377 246.111 193.735 237.65C193.528 237.192 193.071 238.506 193.218 238.845Z" fill="white"/>
<path d="M187.834 265.652C184.319 257.614 183.118 248.753 184.367 240.069C184.367 239.922 184.485 239.317 184.249 239.287C184.012 239.258 183.865 239.819 183.835 239.966C182.465 249.076 183.671 258.387 187.317 266.847C187.509 267.29 187.966 265.991 187.819 265.652H187.834Z" fill="white"/>
<path d="M190.386 250.869C190.177 260.695 192.499 270.409 197.128 279.078C197.379 279.521 197.822 278.193 197.644 277.868C193.076 269.386 190.778 259.867 190.976 250.235C190.976 249.969 190.976 249.778 190.666 249.896C190.356 250.014 190.386 250.663 190.386 250.869Z" fill="white"/>
<path d="M196.804 233.976C199.81 239.644 201.65 245.857 202.212 252.248C202.775 258.64 202.049 265.079 200.079 271.184C199.887 271.775 200.197 272.66 200.507 271.671C203.763 261.741 203.861 251.046 200.787 241.058C199.892 238.176 198.726 235.385 197.305 232.722C197.069 232.279 196.627 233.592 196.804 233.917V233.976Z" fill="white"/>
<path d="M195.919 297.874C198.542 297.874 200.669 295.747 200.669 293.123C200.669 290.5 198.542 288.373 195.919 288.373C193.295 288.373 191.168 290.5 191.168 293.123C191.168 295.747 193.295 297.874 195.919 297.874Z" fill="white" stroke="white" stroke-width="1.29718" stroke-miterlimit="10"/>
<path d="M138.306 295.72C134.395 299.344 131.586 303.998 130.2 309.147C128.814 314.296 128.909 319.731 130.471 324.829C130.575 325.153 130.811 324.829 130.87 324.637C131.029 324.327 131.066 323.969 130.973 323.634C129.552 318.964 129.491 313.985 130.798 309.282C132.104 304.579 134.724 300.345 138.35 297.077C138.615 296.841 138.704 295.439 138.35 295.779L138.306 295.72Z" fill="white"/>
<path d="M152.617 298.877C153.591 307.729 147.866 315.357 142.407 321.627C136.949 327.897 131.18 333.784 128.657 341.751C127.261 345.805 127.117 350.184 128.244 354.321C128.347 354.645 128.598 354.247 128.657 354.129C128.803 353.815 128.835 353.46 128.746 353.126C126.252 344.687 131.018 336.425 136.196 330.11C141.375 323.796 147.497 318.13 150.95 310.577C152.828 306.642 153.613 302.275 153.222 297.933C153.222 297.593 153.015 297.697 152.853 297.933C152.663 298.236 152.59 298.598 152.646 298.951L152.617 298.877Z" fill="white"/>
<path d="M161.307 292.385C163.027 303.74 161.375 315.349 156.556 325.773C153.999 331.051 150.776 335.979 146.966 340.438C143.219 345.011 139.25 349.511 136.491 354.793C133.732 360.075 131.962 366.507 133.304 372.615C133.467 373.338 133.939 371.996 133.865 371.656C131.106 359.086 141.345 348.847 148.471 339.921C151.991 335.59 154.941 330.825 157.249 325.743C159.488 320.691 161.041 315.362 161.867 309.898C162.804 303.771 162.804 297.538 161.867 291.412C161.867 291.087 161.661 291.161 161.498 291.338C161.308 291.641 161.235 292.003 161.292 292.356L161.307 292.385Z" fill="white"/>
<path d="M163.874 335.436C163.31 342.44 161.317 349.254 158.018 355.458C154.72 361.662 150.185 367.125 144.694 371.509C144.414 371.745 144.311 373.132 144.694 372.807C150.369 368.199 155.045 362.482 158.437 356.006C161.828 349.53 163.864 342.43 164.42 335.141C164.494 334.138 163.889 334.817 163.844 335.436H163.874Z" fill="white"/>
<path d="M99.4599 297.048C103.137 300.365 105.8 304.656 107.139 309.423C108.478 314.191 108.44 319.241 107.028 323.988C106.851 324.578 107.146 325.463 107.456 324.475C109.051 319.45 109.184 314.076 107.838 308.979C106.493 303.882 103.725 299.273 99.8582 295.69C99.5927 295.44 99.1501 296.782 99.4599 297.048Z" fill="white"/>
<path d="M84.7652 298.552C83.8947 306.549 87.9372 313.911 92.8059 319.945C97.9991 326.392 104.432 332.102 107.795 339.833C109.87 344.069 110.392 348.898 109.271 353.48C109.094 354.07 109.418 354.955 109.699 353.967C111.986 346.236 109.005 338.313 104.505 332.013C99.5187 325.035 92.7026 319.399 88.6011 311.831C86.1537 307.746 85.0255 303.006 85.3701 298.257C85.4733 297.254 84.8537 297.933 84.7799 298.552H84.7652Z" fill="white"/>
<path d="M76.1049 291.84C74.8103 300.06 75.2229 308.459 77.317 316.513C79.4111 324.567 83.1418 332.104 88.2765 338.653C91.9797 343.448 96.1697 347.888 99.4302 353.023C103.001 358.585 105.597 365.43 104.122 372.099C104.122 372.232 104.004 372.851 104.24 372.866C104.476 372.881 104.609 372.35 104.638 372.202C107.25 360.399 99.3122 350.249 92.26 341.707C88.4005 337.288 85.0592 332.442 82.3014 327.263C79.7729 322.19 77.9701 316.786 76.9458 311.211C75.7663 304.851 75.6616 298.338 76.636 291.943C76.636 291.81 76.7688 291.205 76.518 291.176C76.2672 291.146 76.1344 291.692 76.1049 291.84Z" fill="white"/>
<path d="M73.5084 335.614C74.375 346.853 78.7808 357.53 86.0932 366.109C88.1914 368.576 90.5234 370.834 93.0569 372.852C93.352 373.088 93.7798 371.73 93.47 371.48C84.8645 364.533 78.6692 355.049 75.7658 344.377C74.9249 341.299 74.3815 338.147 74.1429 334.965C74.0691 334.02 73.5232 335.186 73.5527 335.614H73.5084Z" fill="white"/>
<path d="M148.382 215.121C149.385 222.977 148.273 230.959 145.161 238.242C142.049 245.524 137.049 251.844 130.678 256.549C128.431 258.237 126.036 259.718 123.523 260.975C123.154 261.167 123.095 262.554 123.39 262.451C129.429 259.46 134.749 255.197 138.984 249.954C144.957 242.47 148.517 233.348 149.194 223.796C149.437 220.615 149.363 217.417 148.973 214.251C148.973 213.926 148.766 214.03 148.604 214.251C148.414 214.554 148.34 214.916 148.397 215.269L148.382 215.121Z" fill="white"/>
<path d="M153.384 236.957C153.158 242.668 151.727 248.266 149.185 253.385C146.642 258.503 143.045 263.026 138.63 266.656C137.146 267.888 135.578 269.017 133.938 270.034C133.584 270.255 133.555 271.613 133.806 271.51C143.276 265.621 150.074 256.267 152.749 245.44C153.478 242.467 153.893 239.426 153.989 236.367C153.989 236.101 153.915 235.924 153.679 236.042C153.443 236.16 153.398 236.795 153.384 237.016V236.957Z" fill="white"/>
<path d="M145.21 204.381C138.215 212.904 134.237 223.501 133.894 234.522C133.894 234.788 133.894 234.965 134.204 234.861C134.514 234.758 134.485 234.094 134.485 233.888C134.855 223.557 138.631 213.64 145.225 205.679C145.431 205.398 145.53 205.053 145.505 204.705C145.505 204.572 145.417 204.115 145.21 204.381Z" fill="white"/>
<path d="M89.014 214.723C88.1543 221.669 88.824 228.718 90.9763 235.378C93.8992 244.183 99.4178 251.898 106.807 257.508C109.182 259.31 111.721 260.886 114.39 262.215C114.641 262.333 115.069 260.961 114.67 260.739C107.588 257.214 101.537 251.918 97.1037 245.365C92.6706 238.812 90.0059 231.225 89.3681 223.339C89.1393 220.33 89.2134 217.305 89.5894 214.31C89.5894 214.133 89.5894 213.705 89.3681 213.735C89.1468 213.764 89.0288 214.443 89.014 214.59V214.723Z" fill="white"/>
<path d="M83.9536 236.957C84.1365 242.883 85.5643 248.704 88.1442 254.041C90.7242 259.379 94.3985 264.114 98.9285 267.939C100.485 269.239 102.132 270.427 103.856 271.495C104.21 271.716 104.579 270.329 104.269 270.137C98.4298 266.599 93.5669 261.658 90.122 255.763C86.6772 249.868 84.7598 243.206 84.5438 236.381C84.5438 235.437 83.9389 236.603 83.9536 237.03V236.957Z" fill="white"/>
<path d="M92.5549 205.723C99.2712 213.857 103.114 223.981 103.487 234.522C103.487 235.466 104.092 234.301 104.077 233.888C103.727 223.094 99.8156 212.719 92.9533 204.381C92.7615 204.145 92.2746 205.413 92.5549 205.753V205.723Z" fill="white"/>
<path d="M138.409 170.86C137.121 169.393 135.401 168.37 133.496 167.938C131.59 167.506 129.598 167.687 127.802 168.456C124.969 169.842 123.597 172.882 122.8 175.744C121.487 180.568 121.797 186.514 125.412 190.306C129.985 195.086 137.214 194.009 142.717 191.574C145.722 190.244 148.295 188.099 150.143 185.382C151.992 182.665 153.043 179.485 153.178 176.201C153.547 167.57 146.819 160.459 139.25 157.346C138.97 157.228 138.572 158.63 138.97 158.822C144.872 161.256 150.36 166.11 152.101 172.424C153.989 179.255 150.286 186.219 144.237 189.494C139.811 191.87 133.91 193.374 129.144 191.309C123.597 188.889 121.93 182.457 123.051 177.013C123.082 176.802 123.132 176.595 123.199 176.393C123.361 175.788 123.538 175.183 123.759 174.578C124.327 172.915 125.387 171.464 126.798 170.418C130.384 167.954 135.178 169.282 137.996 172.262C138.218 172.498 138.69 171.2 138.409 170.89V170.86Z" fill="white"/>
<path d="M148.53 155.561C154.311 158.473 158.711 163.546 160.775 169.68C161.694 172.614 161.859 175.731 161.256 178.745C160.653 181.76 159.3 184.573 157.323 186.927C156.055 188.471 154.598 189.849 152.986 191.029C152.631 191.294 152.646 192.607 152.853 192.504C156.956 189.578 159.975 185.376 161.439 180.554C162.305 177.382 162.438 174.056 161.83 170.825C161.222 167.595 159.887 164.545 157.928 161.905C155.529 158.652 152.408 156.001 148.81 154.16C148.574 154.027 148.132 155.399 148.53 155.635V155.561Z" fill="white"/>
<path d="M99.7843 172.159C101.007 170.768 102.631 169.788 104.432 169.355C106.233 168.922 108.124 169.056 109.846 169.739C112.62 170.964 113.948 173.782 114.7 176.541C115.895 180.967 115.349 186.411 111.587 189.642C107.087 193.507 100.566 192.327 95.55 190.188C92.7161 189.029 90.2626 187.102 88.4664 184.622C86.6701 182.143 85.6028 179.211 85.3849 176.157C84.9718 168.131 91.9059 161.581 98.7958 158.733C99.1647 158.571 99.2532 157.169 98.9286 157.258C92.4223 159.943 86.6094 165.49 85.1193 172.572C84.4133 176.057 84.8229 179.676 86.2901 182.915C87.7573 186.154 90.2074 188.848 93.2927 190.616C95.3124 191.724 97.4778 192.544 99.7253 193.05C101.469 193.569 103.298 193.736 105.107 193.541C106.915 193.346 108.667 192.793 110.259 191.914C115.394 188.668 116.662 181.867 115.453 176.29C114.848 173.531 113.726 170.551 111.307 168.913C107.589 166.376 102.676 167.733 99.7548 170.816C99.504 171.082 99.445 172.469 99.7548 172.129L99.7843 172.159Z" fill="white"/>
<path d="M89.3683 154.115C86.309 155.66 83.5952 157.81 81.3914 160.435C79.1876 163.06 77.5397 166.104 76.5475 169.385C75.6524 172.496 75.5011 175.774 76.106 178.955C76.7108 182.135 78.0547 185.129 80.0293 187.694C81.4026 189.473 83.0221 191.048 84.839 192.371C85.1636 192.607 85.5619 191.235 85.2521 190.999C81.5933 188.392 78.8145 184.733 77.2852 180.509C76.3165 177.479 76.1167 174.255 76.7039 171.129C77.2911 168.002 78.6469 165.071 80.649 162.598C82.9629 159.635 85.8925 157.208 89.2355 155.487C89.6044 155.295 89.6486 153.909 89.3683 154.012V154.115Z" fill="white"/>
<path d="M102.573 132.501C100.252 136.408 97.0863 139.746 93.3082 142.271C89.53 144.795 85.235 146.443 80.7376 147.093C80.2803 147.167 80.2065 148.568 80.4573 148.568C85.0539 147.902 89.4426 146.213 93.3005 143.627C97.1584 141.04 100.387 137.622 102.75 133.623C102.938 133.314 103.007 132.946 102.942 132.59C102.853 132.383 102.75 132.236 102.573 132.59V132.501Z" fill="white"/>
<path d="M143.514 129.359C150.738 137.609 160.392 143.358 171.088 145.779C171.442 145.779 171.752 144.422 171.368 144.304C160.73 141.934 151.118 136.252 143.912 128.075C143.691 127.839 143.219 129.123 143.499 129.447L143.514 129.359Z" fill="white"/>
<path d="M135.679 133.741C138.032 137.697 141.241 141.076 145.07 143.629C148.9 146.182 153.253 147.844 157.81 148.494C158.193 148.494 158.459 147.107 158.09 147.019C153.553 146.362 149.222 144.695 145.415 142.141C141.608 139.588 138.422 136.213 136.092 132.265C135.96 132.029 135.694 132.649 135.679 132.708C135.617 132.855 135.585 133.013 135.585 133.173C135.585 133.332 135.617 133.49 135.679 133.637V133.741Z" fill="white"/>
<path d="M94.2371 128.075C87.0378 136.253 77.4296 141.935 66.7955 144.304C66.4266 144.304 66.2643 145.779 66.6627 145.779C77.3627 143.364 87.0248 137.627 94.2666 129.388C94.472 129.107 94.5713 128.762 94.5469 128.415C94.5469 128.267 94.4584 127.824 94.2371 128.075Z" fill="white"/>
<path d="M101.953 132.501C99.6354 136.408 96.4725 139.745 92.6968 142.27C88.9211 144.795 84.6281 146.443 80.1327 147.093C79.6754 147.167 79.5868 148.568 79.8376 148.568C84.4362 147.908 88.8275 146.222 92.6863 143.635C96.5451 141.048 99.7727 137.626 102.13 133.623C102.319 133.314 102.387 132.946 102.322 132.59C102.234 132.383 102.13 132.236 101.953 132.59V132.501Z" fill="white"/>
<path d="M150.433 401.798C152.263 397.106 152.706 390.143 147.35 387.516C146.217 386.954 144.937 386.759 143.688 386.961C142.44 387.162 141.285 387.748 140.386 388.638C138.593 390.516 137.499 392.954 137.288 395.542C136.779 398.24 136.911 401.019 137.672 403.657C138.188 404.806 139.013 405.789 140.055 406.497C141.097 407.206 142.315 407.612 143.573 407.67C146.052 407.814 148.51 407.132 150.56 405.73C152.61 404.329 154.138 402.287 154.904 399.924C155.792 397.48 156.011 394.843 155.539 392.286C155.067 389.728 153.921 387.343 152.219 385.377C151.305 384.362 150.197 383.539 148.961 382.959C147.724 382.379 146.384 382.052 145.019 381.999C143.721 382.002 142.437 382.273 141.249 382.796C140.061 383.319 138.993 384.083 138.114 385.038C136.203 387.16 134.787 389.679 133.968 392.415C132.781 395.204 132.363 398.261 132.759 401.267C133.391 403.741 134.767 405.961 136.701 407.628C138.635 409.295 141.033 410.33 143.573 410.591C145.995 410.844 148.439 410.408 150.624 409.332C152.809 408.257 154.645 406.586 155.922 404.513C157.284 402.289 158.032 399.743 158.091 397.136C158.221 394.242 157.903 391.345 157.146 388.549C156.69 387.207 156.32 385.837 156.04 384.448C156.04 384.123 155.848 384.212 155.671 384.448C155.49 384.76 155.422 385.124 155.479 385.48C155.819 387.679 156.777 389.73 157.073 391.943C157.633 394.718 157.633 397.577 157.073 400.352C156.469 402.388 155.355 404.236 153.837 405.72C152.319 407.205 150.446 408.277 148.397 408.835C146.321 409.356 144.148 409.35 142.074 408.819C140.001 408.289 138.092 407.25 136.521 405.796C134.698 404.178 133.507 401.967 133.157 399.555C133.079 396.637 133.734 393.746 135.06 391.146C136.949 386.72 140.814 382.751 146.037 383.636C150.817 384.448 154.151 388.741 154.889 393.344C155.349 395.651 155.053 398.045 154.046 400.171C153.039 402.297 151.374 404.042 149.297 405.147C145.58 407.05 139.354 406.814 137.908 402.064C137.563 400.695 137.438 399.281 137.539 397.873C137.533 396.377 137.736 394.887 138.144 393.447C138.472 392.161 139.165 390.997 140.138 390.094C141.112 389.191 142.325 388.588 143.632 388.357C144.973 388.268 146.31 388.583 147.47 389.261C148.63 389.94 149.559 390.951 150.138 392.164C150.764 393.556 151.087 395.064 151.087 396.59C151.087 398.116 150.764 399.624 150.138 401.016C150.05 401.237 149.843 401.827 150.035 402.034C150.227 402.241 150.345 402.034 150.433 401.842V401.798Z" fill="white"/>
<path d="M145.24 390.689C145.729 390.938 146.163 391.283 146.515 391.704C146.868 392.125 147.131 392.612 147.29 393.138C147.419 393.607 147.423 394.102 147.301 394.573C147.18 395.044 146.937 395.475 146.597 395.823C146.392 396.104 146.292 396.449 146.317 396.797C146.317 396.959 146.405 397.372 146.627 397.136C147.162 396.507 147.557 395.771 147.783 394.977C148.01 394.183 148.063 393.349 147.94 392.533C147.822 391.833 147.542 391.171 147.122 390.6C146.701 390.028 146.153 389.564 145.52 389.243C145.269 389.11 144.841 390.482 145.24 390.718V390.689Z" fill="white"/>
<path d="M142.127 396.457C142.862 397.866 143.864 399.119 145.078 400.145C145.362 400.397 145.698 400.585 146.063 400.694C146.427 400.804 146.811 400.833 147.187 400.78C148.016 400.61 148.8 400.268 149.489 399.776C149.714 399.549 149.841 399.241 149.843 398.921C149.843 398.832 149.843 398.198 149.622 398.345C148.994 398.805 148.282 399.136 147.527 399.319C147.149 399.387 146.76 399.367 146.391 399.26C146.023 399.152 145.684 398.96 145.402 398.699C144.286 397.73 143.356 396.565 142.658 395.262C142.51 394.996 142.333 395.262 142.26 395.454C142.095 395.761 142.058 396.122 142.156 396.457H142.127Z" fill="white"/>
<path d="M155.494 384.787C156.849 387.489 158.046 390.268 159.079 393.108C159.612 394.657 159.769 396.311 159.537 397.933C159.214 399.573 158.72 401.176 158.061 402.713C157.973 402.934 157.766 403.51 157.958 403.716C158.15 403.923 158.268 403.716 158.371 403.524C159.566 400.337 160.687 397.047 159.994 393.595C159.301 390.143 157.427 386.823 155.966 383.592C155.774 383.15 155.317 384.448 155.465 384.787H155.494Z" fill="white"/>
<path d="M133.644 386.425C132.373 388.148 131.468 390.113 130.986 392.198C130.504 394.284 130.455 396.447 130.841 398.552C130.841 398.833 131.062 398.847 131.21 398.552C131.4 398.249 131.473 397.888 131.416 397.534C131.088 395.821 131.118 394.059 131.503 392.357C131.889 390.656 132.623 389.053 133.659 387.649C133.864 387.368 133.963 387.023 133.939 386.676C133.939 386.543 133.836 386.071 133.644 386.351V386.425Z" fill="white"/>
<path d="M139.397 412.435C141.17 413.344 143.129 413.828 145.121 413.851C147.113 413.874 149.083 413.435 150.876 412.568C151.245 412.376 151.304 410.99 151.009 411.093C149.238 411.95 147.293 412.383 145.326 412.358C143.359 412.332 141.425 411.849 139.678 410.945C139.427 410.813 138.984 412.185 139.397 412.421V412.435Z" fill="white"/>
<path d="M87.9963 400.795C86.811 398.276 86.5906 395.41 87.3767 392.74C87.7957 391.571 88.5279 390.54 89.4932 389.759C90.4585 388.979 91.6199 388.479 92.8503 388.313C93.9431 388.245 95.0346 388.468 96.0139 388.957C96.9933 389.447 97.8258 390.187 98.4271 391.102C99.8012 393.309 100.47 395.882 100.345 398.479C100.345 401.134 100.198 403.746 97.6599 405.192C95.7305 406.241 93.4799 406.535 91.3454 406.018C89.1638 405.494 87.1922 404.321 85.6909 402.654C84.1895 400.986 83.2289 398.903 82.9359 396.679C82.562 394.269 82.9392 391.802 84.0161 389.614C85.0931 387.426 86.8176 385.622 88.9553 384.448C90.0175 383.896 91.1797 383.561 92.3731 383.465C93.5665 383.369 94.7672 383.512 95.9043 383.887C98.0616 384.726 99.8959 386.23 101.142 388.181C102.538 390.399 103.573 392.824 104.211 395.366C104.709 396.729 104.891 398.188 104.743 399.632C104.595 401.076 104.12 402.468 103.355 403.701C102.083 405.571 100.329 407.062 98.2779 408.016C96.2272 408.969 93.9565 409.349 91.7071 409.116C89.4576 408.883 87.3131 408.046 85.5013 406.692C83.6895 405.339 82.2778 403.52 81.4163 401.429C80.4124 398.591 80.1733 395.538 80.7228 392.577C80.885 391.188 81.1664 389.816 81.5638 388.476C81.9566 387.32 82.2624 386.136 82.4785 384.935C82.4785 384.802 82.6113 384.182 82.3605 384.168C82.1097 384.153 81.9769 384.684 81.9621 384.832C81.6935 386.197 81.3337 387.542 80.8851 388.859C80.53 390.175 80.2833 391.517 80.1474 392.872C79.6576 395.774 79.7934 398.747 80.5458 401.592C81.2792 403.954 82.681 406.053 84.5819 407.636C86.4827 409.219 88.8012 410.217 91.2573 410.51C93.7133 410.804 96.2017 410.379 98.4218 409.289C100.642 408.198 102.499 406.488 103.768 404.365C105.188 401.995 105.711 399.195 105.243 396.472C104.759 393.471 103.761 390.576 102.293 387.915C101.061 385.537 99.0584 383.649 96.6124 382.56C95.3325 382.074 93.9611 381.878 92.5965 381.985C91.2318 382.093 89.9078 382.5 88.7193 383.179C84.1604 385.717 81.9326 391.397 82.2867 396.457C82.3781 399.001 83.2895 401.447 84.8848 403.431C86.48 405.414 88.6738 406.829 91.1388 407.464C92.3609 407.768 93.634 407.809 94.8731 407.583C96.1121 407.356 97.2886 406.868 98.3238 406.15C99.2272 405.34 99.9374 404.338 100.402 403.217C100.867 402.096 101.074 400.885 101.009 399.674C101.262 396.805 100.848 393.917 99.7992 391.235C99.3469 390.09 98.6068 389.081 97.6506 388.305C96.6943 387.53 95.5542 387.014 94.3404 386.809C88.5127 386.233 85.9161 392.858 86.4472 397.638C86.6272 399.108 87.0044 400.547 87.5685 401.916C87.7308 402.359 88.2029 401.06 88.0701 400.721L87.9963 400.795Z" fill="white"/>
<path d="M92.6583 389.213C91.9927 389.592 91.4178 390.111 90.9735 390.735C90.5292 391.359 90.2263 392.072 90.0858 392.825C89.9454 393.578 89.9707 394.352 90.1602 395.094C90.3497 395.836 90.6987 396.528 91.183 397.121C91.3748 397.328 91.5665 396.782 91.5961 396.678C91.6256 396.575 91.7879 395.97 91.5961 395.749C91.218 395.365 90.9346 394.899 90.7681 394.387C90.6016 393.875 90.5568 393.331 90.6371 392.798C90.7873 392.319 91.0353 391.876 91.3654 391.498C91.6956 391.12 92.1006 390.814 92.555 390.6C92.8058 390.467 92.8796 389.995 92.9091 389.744C92.9386 389.493 92.9091 389.051 92.6878 389.184L92.6583 389.213Z" fill="white"/>
<path d="M95.5056 395.321C94.8237 396.593 93.9193 397.733 92.8352 398.685C92.5682 398.942 92.2457 399.134 91.8927 399.247C91.5397 399.359 91.1656 399.389 90.7992 399.334C90.0249 399.16 89.2928 398.834 88.6452 398.375C88.2911 398.154 87.9223 399.541 88.2321 399.748C88.9153 400.245 89.6938 400.597 90.5189 400.78C90.9036 400.839 91.2967 400.812 91.6694 400.7C92.0421 400.587 92.385 400.393 92.6729 400.131C93.8904 399.097 94.8929 397.834 95.6236 396.413C95.8013 396.1 95.8736 395.738 95.8302 395.38C95.8302 395.13 95.5941 395.056 95.4613 395.38L95.5056 395.321Z" fill="white"/>
<path d="M82.0654 383.754C80.3851 386.917 79.0353 390.244 78.0377 393.684C77.241 397.18 78.2442 400.426 79.5131 403.687C79.6901 404.129 80.1622 402.846 80.0294 402.491C78.8492 399.393 77.8164 396.325 78.8049 393.034C79.8106 390.135 81.0184 387.311 82.4195 384.581C82.5965 384.182 82.4933 382.899 82.1097 383.754H82.0654Z" fill="white"/>
<path d="M104.107 387.738C105.204 389.199 105.99 390.869 106.416 392.645C106.843 394.421 106.9 396.266 106.586 398.066C106.586 398.213 106.453 398.789 106.704 398.833C106.955 398.877 107.073 398.287 107.102 398.169C107.509 396.13 107.489 394.029 107.045 391.998C106.601 389.966 105.741 388.049 104.52 386.366C104.358 386.145 104.137 386.735 104.107 386.809C104.042 386.955 104.008 387.113 104.008 387.273C104.008 387.434 104.042 387.592 104.107 387.738Z" fill="white"/>
<path d="M98.5005 411.004C96.7519 411.906 94.8166 412.386 92.8492 412.407C90.8817 412.427 88.9368 411.987 87.1698 411.122C86.9042 411.004 86.4764 412.376 86.8895 412.597C88.684 413.463 90.6555 413.899 92.6478 413.871C94.64 413.843 96.5984 413.351 98.3677 412.435C98.7366 412.243 98.7808 410.871 98.5005 410.96V411.004Z" fill="white"/>
<path d="M143.057 424.991C137.987 435.174 136.471 446.761 138.749 457.906C139.409 461.041 140.373 464.104 141.626 467.053C141.817 467.496 142.275 466.197 142.127 465.858C139.394 459.54 138.076 452.701 138.264 445.82C138.453 438.939 140.144 432.182 143.219 426.023C143.409 425.72 143.482 425.359 143.426 425.005C143.337 424.799 143.204 424.622 143.057 425.005V424.991Z" fill="white"/>
<path d="M148.146 427.779C148.848 436.41 147.223 445.071 143.44 452.86C143.248 453.244 143.337 454.527 143.75 453.672C147.783 445.313 149.5 436.025 148.722 426.776C148.722 426.451 148.5 426.555 148.353 426.776C148.167 427.086 148.094 427.451 148.146 427.809V427.779Z" fill="white"/>
<path d="M151.51 418.101C154.372 427.297 154.845 437.072 152.882 446.501C151.895 451.098 150.349 455.557 148.279 459.779C146.317 463.792 144.06 467.643 142.215 471.715C140.092 476.033 138.925 480.759 138.792 485.569C138.792 485.819 138.793 486.011 139.102 485.893C139.412 485.775 139.383 485.126 139.383 484.919C139.383 475.595 145.284 467.599 149.12 459.484C153.052 451.032 154.942 441.773 154.638 432.456C154.474 427.187 153.591 421.965 152.012 416.935C151.908 416.625 151.672 416.935 151.613 417.127C151.459 417.443 151.422 417.804 151.51 418.145V418.101Z" fill="white"/>
<path d="M158.798 414.176C162.24 424.441 163.25 435.366 161.749 446.088C161.749 446.265 161.749 446.693 161.97 446.663C162.192 446.634 162.295 445.97 162.325 445.808C163.87 434.778 162.83 423.54 159.285 412.981C159.182 412.656 158.946 412.981 158.887 413.173C158.728 413.482 158.691 413.841 158.784 414.176H158.798Z" fill="white"/>
<path d="M159.285 452.654C159.772 459.027 154.859 464.058 151.791 469.104C148.743 473.947 147.278 479.619 147.6 485.333C147.6 486.277 148.205 485.111 148.191 484.698C147.995 481.615 148.401 478.523 149.386 475.595C150.474 472.697 151.964 469.965 153.812 467.481C156.969 462.893 160.348 457.921 159.89 452.063C159.816 451.119 159.271 452.285 159.3 452.713L159.285 452.654Z" fill="white"/>
<path d="M94.547 426.097C99.345 435.711 100.799 446.65 98.678 457.183C98.0545 460.22 97.1252 463.186 95.9043 466.035C95.742 466.433 95.9043 467.732 96.2141 466.861C100.589 456.485 101.399 444.95 98.5157 434.064C97.6754 430.914 96.5136 427.859 95.0486 424.946C94.8273 424.489 94.3847 425.802 94.547 426.141V426.097Z" fill="white"/>
<path d="M89.2503 427.44C88.4678 436.54 90.1495 445.682 94.119 453.908C94.3403 454.365 94.7829 453.052 94.6206 452.713C90.7643 444.778 89.1084 435.953 89.8257 427.159C89.9143 426.156 89.2946 426.835 89.2503 427.44Z" fill="white"/>
<path d="M85.9899 417.245C83.1809 426.254 82.5588 435.802 84.1752 445.1C84.9821 449.714 86.3496 454.213 88.2472 458.496C90.0914 462.656 92.4224 466.61 94.4289 470.697C96.9186 475.235 98.3414 480.28 98.5894 485.45C98.5894 485.701 98.5894 485.893 98.8992 485.775C99.2091 485.657 99.1796 485.008 99.1796 484.801C99.1796 475.949 94.2076 468.263 90.3274 460.576C86.0552 452.241 83.8443 443.002 83.8801 433.636C83.9428 428.216 84.7926 422.834 86.403 417.658C86.58 417.083 86.2702 416.183 85.9751 417.186L85.9899 417.245Z" fill="white"/>
<path d="M78.7014 413.335C75.1152 423.976 74.0545 435.306 75.6032 446.428C75.6032 446.752 75.8097 446.664 75.972 446.501C76.1582 446.191 76.2312 445.826 76.1786 445.469C74.6922 434.834 75.7024 423.999 79.1293 413.822C79.3211 413.232 79.026 412.347 78.7014 413.335Z" fill="white"/>
<path d="M78.1407 452.417C77.6834 458.319 81.0914 463.143 84.2782 467.776C86.0851 470.245 87.5353 472.957 88.5862 475.831C89.593 478.79 90.0139 481.917 89.8256 485.037C89.8256 486.041 90.3714 485.362 90.4157 484.757C90.7324 479.068 89.2454 473.425 86.1667 468.631C83.0094 463.615 78.2292 458.481 78.7899 452.122C78.8784 451.119 78.2735 451.798 78.2145 452.417H78.1407Z" fill="white"/>
<path d="M147.822 498.109C150.088 501.468 153.218 504.154 156.881 505.885C158.519 506.637 160.26 507.094 161.897 507.817C163.583 508.565 164.978 509.845 165.866 511.461C166.657 512.83 167.09 514.378 167.124 515.959C167.157 517.54 166.79 519.104 166.058 520.505C164.754 522.689 162.82 524.427 160.51 525.492C158.912 526.184 157.186 526.532 155.445 526.511C153.703 526.491 151.986 526.103 150.404 525.374C150.139 525.241 149.726 526.643 150.124 526.849C152.87 528.075 155.963 528.283 158.849 527.434C161.734 526.585 164.222 524.735 165.866 522.217C167.55 519.594 168.128 516.412 167.474 513.365C167.112 511.299 166.117 509.396 164.627 507.921C163.292 506.824 161.745 506.015 160.083 505.545C155.246 504.042 151.077 500.915 148.28 496.693C148.117 496.457 147.616 497.696 147.867 498.05L147.822 498.109Z" fill="white"/>
<path d="M143.307 495.35C142.629 496.298 142.193 497.396 142.036 498.551C141.879 499.705 142.007 500.88 142.407 501.974C143.562 504.521 145.609 506.557 148.161 507.699C150.846 509.174 154.195 510.222 156.084 512.745C157.161 514.22 157.559 516.241 155.804 517.289C155.531 517.463 155.225 517.579 154.905 517.629C154.585 517.68 154.258 517.665 153.945 517.584C153.222 517.377 152.189 516.536 152.366 515.666C152.366 515.533 152.484 514.928 152.248 514.899C152.012 514.869 151.879 515.415 151.85 515.563C151.451 517.48 152.823 519.605 154.977 519.015C157.131 518.425 157.854 516.064 157.618 514.117C157.391 512.996 156.906 511.943 156.202 511.042C155.498 510.14 154.594 509.415 153.561 508.923C151.053 507.448 148.25 506.445 145.934 504.63C143.617 502.815 141.242 499.407 143.337 496.648C143.542 496.367 143.642 496.022 143.617 495.675C143.617 495.557 143.529 495.07 143.307 495.35Z" fill="white"/>
<path d="M152.44 509.307C151.39 509.559 150.409 510.039 149.565 510.712C148.722 511.385 148.036 512.235 147.556 513.202C147.106 514.282 146.874 515.44 146.874 516.61C146.874 517.78 147.106 518.938 147.556 520.018C147.938 521.091 148.563 522.06 149.382 522.851C150.201 523.642 151.192 524.233 152.277 524.577C153.57 524.847 154.913 524.749 156.152 524.292C157.391 523.836 158.477 523.039 159.285 521.995C160.134 520.844 160.692 519.505 160.91 518.092C161.128 516.679 161.001 515.234 160.539 513.88C160.436 513.571 160.2 513.88 160.126 514.072C159.987 514.388 159.956 514.74 160.038 515.075C160.408 516.062 160.508 517.129 160.326 518.167C160.144 519.205 159.688 520.175 159.005 520.977C158.35 521.82 157.49 522.481 156.506 522.895C155.522 523.31 154.449 523.465 153.388 523.345C152.327 523.225 151.315 522.834 150.449 522.21C149.583 521.586 148.891 520.75 148.441 519.782C147.945 518.979 147.622 518.081 147.493 517.147C147.363 516.212 147.43 515.26 147.689 514.353C148.127 513.447 148.767 512.654 149.56 512.035C150.353 511.416 151.278 510.987 152.263 510.782C152.646 510.679 152.779 509.307 152.395 509.307H152.44Z" fill="white"/>
<path d="M142.201 494.702C142.678 497.185 142.401 499.754 141.404 502.078C140.386 504.159 138.63 505.28 136.978 506.829C134.255 509.465 132.668 513.059 132.552 516.847C132.552 520.594 135.827 525.168 139.929 524.799C144.03 524.43 145.963 519.738 145.107 516.227C144.694 514.516 143.396 511.889 141.271 512.066C139.147 512.244 138.07 514.914 137.686 516.699C137.686 516.847 137.553 517.451 137.804 517.481C138.055 517.511 138.173 516.95 138.203 516.802C138.542 515.224 139.855 513.011 141.802 513.601C143.455 514.102 144.443 516.227 144.679 517.806C144.781 518.772 144.601 519.747 144.159 520.612C143.717 521.478 143.034 522.196 142.192 522.68C141.35 523.165 140.385 523.394 139.415 523.341C138.445 523.287 137.511 522.953 136.727 522.379C135.268 521.41 134.145 520.014 133.511 518.381C132.893 516.426 133.068 514.307 133.998 512.48C134.639 511.092 135.507 509.821 136.565 508.717C137.716 507.478 139.191 506.593 140.268 505.28C142.894 502.108 143.352 497.756 142.776 493.816C142.776 493.492 142.57 493.565 142.407 493.742C142.217 494.046 142.144 494.407 142.201 494.76V494.702Z" fill="white"/>
<path d="M89.8555 496.915C87.2537 500.701 83.5504 503.596 79.2477 505.206C77.5114 505.694 75.8525 506.424 74.32 507.375C72.7439 508.594 71.5717 510.26 70.9562 512.155C69.9066 515.058 70.0122 518.253 71.2513 521.081C72.5413 523.592 74.6124 525.617 77.1527 526.849C78.7947 527.607 80.5817 528 82.3902 528C84.1988 528 85.9857 527.607 87.6277 526.849C87.9966 526.687 88.0703 525.286 87.7605 525.374C85.1903 526.533 82.3011 526.779 79.5721 526.07C76.8431 525.362 74.4382 523.742 72.7562 521.479C71.8339 520.266 71.2182 518.847 70.9613 517.344C70.7045 515.842 70.8141 514.3 71.2808 512.848C71.9036 510.864 73.2595 509.191 75.0725 508.172C76.5781 507.468 78.1251 506.857 79.7051 506.342C83.9013 504.633 87.4957 501.716 90.0326 497.962C90.2244 497.682 90.2834 496.265 89.8555 496.87V496.915Z" fill="white"/>
<path d="M94.4435 496.693C96.3614 499.23 95.0336 502.181 92.9681 504.069C90.6838 505.794 88.2086 507.249 85.5913 508.407C83.3552 509.382 81.5948 511.201 80.6932 513.467C80.1178 515.4 80.3833 517.894 82.4193 518.823C84.7799 519.93 86.6979 517.348 86.2553 515.12C86.093 514.397 85.6061 515.725 85.6798 516.064C85.8864 517.053 84.5291 517.643 83.7767 517.628C83.083 517.607 82.4236 517.322 81.9325 516.831C81.366 516.225 81.062 515.42 81.0869 514.591C81.1117 513.762 81.4634 512.976 82.0653 512.405C84.0717 510.045 87.3618 509.027 90.0027 507.551C92.389 506.385 94.3159 504.452 95.4762 502.063C95.9694 500.992 96.1796 499.813 96.0866 498.637C95.9936 497.462 95.6006 496.33 94.9451 495.35C94.7681 495.114 94.2812 496.368 94.5467 496.722L94.4435 496.693Z" fill="white"/>
<path d="M85.5177 510.753C87.2585 511.168 88.7802 512.221 89.7815 513.704C90.2584 514.538 90.5286 515.474 90.5697 516.434C90.6108 517.394 90.4214 518.35 90.0175 519.222C89.6558 520.128 89.1038 520.946 88.3988 521.62C87.6938 522.295 86.8521 522.81 85.9308 523.131C84.8171 523.424 83.646 523.419 82.5351 523.116C81.4242 522.813 80.4125 522.223 79.6015 521.405C78.6854 520.564 78.0323 519.476 77.7208 518.271C77.4092 517.067 77.4527 515.799 77.8458 514.619C77.8458 514.456 78.0524 513.807 77.8458 513.689C77.6393 513.571 77.477 513.969 77.418 514.132C76.9915 515.287 76.8208 516.521 76.9176 517.749C77.0144 518.977 77.3764 520.169 77.9787 521.243C78.681 522.428 79.7142 523.382 80.9514 523.987C82.1886 524.593 83.5757 524.823 84.9423 524.651C89.5454 523.899 91.9945 517.953 90.8437 513.792C90.4548 512.666 89.7821 511.659 88.8905 510.868C87.9989 510.077 86.9186 509.529 85.7538 509.278C85.4144 509.175 85.0898 510.606 85.4734 510.753H85.5177Z" fill="white"/>
<path d="M95.2105 494.17C94.4729 497.743 95.1104 501.463 96.9957 504.586C98.0758 505.897 99.298 507.085 100.64 508.127C101.774 509.22 102.708 510.503 103.399 511.919C104.279 513.503 104.741 515.285 104.741 517.097C104.634 518.067 104.325 519.003 103.835 519.847C103.344 520.69 102.683 521.422 101.894 521.995C101.207 522.603 100.374 523.022 99.4775 523.214C98.5806 523.405 97.6495 523.361 96.7744 523.087C95.8827 522.732 95.0934 522.16 94.4778 521.423C93.8622 520.687 93.4397 519.808 93.2483 518.868C93.039 517.856 93.1597 516.805 93.5926 515.867C94.0255 514.93 94.7477 514.156 95.6531 513.659C97.8367 512.789 99.2678 515.533 99.6366 517.23C99.7989 517.953 100.271 516.625 100.197 516.271C99.8432 514.618 98.8547 512.243 96.8777 512.066C94.9007 511.889 93.8532 513.778 93.2483 515.179C91.7729 518.646 92.8057 523.544 96.8629 524.651C100.92 525.757 104.446 521.553 105.154 518.012C105.41 516.142 105.252 514.238 104.691 512.436C104.13 510.633 103.18 508.976 101.909 507.581C100.433 505.811 98.294 504.719 97.0695 502.653C95.6716 500.081 95.2027 497.106 95.7417 494.229C95.7417 494.096 95.8745 493.491 95.6236 493.462C95.3728 493.432 95.2401 493.978 95.2105 494.126V494.17Z" fill="white"/>
<path d="M143.588 500.602C147.108 500.602 149.961 497.749 149.961 494.229C149.961 490.709 147.108 487.855 143.588 487.855C140.068 487.855 137.214 490.709 137.214 494.229C137.214 497.749 140.068 500.602 143.588 500.602Z" fill="white" stroke="white" stroke-width="1.29718" stroke-miterlimit="10"/>
<path d="M94.3696 500.602C97.8896 500.602 100.743 497.749 100.743 494.229C100.743 490.709 97.8896 487.855 94.3696 487.855C90.8496 487.855 87.9961 490.709 87.9961 494.229C87.9961 497.749 90.8496 500.602 94.3696 500.602Z" fill="white" stroke="white" stroke-width="1.29718" stroke-miterlimit="10"/>
<path d="M67.2823 217.187C66.1836 219.793 64.2419 221.954 61.7684 223.326C59.295 224.697 56.4329 225.198 53.6407 224.749C50.8485 224.3 48.2877 222.927 46.3687 220.85C44.4497 218.772 43.2836 216.111 43.057 213.292C42.9832 212.333 42.4373 213.498 42.4669 213.926C42.6324 216.225 43.38 218.445 44.6395 220.375C45.8991 222.306 47.629 223.884 49.6666 224.962C51.7688 226.015 54.1206 226.467 56.4634 226.269C58.8062 226.072 61.049 225.231 62.9448 223.841C65.0129 222.376 66.6241 220.355 67.5922 218.013C67.6954 217.792 67.8872 217.202 67.6954 216.995C67.5036 216.789 67.3856 216.995 67.2971 217.187H67.2823Z" fill="white"/>
<path d="M52.1453 197.269C52.1453 193.286 55.5091 189.716 59.6401 190.97C61.0962 191.446 62.3888 192.323 63.3698 193.499C64.3509 194.676 64.9808 196.105 65.1874 197.623C65.7944 200.452 65.3069 203.405 63.8231 205.888C62.3392 208.371 59.9693 210.2 57.191 211.005C51.4223 212.288 46.952 206.579 46.0078 201.533C45.3801 198.12 45.7806 194.597 47.1586 191.412C48.5826 188.466 50.3187 185.681 52.3371 183.106C57.8511 175.673 62.7836 167.825 67.0906 159.633C67.2791 159.324 67.3474 158.956 67.2824 158.6C67.2087 158.408 67.0759 158.231 66.9136 158.6C62.5707 166.871 57.5937 174.793 52.0272 182.294C49.7665 185.144 47.9006 188.285 46.4799 191.633C45.1294 195.19 44.7923 199.051 45.5062 202.787C46.6274 208.335 51.7027 214.442 57.9877 212.215C64.2727 209.987 66.9283 202.802 65.7923 196.812C65.0989 193.183 62.7383 189.76 58.7991 189.332C54.0337 188.83 51.5994 193.935 51.5699 197.963C51.5699 198.228 51.5699 198.405 51.865 198.287C52.16 198.169 52.16 197.535 52.16 197.328L52.1453 197.269Z" fill="white"/>
<path d="M62.325 153.968C59.7728 156.519 57.4016 159.245 55.2285 162.127C54.1185 163.7 53.132 165.358 52.2778 167.084C50.0737 171.282 48.1562 175.624 46.5386 180.082C45.7844 181.907 45.3166 183.838 45.1519 185.806C45.1519 186.072 45.1518 186.263 45.4617 186.145C45.7715 186.027 45.7272 185.378 45.742 185.172C45.9003 183.647 46.2883 182.154 46.8928 180.746C47.6599 178.592 48.5451 176.482 49.4599 174.416C50.9274 170.823 52.7097 167.368 54.7859 164.089C57.0691 160.941 59.6 157.981 62.3545 155.237C62.62 154.971 62.679 153.584 62.3545 153.938L62.325 153.968Z" fill="white"/>
<path d="M59.6841 149.497C56.3654 151.398 53.5207 154.027 51.364 157.185C49.2072 160.343 47.7945 163.95 47.2321 167.733C47.2321 167.866 47.0994 168.47 47.3502 168.5C47.601 168.529 47.719 167.984 47.7485 167.836C48.3086 164.308 49.6618 160.954 51.7062 158.025C53.7507 155.097 56.4331 152.67 59.5514 150.928C59.9202 150.722 59.9644 149.35 59.6841 149.453V149.497Z" fill="white"/>
<path d="M39.7817 296.104C39.3391 298.597 36.9195 300.249 34.8836 301.444C32.8682 302.426 31.0209 303.721 29.41 305.28C27.9597 307.031 27.1943 309.249 27.256 311.521C27.1663 313.841 27.7122 316.142 28.8346 318.175C30.0739 320.226 32.7591 321.583 34.9868 320.211C35.3409 319.99 35.3704 318.632 35.1196 318.735C32.3607 320.432 29.5428 317.954 28.6133 315.416C27.551 312.465 27.315 308.851 29.5133 306.446C31.3575 304.439 33.9393 303.495 36.1671 301.931C37.2084 301.297 38.111 300.459 38.8209 299.468C39.5307 298.477 40.0332 297.353 40.2981 296.163C40.2981 296.015 40.4309 295.41 40.1801 295.381C39.9293 295.351 39.8112 295.912 39.7817 296.059V296.104Z" fill="white"/>
<path d="M40.1949 294.156C41.6702 299.91 47.9405 303.259 47.8225 309.574C47.8148 311.228 47.3435 312.848 46.4621 314.248C45.5806 315.648 44.3244 316.774 42.8358 317.496C41.4426 318.001 39.9062 317.933 38.5626 317.308C37.2191 316.684 36.1775 315.552 35.6655 314.162C34.2639 310.636 37.4507 307.39 40.726 306.652C41.0949 306.564 41.2571 305.177 40.8588 305.177C39.2771 305.559 37.8488 306.412 36.7632 307.624C35.6777 308.836 34.9861 310.35 34.7803 311.964C34.5513 313.553 34.9169 315.171 35.8072 316.508C36.6974 317.845 38.0497 318.806 39.6047 319.208C43.1603 319.945 46.1258 316.788 47.3946 313.808C48.1108 312.174 48.4632 310.405 48.4276 308.621C48.3919 306.838 47.9689 305.084 47.188 303.48C45.3438 299.866 41.7587 297.151 40.7555 293.153C40.5785 292.43 40.1063 293.758 40.1949 294.112V294.156Z" fill="white"/>
<path d="M61.2187 237.724C60.3691 251.34 56.8605 264.657 50.8912 276.924C49.5486 279.668 48.0733 282.353 46.4651 284.979C46.2767 285.288 46.2084 285.656 46.2733 286.012C46.3618 286.233 46.4651 286.366 46.6422 286.012C53.5566 274.507 58.2461 261.805 60.4662 248.568C61.0799 244.859 61.5034 241.122 61.7351 237.37C61.7351 236.366 61.1892 237.045 61.1596 237.665L61.2187 237.724Z" fill="white"/>
<path d="M44.3699 237.827C40.6699 246.36 39.4232 255.756 40.7701 264.959C40.7701 265.283 40.9767 265.195 41.139 264.959C41.3238 264.654 41.3919 264.292 41.3307 263.941C40.083 255.388 41.2428 246.657 44.6798 238.727C44.8421 238.343 44.6798 237.045 44.3699 237.901V237.827Z" fill="white"/>
<path d="M50.5369 266.655C54.2357 258.127 55.4824 248.736 54.1368 239.538C54.1368 239.214 53.9302 239.302 53.7679 239.538C53.5779 239.842 53.5045 240.203 53.5614 240.556C54.8481 249.156 53.6928 257.943 50.227 265.918C50.0647 266.301 50.2271 267.6 50.5369 266.729V266.655Z" fill="white"/>
<path d="M46.9961 250.869C47.1874 260.298 44.9466 269.616 40.4898 277.927C40.3049 278.232 40.2368 278.594 40.298 278.945C40.3865 279.152 40.5046 279.329 40.6669 278.945C45.4057 270.103 47.7886 260.191 47.5863 250.161C47.5863 249.202 46.9814 250.382 46.9961 250.795V250.869Z" fill="white"/>
<path d="M40.8291 232.826C35.8715 242.172 33.9578 252.834 35.3556 263.321C35.7592 266.3 36.4408 269.234 37.3915 272.085C37.4948 272.41 37.7309 272.085 37.8046 271.893C37.9509 271.58 37.9822 271.224 37.8932 270.89C35.9165 264.849 35.1696 258.472 35.6967 252.138C36.2237 245.803 38.014 239.638 40.9619 234.006C41.1519 233.703 41.2253 233.341 41.1685 232.988C41.0799 232.767 40.9619 232.605 40.7996 232.988L40.8291 232.826Z" fill="white"/>
<path d="M42.0389 297.874C44.6626 297.874 46.7895 295.747 46.7895 293.123C46.7895 290.5 44.6626 288.373 42.0389 288.373C39.4151 288.373 37.2882 290.5 37.2882 293.123C37.2882 295.747 39.4151 297.874 42.0389 297.874Z" fill="white" stroke="white" stroke-width="1.29718" stroke-miterlimit="10"/>
</svg>
