<svg width="40" height="40" viewBox="0 0 40 40" fill="none" xmlns="http://www.w3.org/2000/svg">
<g clip-path="url(#clip0_1887_5685)">
<path d="M39.5225 20.4603C39.5225 19.1008 39.4123 17.7339 39.1771 16.3964H20.3125V24.098H31.1154C30.6671 26.5819 29.2267 28.7792 27.1176 30.1755V35.1728H33.5626C37.3472 31.6894 39.5225 26.5452 39.5225 20.4603Z" fill="#4285F4"/>
<path d="M20.3126 40.0014C25.7066 40.0014 30.2556 38.2303 33.57 35.1732L27.125 30.176C25.3319 31.3959 23.017 32.0867 20.3199 32.0867C15.1022 32.0867 10.6782 28.5665 9.09081 23.8339H2.44006V28.9854C5.83525 35.7391 12.7506 40.0014 20.3126 40.0014Z" fill="#34A853"/>
<path d="M9.0834 23.834C8.24563 21.3501 8.24563 18.6604 9.0834 16.1765V11.0249H2.44C-0.396668 16.6762 -0.396668 23.3343 2.44 28.9856L9.0834 23.834Z" fill="#FBBC04"/>
<path d="M20.3126 7.9161C23.1639 7.87201 25.9198 8.94494 27.9848 10.9144L33.6949 5.20436C30.0792 1.80917 25.2804 -0.0574433 20.3126 0.00134778C12.7506 0.00134778 5.83525 4.2637 2.44006 11.0247L9.08346 16.1763C10.6635 11.4362 15.0948 7.9161 20.3126 7.9161Z" fill="#EA4335"/>
</g>
<defs>
<clipPath id="clip0_1887_5685">
<rect width="40" height="40" fill="white"/>
</clipPath>
</defs>
</svg>
