<svg width="24" height="24" viewBox="0 0 24 24" fill="none" xmlns="http://www.w3.org/2000/svg">
<g id="Adhesive-Plaster--Streamline-Solar-Ar.svg">
<path id="Vector" d="M3.76237 9.25413C2.24587 7.73762 2.24587 5.27888 3.76237 3.76237C5.27888 2.24587 7.73762 2.24587 9.25413 3.76237L20.2376 14.7458C21.7541 16.2623 21.7541 18.7211 20.2376 20.2376C18.7211 21.7541 16.2623 21.7541 14.7458 20.2376L3.76237 9.25413Z" stroke="black" stroke-width="1.5"/>
<path id="Vector_2" d="M12 17.4918L9.25413 20.2376C7.73762 21.7541 5.27888 21.7541 3.76237 20.2376C2.24587 18.7211 2.24587 16.2623 3.76237 14.7458L6.50826 12L12 17.4918Z" stroke="black" stroke-width="1.5"/>
<path id="Vector_3" d="M12 6.50826L14.7458 3.76237C16.2623 2.24587 18.7211 2.24587 20.2376 3.76237C21.7541 5.27888 21.7541 7.73762 20.2376 9.25413L17.4918 12L12 6.50826Z" stroke="black" stroke-width="1.5"/>
<path id="Vector_4" d="M15.6013 12.8178C15.8896 13.1061 15.8896 13.5736 15.6013 13.862C15.3129 14.1502 14.8455 14.1502 14.5572 13.862C14.2688 13.5736 14.2688 13.1061 14.5572 12.8178C14.8455 12.5295 15.3129 12.5295 15.6013 12.8178Z" fill="black"/>
<path id="Vector_5" d="M12.1208 9.33734C11.8326 9.04901 11.365 9.04901 11.0768 9.33734C10.7884 9.62567 10.7884 10.0931 11.0768 10.3815C11.365 10.6698 11.8326 10.6698 12.1208 10.3815C12.4092 10.0931 12.4092 9.62567 12.1208 9.33734Z" fill="black"/>
<path id="Vector_6" d="M16.4714 15.4272C16.7598 15.7155 16.7598 16.183 16.4714 16.4713C16.1832 16.7597 15.7156 16.7597 15.4273 16.4713C15.139 16.183 15.139 15.7155 15.4273 15.4272C15.7156 15.1388 16.1832 15.1388 16.4714 15.4272Z" fill="black"/>
<path id="Vector_7" d="M9.51056 8.46625C9.22223 8.17792 8.75476 8.17792 8.46643 8.46625C8.1781 8.75457 8.1781 9.22205 8.46643 9.51038C8.75476 9.79871 9.22223 9.79871 9.51056 9.51038C9.79889 9.22205 9.79889 8.75457 9.51056 8.46625Z" fill="black"/>
<path id="Vector_8" d="M12.991 11.9467C13.2793 12.2351 13.2793 12.7025 12.991 12.9908C12.7027 13.2791 12.2352 13.2791 11.9469 12.9908C11.6586 12.7025 11.6586 12.2351 11.9469 11.9467C12.2352 11.6584 12.7027 11.6584 12.991 11.9467Z" fill="black"/>
<path id="Vector_9" d="M13.8612 14.5561C14.1494 14.8444 14.1494 15.3118 13.8612 15.6002C13.5728 15.8885 13.1054 15.8885 12.817 15.6002C12.5287 15.3118 12.5287 14.8444 12.817 14.5561C13.1054 14.2677 13.5728 14.2677 13.8612 14.5561Z" fill="black"/>
<path id="Vector_10" d="M10.3807 11.0757C10.0923 10.7873 9.62487 10.7873 9.33655 11.0757C9.04822 11.3639 9.04822 11.8315 9.33655 12.1198C9.62487 12.4081 10.0923 12.4081 10.3807 12.1198C10.669 11.8315 10.669 11.3639 10.3807 11.0757Z" fill="black"/>
</g>
</svg>
