<svg width="36" height="36" viewBox="0 0 36 36" fill="none" xmlns="http://www.w3.org/2000/svg">
<path d="M9.42023 33.0006C12.0049 33.0006 14.1002 30.9053 14.1002 28.3206C14.1002 25.7359 12.0049 23.6406 9.42023 23.6406C6.83554 23.6406 4.74023 25.7359 4.74023 28.3206C4.74023 30.9053 6.83554 33.0006 9.42023 33.0006Z" stroke="white" stroke-width="3" stroke-linecap="round" stroke-linejoin="round"/>
<path d="M31.2606 25.1946V6.89465C31.2606 2.99465 28.8156 2.45465 26.3406 3.12965L16.9806 5.67965C15.2706 6.14465 14.1006 7.49465 14.1006 9.44465V12.6996V14.8896V28.2996" stroke="white" stroke-width="3" stroke-linecap="round" stroke-linejoin="round"/>
<path d="M26.5794 29.8756C29.1641 29.8756 31.2594 27.7803 31.2594 25.1956C31.2594 22.6109 29.1641 20.5156 26.5794 20.5156C23.9947 20.5156 21.8994 22.6109 21.8994 25.1956C21.8994 27.7803 23.9947 29.8756 26.5794 29.8756Z" stroke="white" stroke-width="3" stroke-linecap="round" stroke-linejoin="round"/>
<path d="M14.1006 14.2738L31.2606 9.59375" stroke="white" stroke-width="3" stroke-linecap="round" stroke-linejoin="round"/>
</svg>
