<svg width="234" height="234" viewBox="0 0 234 234" fill="none" xmlns="http://www.w3.org/2000/svg">
<path d="M59.8711 56.6719H16.4531C12.4145 56.6719 9.14062 59.9458 9.14062 63.9844V89.3891C9.14062 93.4277 12.4145 96.7016 16.4531 96.7016H59.8711C63.9097 96.7016 67.1836 93.4277 67.1836 89.3891V63.9844C67.1836 59.9458 63.9097 56.6719 59.8711 56.6719Z" stroke="#989898" stroke-width="1.5" stroke-linecap="round"/>
<path d="M18.2812 78.6094H49.3594M18.2812 87.75H34.7622" stroke="#989898" stroke-width="1.5" stroke-linecap="round"/>
<path d="M24.4986 63.5898H20.803C19.2885 63.5898 18.0608 64.8176 18.0608 66.332V70.0277C18.0608 71.5421 19.2885 72.7699 20.803 72.7699H24.4986C26.0131 72.7699 27.2408 71.5421 27.2408 70.0277V66.332C27.2408 64.8176 26.0131 63.5898 24.4986 63.5898Z" fill="#989898" stroke="#989898"/>
<path d="M74.4961 157.219H31.0781C27.0395 157.219 23.7656 160.493 23.7656 164.531V189.936C23.7656 193.975 27.0395 197.248 31.0781 197.248H74.4961C78.5347 197.248 81.8086 193.975 81.8086 189.936V164.531C81.8086 160.493 78.5347 157.219 74.4961 157.219Z" stroke="#989898" stroke-width="1.5" stroke-linecap="round"/>
<path d="M32.9062 179.156H63.9844M32.9062 188.297H49.3872" stroke="#989898" stroke-width="1.5" stroke-linecap="round"/>
<path d="M39.1236 164.137H35.428C33.9135 164.137 32.6858 165.364 32.6858 166.879V170.575C32.6858 172.089 33.9135 173.317 35.428 173.317H39.1236C40.6381 173.317 41.8658 172.089 41.8658 170.575V166.879C41.8658 165.364 40.6381 164.137 39.1236 164.137Z" fill="#989898" stroke="#989898"/>
<path d="M215.262 76.7812H171.844C167.805 76.7812 164.531 80.0552 164.531 84.0938V109.498C164.531 113.537 167.805 116.811 171.844 116.811H215.262C219.3 116.811 222.574 113.537 222.574 109.498V84.0938C222.574 80.0552 219.3 76.7812 215.262 76.7812Z" stroke="#989898" stroke-width="1.5" stroke-linecap="round"/>
<path d="M173.672 98.7188H204.75M173.672 107.859H190.152" stroke="#989898" stroke-width="1.5" stroke-linecap="round"/>
<path d="M179.889 83.6992H176.194C174.679 83.6992 173.451 84.9269 173.451 86.4414V90.1371C173.451 91.6515 174.679 92.8792 176.194 92.8792H179.889C181.404 92.8792 182.631 91.6515 182.631 90.1371V86.4414C182.631 84.9269 181.404 83.6992 179.889 83.6992Z" fill="#989898" stroke="#989898"/>
<path d="M136.652 98.7188H93.2344C89.1958 98.7188 85.9219 101.993 85.9219 106.031V131.436C85.9219 135.475 89.1958 138.748 93.2344 138.748H136.652C140.691 138.748 143.965 135.475 143.965 131.436V106.031C143.965 101.993 140.691 98.7188 136.652 98.7188Z" stroke="#989898" stroke-width="1.5" stroke-linecap="round"/>
<path d="M94.9287 120.734H125.952M94.9287 127.74H111.38" stroke="#989898" stroke-width="1.5" stroke-linecap="round"/>
<path d="M101.28 105.637H97.5842C96.0698 105.637 94.842 106.864 94.842 108.379V112.075C94.842 113.589 96.0698 114.817 97.5842 114.817H101.28C102.794 114.817 104.022 113.589 104.022 112.075V108.379C104.022 106.864 102.794 105.637 101.28 105.637Z" fill="#989898" stroke="#989898"/>
<path d="M165.889 67.1712C156.567 57.8492 145.335 51.6012 133.453 48.4271C114.176 43.2776 93.1884 46.2181 75.8668 57.2485M43.0718 107.86C41.3324 119.793 42.5757 132.077 46.8016 143.509M99.6324 189.172C117.88 193.036 137.332 189.797 153.562 179.452M176.367 156.306C181.94 147.266 185.341 137.267 186.569 127.056" stroke="#DCDCDC" stroke-width="3" stroke-linecap="round"/>
<path fill-rule="evenodd" clip-rule="evenodd" d="M154.176 79.3536C132.624 57.8014 97.6811 57.8014 76.1289 79.3536C54.5768 100.906 54.5768 135.849 76.1289 157.401C96.1034 177.375 127.58 178.838 149.238 161.787L179.636 192.185C182.252 194.801 186.494 194.801 189.112 192.185C191.728 189.567 191.728 185.324 189.112 182.708L158.696 152.293C175.605 130.64 174.098 99.2759 154.176 79.3536ZM85.1776 88.4024C101.732 71.8478 128.573 71.8478 145.127 88.4024C161.682 104.957 161.682 131.797 145.127 148.352C128.573 164.907 101.732 164.907 85.1776 148.352C68.623 131.797 68.623 104.957 85.1776 88.4024Z" fill="#656565"/>
</svg>
