<svg width="300" height="200" viewBox="0 0 300 200" fill="none" xmlns="http://www.w3.org/2000/svg">
<path fill-rule="evenodd" clip-rule="evenodd" d="M289.426 86.5806C289.417 86.5659 289.408 86.5511 289.399 86.5364C282.121 74.6599 271.7 65.0273 259.289 58.7036C246.878 52.3799 232.96 49.6114 219.074 50.7043C209.105 51.4889 199.431 54.2417 190.597 58.7618C184.827 61.7141 177.517 60.6453 173.707 55.4017C169.898 50.1581 171.033 42.7501 176.69 39.5873C186.635 34.0275 197.473 30.2218 208.727 28.3465C194.987 11.0734 173.787 0 150 0C117.345 0 89.5636 20.8702 79.2676 50H75C33.5786 50 0 83.5786 0 125C0 166.421 33.5786 200 75 200H225C266.421 200 300 166.421 300 125C300 110.958 296.141 97.8173 289.426 86.5806ZM275 125C275 152.614 252.614 175 225 175C197.386 175 175 152.614 175 125C175 97.3858 197.386 75 225 75C252.614 75 275 97.3858 275 125Z" fill="#0079D1"/>
</svg>
