<svg width="24" height="24" viewBox="0 0 24 24" fill="none" xmlns="http://www.w3.org/2000/svg">
<path d="M11.9697 22C17.4926 22 21.9697 17.5228 21.9697 12C21.9697 6.47715 17.4926 2 11.9697 2C6.44688 2 1.96973 6.47715 1.96973 12C1.96973 17.5228 6.44688 22 11.9697 22Z" stroke="white" stroke-width="1.5" stroke-linecap="round" stroke-linejoin="round"/>
<path d="M10.72 14.5269V9.46688C10.72 8.98688 10.52 8.79688 10.01 8.79688H8.71C8.2 8.79688 8 8.98688 8 9.46688V14.5269C8 15.0069 8.2 15.1969 8.71 15.1969H10C10.52 15.1969 10.72 15.0069 10.72 14.5269Z" stroke="white" stroke-width="1.5" stroke-linecap="round" stroke-linejoin="round"/>
<path d="M16 14.5269V9.46688C16 8.98688 15.8 8.79688 15.29 8.79688H14C13.49 8.79688 13.29 8.98688 13.29 9.46688V14.5269C13.29 15.0069 13.49 15.1969 14 15.1969H15.29C15.8 15.1969 16 15.0069 16 14.5269Z" stroke="white" stroke-width="1.5" stroke-linecap="round" stroke-linejoin="round"/>
</svg>
