<svg width="25" height="29" viewBox="0 0 25 29" fill="none" xmlns="http://www.w3.org/2000/svg">
<path d="M13.94 7.00003C12.1765 9.56648 9.66638 11.5285 6.75001 12.62C5.5731 12.9505 4.4487 13.4455 3.41002 14.0901C2.34169 14.9164 1.54716 16.0455 1.13002 17.33C0.418546 19.2978 0.490126 21.4636 1.33 23.38C2.20438 25.0824 3.60818 26.4546 5.33 27.29C6.44296 27.8038 7.65419 28.0699 8.88002 28.0699C10.1058 28.0699 11.317 27.8038 12.43 27.29C12.68 27.18 12.73 26.23 12.52 26.29C10.7779 27.0755 8.81959 27.242 6.96986 26.7619C5.12013 26.2817 3.4901 25.1838 2.35002 23.6501C1.72489 22.8274 1.30756 21.866 1.13347 20.8475C0.959372 19.829 1.03365 18.7836 1.35002 17.8C1.77212 16.4548 2.69121 15.3212 3.92003 14.63C4.9405 14.1532 5.9891 13.7391 7.06001 13.39C9.90423 12.2315 12.3405 10.2547 14.06 7.71005C14.19 7.52005 14.23 6.56 13.94 6.97V7.00003Z" fill="black"/>
<path d="M17.0499 6.85004C18.3499 8.57004 17.4499 10.57 16.0499 11.85C14.5017 13.0187 12.8239 14.0052 11.0499 14.79C9.53431 15.4509 8.34109 16.6837 7.72997 18.22C7.33997 19.53 7.51996 21.22 8.89996 21.85C10.5 22.6 11.8 20.8501 11.5 19.3401C11.39 18.8501 11.0599 19.75 11.1099 19.98C11.2499 20.65 10.33 21.05 9.81997 21.04C9.3498 21.0255 8.90283 20.8324 8.56997 20.5001C8.18599 20.0894 7.97996 19.5435 7.99682 18.9815C8.01368 18.4195 8.25206 17.887 8.65997 17.5001C10.02 15.9001 12.25 15.2101 14.04 14.2101C15.6574 13.4193 16.9635 12.1096 17.75 10.4901C18.0843 9.76421 18.2267 8.96474 18.1637 8.1681C18.1007 7.37145 17.8343 6.60431 17.39 5.94007C17.27 5.78007 16.94 6.63006 17.12 6.87006L17.0499 6.85004Z" fill="black"/>
<path d="M11 16.3801C12.1799 16.6611 13.2113 17.3748 13.89 18.3801C14.2132 18.9455 14.3964 19.58 14.4243 20.2307C14.4521 20.8813 14.3237 21.5291 14.05 22.1201C13.8048 22.7343 13.4307 23.2887 12.9528 23.7459C12.4749 24.2031 11.9045 24.5524 11.28 24.7701C10.5251 24.9684 9.73138 24.9647 8.97839 24.7593C8.2254 24.554 7.53965 24.1541 6.98999 23.6C6.36905 23.0298 5.92635 22.2922 5.71521 21.476C5.50406 20.6598 5.53349 19.7999 5.79998 19.0001C5.79998 18.8901 5.93998 18.4501 5.79998 18.3701C5.65998 18.2901 5.55001 18.5601 5.51001 18.6701C5.22092 19.4531 5.1052 20.2896 5.1708 21.1218C5.23641 21.9539 5.48179 22.762 5.89001 23.4901C6.36604 24.2932 7.06637 24.9397 7.90493 25.3501C8.7435 25.7605 9.68372 25.9169 10.61 25.8001C13.73 25.2901 15.39 21.2601 14.61 18.4401C14.3463 17.6765 13.8904 16.9938 13.2861 16.4578C12.6818 15.9218 11.9495 15.5507 11.16 15.3801C10.93 15.3101 10.71 16.2801 10.97 16.3801H11Z" fill="black"/>
<path d="M17.57 5.14C17.0701 7.56174 17.5022 10.083 18.78 12.2C19.5121 13.0888 20.3405 13.8937 21.25 14.6C22.019 15.3406 22.6519 16.2105 23.12 17.17C23.7166 18.2437 24.0298 19.4517 24.03 20.68C23.9572 21.3372 23.7478 21.9721 23.4155 22.5437C23.0832 23.1154 22.6351 23.6114 22.1 24C21.6343 24.4116 21.0701 24.6961 20.4622 24.8257C19.8543 24.9554 19.2232 24.9258 18.63 24.74C18.0256 24.4991 17.4906 24.1115 17.0734 23.6122C16.6561 23.1129 16.3697 22.5176 16.24 21.88C16.0982 21.1946 16.18 20.4818 16.4734 19.8464C16.7668 19.211 17.2563 18.6865 17.87 18.35C19.35 17.76 20.32 19.62 20.57 20.77C20.68 21.26 21 20.36 20.95 20.12C20.71 19 20.04 17.39 18.7 17.27C17.36 17.15 16.65 18.43 16.24 19.38C15.24 21.73 15.94 25.05 18.69 25.8C21.44 26.55 23.83 23.7 24.31 21.3C24.4832 20.0323 24.3759 18.7421 23.9957 17.5205C23.6156 16.2989 22.9718 15.1756 22.11 14.23C21.11 13.03 19.66 12.29 18.83 10.89C17.8825 9.14672 17.5647 7.13018 17.93 5.17998C17.93 5.08998 18.02 4.67996 17.85 4.65996C17.68 4.63996 17.59 5.00997 17.57 5.10997V5.14Z" fill="black"/>
<path d="M16.9999 9.49988C19.3858 9.49988 21.3199 7.56574 21.3199 5.17987C21.3199 2.794 19.3858 0.859863 16.9999 0.859863C14.6141 0.859863 12.6799 2.794 12.6799 5.17987C12.6799 7.56574 14.6141 9.49988 16.9999 9.49988Z" fill="black" stroke="black" stroke-miterlimit="10"/>
</svg>
