<svg width="25" height="29" viewBox="0 0 25 29" fill="none" xmlns="http://www.w3.org/2000/svg">
<path d="M11.23 7.80996C12.7659 10.0865 14.887 11.907 17.37 13.08C18.48 13.59 19.66 13.9 20.77 14.39C21.9129 14.8966 22.8579 15.7643 23.46 16.86C23.9965 17.788 24.2897 18.8366 24.3125 19.9083C24.3352 20.98 24.0867 22.04 23.59 22.99C22.7061 24.4699 21.3954 25.6481 19.83 26.37C18.7468 26.8393 17.5768 27.0747 16.3965 27.0609C15.2161 27.0472 14.0519 26.7844 12.98 26.2899C12.8 26.1999 12.52 27.1499 12.79 27.2899C14.6514 28.1211 16.748 28.2616 18.7036 27.6861C20.6592 27.1106 22.3455 25.8569 23.46 24.15C24.6013 22.3723 24.9931 20.2155 24.55 18.15C24.3045 16.7497 23.6301 15.4603 22.62 14.46C21.7152 13.7169 20.6666 13.1688 19.54 12.8499C16.2618 11.8312 13.4359 9.7118 11.54 6.84994C11.43 6.68994 11.09 7.52999 11.26 7.76999L11.23 7.80996Z" fill="black"/>
<path d="M8.17004 5.93994C7.71051 6.58214 7.41474 7.32683 7.30843 8.10931C7.20213 8.8918 7.28848 9.68841 7.56002 10.4299C8.34257 12.1561 9.72981 13.5363 11.46 14.3099C13.28 15.3099 15.55 16.0199 16.83 17.7299C17.56 18.7299 17.83 20.0999 16.64 20.8099C16.455 20.9279 16.2476 21.0065 16.0308 21.041C15.8141 21.0754 15.5925 21.0648 15.38 21.0099C14.89 20.8699 14.19 20.3 14.31 19.71C14.31 19.62 14.39 19.2099 14.23 19.1899C14.07 19.1699 13.98 19.54 13.96 19.64C13.69 20.94 14.62 22.3799 16.08 21.9799C17.54 21.5799 18.03 19.9799 17.87 18.6599C17.7159 17.9002 17.3872 17.1866 16.91 16.5757C16.4327 15.9648 15.8199 15.4733 15.12 15.14C13.42 14.14 11.52 13.4599 9.95003 12.2299C8.38003 10.9999 6.77003 8.68994 8.19003 6.81994C8.32929 6.62927 8.3966 6.39544 8.38003 6.15991C8.38003 6.07991 8.32004 5.74994 8.17004 5.93994Z" fill="black"/>
<path d="M14.36 15.3999C13.6488 15.571 12.9837 15.8961 12.4118 16.3522C11.8399 16.8084 11.375 17.3845 11.05 18.0399C10.7447 18.7717 10.5875 19.5569 10.5875 20.3499C10.5875 21.1429 10.7447 21.928 11.05 22.6599C11.3088 23.3869 11.7323 24.0442 12.2875 24.5803C12.8426 25.1164 13.5144 25.5167 14.25 25.7499C15.1262 25.9333 16.0363 25.8664 16.8763 25.5569C17.7163 25.2475 18.4523 24.7079 19 23.9999C19.5754 23.2199 19.9533 22.3122 20.1013 21.3544C20.2493 20.3965 20.1631 19.4171 19.85 18.4999C19.78 18.2899 19.62 18.4999 19.57 18.6299C19.4756 18.8437 19.4545 19.0828 19.51 19.3099C19.761 19.9784 19.8285 20.7019 19.7054 21.4053C19.5823 22.1087 19.2731 22.7663 18.81 23.3099C18.3662 23.8814 17.783 24.3291 17.1162 24.6102C16.4495 24.8912 15.7216 24.9961 15.0027 24.9148C14.2837 24.8335 13.5977 24.5686 13.0106 24.1457C12.4234 23.7228 11.9549 23.1561 11.65 22.4999C11.3138 21.9557 11.0948 21.3473 11.007 20.7137C10.9192 20.08 10.9645 19.435 11.14 18.8199C11.4368 18.206 11.8707 17.6684 12.4082 17.2488C12.9457 16.8292 13.5724 16.5388 14.24 16.3999C14.5 16.3299 14.59 15.3999 14.33 15.3999H14.36Z" fill="black"/>
<path d="M7.42001 5.50006C7.74347 7.18325 7.55538 8.92474 6.88 10.5001C6.19 11.9101 5 12.67 3.88 13.72C2.03455 15.5068 0.958355 17.9426 0.880005 20.5101C0.880005 23.0501 3.1 26.1501 5.88 25.9001C8.66 25.6501 9.97001 22.4701 9.39001 20.0901C9.11001 18.9301 8.23001 17.1501 6.79001 17.2701C5.35001 17.3901 4.61999 19.2 4.35999 20.41C4.35999 20.51 4.27 20.9201 4.44 20.9401C4.61 20.9601 4.68999 20.58 4.70999 20.48C4.93999 19.41 5.82999 17.9101 7.14999 18.3101C8.26999 18.6501 8.94001 20.09 9.10001 21.16C9.16912 21.8149 9.04657 22.4758 8.74725 23.0624C8.44793 23.6489 7.98471 24.1359 7.41388 24.4642C6.84304 24.7925 6.18916 24.948 5.53165 24.9117C4.87413 24.8755 4.24128 24.6491 3.70999 24.2601C2.721 23.6034 1.95949 22.6568 1.53 21.55C1.11137 20.225 1.22986 18.7886 1.85999 17.55C2.29469 16.6095 2.88272 15.7478 3.60001 15.0001C4.38001 14.1601 5.37999 13.56 6.10999 12.67C7.88999 10.52 8.2 7.57008 7.81 4.90008C7.81 4.68008 7.67 4.73003 7.56 4.85003C7.43123 5.05546 7.38149 5.30067 7.42001 5.54004V5.50006Z" fill="black"/>
<path d="M8.36002 9.49988C10.7459 9.49988 12.68 7.56574 12.68 5.17987C12.68 2.794 10.7459 0.859863 8.36002 0.859863C5.97415 0.859863 4.04004 2.794 4.04004 5.17987C4.04004 7.56574 5.97415 9.49988 8.36002 9.49988Z" fill="black" stroke="black" stroke-miterlimit="10"/>
</svg>
