<svg width="18" height="53" viewBox="0 0 18 53" fill="none" xmlns="http://www.w3.org/2000/svg">
<path d="M0.449974 47.08C1.07151 48.5339 2.05997 49.8015 3.3186 50.7586C4.57722 51.7157 6.06283 52.3295 7.62997 52.54C9.19808 52.7101 10.783 52.4522 12.2162 51.7936C13.6495 51.1351 14.8776 50.1006 15.77 48.8C16.8038 47.3553 17.4166 45.6522 17.54 43.88C17.54 43.2 17.18 43.65 17.15 44.07C16.9399 45.9899 16.0829 47.7813 14.7199 49.1497C13.357 50.5181 11.569 51.3822 9.64996 51.6C7.8034 51.7442 5.95792 51.308 4.37127 50.3525C2.78462 49.3969 1.53603 47.9696 0.799949 46.27C0.669949 45.97 0.359974 46.85 0.449974 47.08Z" fill="black"/>
<path d="M11.39 32.9C11.39 30.42 9.89993 27.43 7.04993 27.46C5.91507 27.5414 4.83237 27.9683 3.94742 28.6834C3.06247 29.3985 2.41773 30.3675 2.09995 31.46C1.43825 33.3965 1.37553 35.4874 1.91995 37.46C2.55314 39.512 3.90613 41.2663 5.72995 42.4C6.7699 43.0384 7.99071 43.3176 9.20477 43.1947C10.4188 43.0719 11.559 42.5538 12.45 41.72C13.597 40.7121 14.4736 39.4333 14.9999 38C15.8559 35.541 15.9741 32.8853 15.3399 30.36C14.7143 28.1937 13.6976 26.1602 12.3399 24.36C10.4499 21.61 8.40993 18.96 6.57993 16.16C4.5636 13.0834 2.7175 9.89867 1.04993 6.61998C0.889929 6.31998 0.589953 7.20998 0.699953 7.42998C3.25116 12.3801 6.1728 17.1303 9.43994 21.64C12.1199 25.35 15.1899 29.04 15.2799 33.84C15.3795 35.7543 14.872 37.6511 13.8299 39.26C13.3211 40.0939 12.6306 40.8022 11.8098 41.332C10.9891 41.8619 10.0594 42.1996 9.08994 42.32C4.73994 42.59 1.52995 37.6 1.94995 33.69C1.98574 32.6331 2.32165 31.6082 2.91843 30.7352C3.5152 29.8622 4.34817 29.1771 5.31995 28.76C8.45995 27.53 10.9099 30.37 10.9399 33.34C10.9399 33.52 10.9399 33.64 11.1499 33.56C11.3599 33.48 11.3399 33.05 11.3399 32.91L11.39 32.9Z" fill="black"/>
<path d="M5.82003 1.50008C7.98402 2.70663 9.8451 4.3898 11.2623 6.42207C12.6795 8.45435 13.6157 10.7824 14 13.2301C14 13.4501 14.14 13.4001 14.25 13.2301C14.3788 13.0246 14.4286 12.7794 14.39 12.5401C13.9921 10.0323 13.0303 7.64759 11.577 5.56551C10.1237 3.48342 8.21679 1.75829 6.00002 0.520096C5.85002 0.430096 5.54002 1.3501 5.81002 1.5201L5.82003 1.50008Z" fill="black"/>
</svg>
