<svg width="18" height="50" viewBox="0 0 18 50" fill="none" xmlns="http://www.w3.org/2000/svg">
<path d="M17.64 43.3999C16.8952 45.1662 15.5792 46.6314 13.9027 47.5608C12.2262 48.4901 10.2862 48.8299 8.39366 48.5256C6.50109 48.2213 4.76541 47.2906 3.46471 45.8825C2.16401 44.4745 1.37356 42.6706 1.21999 40.7599C1.16999 40.1099 0.799996 40.8999 0.819996 41.1899C0.932176 42.7483 1.43895 44.2525 2.29265 45.561C3.14635 46.8695 4.31891 47.9394 5.7 48.6699C7.12485 49.3836 8.71897 49.6902 10.3069 49.5561C11.8948 49.422 13.415 48.8524 14.7 47.9099C16.1018 46.9169 17.1939 45.5475 17.85 43.9599C17.92 43.8099 18.05 43.4099 17.92 43.2699C17.79 43.1299 17.71 43.2699 17.65 43.3999H17.64Z" fill="black"/>
<path d="M7.37997 29.9001C7.37997 27.2001 9.65995 24.7801 12.46 25.6301C13.4469 25.953 14.323 26.5472 14.988 27.3448C15.653 28.1424 16.0799 29.1112 16.22 30.1401C16.6314 32.0571 16.301 34.0588 15.2952 35.7419C14.2895 37.425 12.6831 38.6643 10.8 39.2101C6.88995 40.0801 3.85996 36.2101 3.21996 32.7901C2.79451 30.4766 3.06599 28.0889 3.99996 25.9301C4.9652 23.9332 6.14194 22.0458 7.50997 20.3001C11.2474 15.2617 14.5906 9.94264 17.51 4.39009C17.6377 4.18061 17.684 3.93146 17.64 3.69008C17.59 3.56008 17.5 3.44008 17.39 3.69008C14.4464 9.29591 11.0729 14.6653 7.29995 19.7501C5.76765 21.6814 4.50293 23.8106 3.53997 26.0801C2.62456 28.4905 2.39608 31.1076 2.87997 33.6401C3.63997 37.4001 7.07996 41.5401 11.34 40.0301C15.6 38.5201 17.4 33.6501 16.63 29.5901C16.16 27.1301 14.56 24.8101 11.89 24.5201C8.65998 24.1801 7.00995 27.6401 6.98995 30.3701C6.98995 30.5501 6.98997 30.6701 7.18997 30.5901C7.38997 30.5101 7.38998 30.0801 7.38998 29.9401L7.37997 29.9001Z" fill="black"/>
<path d="M14.28 0.550131C12.5501 2.27947 10.9429 4.12731 9.47 6.08016C8.71762 7.14687 8.04896 8.27021 7.47 9.44015C5.97604 12.2857 4.67639 15.2291 3.57999 18.2501C3.06875 19.4874 2.75171 20.7961 2.64001 22.1301C2.64001 22.3101 2.64001 22.4401 2.85001 22.3601C3.06001 22.2801 3.03001 21.8402 3.04001 21.7002C3.14734 20.6666 3.41031 19.6551 3.82001 18.7002C4.34001 17.2402 4.94 15.8101 5.56 14.4101C6.55469 11.975 7.76274 9.6325 9.17001 7.41012C10.7176 5.27674 12.433 3.27036 14.3 1.41012C14.48 1.23012 14.52 0.290173 14.3 0.530173L14.28 0.550131Z" fill="black"/>
</svg>
