<svg width="28" height="28" viewBox="0 0 28 28" fill="none" xmlns="http://www.w3.org/2000/svg">
<path d="M11.85 12C10.9764 11.005 9.81067 10.3116 8.51937 10.0189C7.22807 9.72613 5.8773 9.84899 4.66003 10.3699C2.74003 11.3099 1.81001 13.37 1.27001 15.31C0.380013 18.58 0.590032 22.6099 3.04003 25.1799C6.14003 28.4199 11.04 27.6899 14.77 26.0399C16.8067 25.1381 18.5503 23.6842 19.8033 21.8426C21.0564 20.0011 21.7688 17.8455 21.86 15.6199C22.11 9.76995 17.55 4.94998 12.42 2.83998C12.23 2.75998 11.96 3.70998 12.23 3.83998C16.23 5.48998 19.95 8.77995 21.13 13.06C22.41 17.69 19.9 22.41 15.8 24.63C12.8 26.24 8.80003 27.2599 5.57003 25.8599C1.81003 24.2199 0.680026 19.8599 1.44003 16.1699C1.46133 16.0273 1.49479 15.8868 1.54003 15.75C1.65003 15.34 1.77004 14.93 1.92004 14.52C2.30471 13.3927 3.02317 12.4092 3.98003 11.7C6.41003 10.03 9.66003 10.93 11.57 12.95C11.72 13.11 12.04 12.23 11.85 12.02V12Z" fill="black"/>
<path d="M18.71 1.62996C22.6281 3.6035 25.6104 7.04207 27.01 11.2C27.6326 13.1883 27.7446 15.3014 27.3357 17.3444C26.9267 19.3874 26.01 21.2945 24.67 22.89C23.8106 23.9364 22.8228 24.8703 21.73 25.6699C21.49 25.8499 21.5 26.7399 21.64 26.6699C24.4211 24.6865 26.4674 21.8385 27.46 18.57C28.0465 16.4204 28.137 14.1657 27.7247 11.976C27.3124 9.78638 26.4081 7.719 25.08 5.92995C23.4543 3.72504 21.3387 1.92783 18.9 0.679947C18.74 0.589947 18.44 1.51995 18.71 1.67995V1.62996Z" fill="black"/>
</svg>
