<svg width="28" height="28" viewBox="0 0 28 28" fill="none" xmlns="http://www.w3.org/2000/svg">
<path d="M16.67 12.88C17.499 11.9369 18.5993 11.2731 19.8202 10.9795C21.041 10.6859 22.3228 10.7769 23.49 11.24C25.37 12.07 26.27 13.98 26.78 15.85C27.59 18.85 27.22 22.54 24.67 24.73C21.62 27.35 17.2 26.55 13.8 25.1C11.8791 24.3148 10.2161 23.0082 8.99862 21.3277C7.78114 19.6473 7.0577 17.6599 6.90997 15.5901C6.62997 10.1501 11.33 5.71007 16 3.78007C16.25 3.67007 16.31 2.72007 16.09 2.78007C11.68 4.60007 7.73998 8.36001 6.72998 13.16C6.25143 15.5221 6.5291 17.975 7.52356 20.1703C8.51802 22.3657 10.1787 24.192 12.27 25.3901C13.6389 26.1414 15.1066 26.6968 16.63 27.04C17.8116 27.3919 19.0515 27.505 20.2774 27.3728C21.5032 27.2406 22.6905 26.8658 23.77 26.2701C27.25 24.0701 28.11 19.46 27.29 15.68C26.88 13.81 26.12 11.79 24.48 10.68C21.96 8.96003 18.63 9.88001 16.65 11.97C16.48 12.15 16.44 13.09 16.65 12.86L16.67 12.88Z" fill="black"/>
<path d="M9.61 0.649897C7.53638 1.69704 5.69698 3.15432 4.20324 4.93341C2.70949 6.71249 1.59253 8.77632 0.920032 10.9999C0.313334 13.1086 0.210802 15.3305 0.620746 17.4862C1.03069 19.6419 1.94161 21.671 3.28002 23.4098C4.21084 24.6158 5.30851 25.6832 6.54003 26.5799C6.76003 26.7399 7.03003 25.8099 6.82003 25.6499C4.34008 23.8829 2.45663 21.403 1.42003 18.5399C0.763437 16.486 0.628038 14.301 1.02605 12.1818C1.42406 10.0625 2.34298 8.07561 3.70003 6.3999C5.26839 4.39101 7.25408 2.74648 9.52001 1.57989C9.77001 1.44989 9.8 0.50989 9.61 0.57989V0.649897Z" fill="black"/>
</svg>
