<svg width="19" height="38" viewBox="0 0 19 38" fill="none" xmlns="http://www.w3.org/2000/svg">
<path d="M0.439995 4.44006C1.00956 13.8954 3.4393 23.1454 7.58999 31.66C8.50999 33.54 9.51999 35.3901 10.59 37.1901C10.69 37.3501 10.86 36.9301 10.87 36.8901C10.9121 36.7904 10.9337 36.6833 10.9337 36.5751C10.9337 36.4669 10.9121 36.3598 10.87 36.2601C6.2738 28.6055 3.15641 20.1556 1.67999 11.35C1.27348 8.91644 0.996435 6.46301 0.849999 4.00005C0.849999 3.36005 0.429995 4.15006 0.439995 4.44006Z" fill="black"/>
<path d="M12 5.07991C14.3832 10.5282 15.1972 16.5338 14.35 22.4199C14.35 22.5099 14.26 22.9299 14.43 22.9399C14.6 22.9499 14.69 22.5899 14.7 22.4899C15.633 16.3163 14.8189 10.0048 12.35 4.26991C12.21 3.95991 11.9 4.84991 12 5.07991Z" fill="black"/>
<path d="M8.35006 23.2502C5.96783 17.8016 5.15394 11.7962 6.00006 5.91012C6.00006 5.81012 6.08007 5.40016 5.92007 5.38016C5.76007 5.36016 5.66007 5.74018 5.64007 5.84018C4.71129 12.0147 5.52877 18.326 8.00006 24.0601C8.13006 24.3601 8.44005 23.4802 8.34005 23.2502H8.35006Z" fill="black"/>
<path d="M10.0801 13.23C9.93859 19.8898 11.5123 26.474 14.6501 32.35C14.8201 32.65 15.1201 31.75 15.0001 31.53C11.9033 25.781 10.3463 19.3286 10.4801 12.8C10.4801 12.62 10.4801 12.49 10.2701 12.57C10.0601 12.65 10.0801 13.09 10.0801 13.23Z" fill="black"/>
<path d="M14.43 1.78007C16.468 5.62167 17.7146 9.83311 18.0959 14.1651C18.4772 18.4971 17.9855 22.8615 16.65 27C16.52 27.4 16.73 28.0001 16.94 27.3301C19.1468 20.5993 19.2132 13.3501 17.13 6.58006C16.5232 4.62653 15.733 2.73475 14.77 0.930037C14.61 0.630037 14.31 1.52003 14.43 1.74003V1.78007Z" fill="black"/>
</svg>
