<svg width="19" height="38" viewBox="0 0 19 38" fill="none" xmlns="http://www.w3.org/2000/svg">
<path d="M18.53 4.32001C17.9541 13.5488 15.576 22.5754 11.53 30.89C10.62 32.75 9.62001 34.57 8.53001 36.35C8.40227 36.5595 8.356 36.8086 8.40001 37.05C8.46001 37.2 8.53001 37.29 8.65001 37.05C13.3366 29.2521 16.5152 20.6425 18.02 11.67C18.436 9.15631 18.723 6.62303 18.88 4.08002C18.88 3.40002 18.51 3.86003 18.49 4.28003L18.53 4.32001Z" fill="black"/>
<path d="M7.10997 4.38993C4.60205 10.1737 3.75709 16.5423 4.67 22.7799C4.67 22.9999 4.81 22.9399 4.92 22.7799C5.04531 22.5732 5.09146 22.3281 5.04997 22.0899C4.20428 16.293 4.99035 10.3751 7.31999 4.99991C7.42999 4.73991 7.31997 3.85992 7.10997 4.43992V4.38993Z" fill="black"/>
<path d="M11.29 23.9301C13.7971 18.1497 14.6421 11.7845 13.73 5.55012C13.73 5.33012 13.59 5.39012 13.48 5.55012C13.3512 5.75554 13.3015 6.00075 13.34 6.24012C14.2122 12.0687 13.429 18.0251 11.08 23.4301C10.97 23.6901 11.08 24.5701 11.29 23.9801V23.9301Z" fill="black"/>
<path d="M4.71 1.00005C1.34971 7.33514 0.0526241 14.5618 1.00001 21.67C1.27357 23.6888 1.73559 25.6775 2.38001 27.61C2.45001 27.83 2.61001 27.61 2.66001 27.48C2.75915 27.2674 2.78039 27.0267 2.72001 26.8C1.38021 22.7051 0.874001 18.3834 1.23124 14.0897C1.58847 9.79595 2.80191 5.61726 4.79999 1.80004C4.92876 1.59462 4.97853 1.3494 4.94001 1.11004C4.88001 0.960038 4.80001 0.850038 4.69001 1.11004L4.71 1.00005Z" fill="black"/>
</svg>
