<svg width="43" height="64" viewBox="0 0 43 64" fill="none" xmlns="http://www.w3.org/2000/svg">
<path d="M20.13 21.2401C20.57 23.4001 19.59 25.9401 17.13 26.1701C16.1921 26.2179 15.2582 26.0174 14.4225 25.589C13.5868 25.1607 12.8788 24.5194 12.37 23.7301C11.3912 22.0566 11.0477 20.0867 11.4021 18.1807C11.7564 16.2747 12.7851 14.5599 14.3 13.3501C15.7784 12.2774 17.4743 11.5424 19.2678 11.1968C21.0614 10.8512 22.9089 10.9036 24.68 11.3501C26.4594 11.8075 28.1119 12.6624 29.5131 13.8506C30.9144 15.0389 32.0279 16.5294 32.77 18.2101C33.8435 20.3952 34.2904 22.8351 34.0609 25.2588C33.8314 27.6826 32.9346 29.9953 31.47 31.9401C31.33 32.1401 31.29 33.1001 31.58 32.6801C32.9798 30.7331 33.9066 28.4866 34.2868 26.1189C34.6669 23.7512 34.49 21.3275 33.77 19.0401C33.1763 17.0494 32.1066 15.2333 30.6535 13.7489C29.2004 12.2644 27.4075 11.1562 25.43 10.5201C21.48 9.36007 16.53 10.1201 13.53 13.1001C10.76 15.8601 9.91002 21.0501 11.97 24.4501C13.15 26.4001 15.97 27.8701 18.14 26.8101C20.31 25.7501 20.98 22.8101 20.52 20.5701C20.42 20.0801 20.09 20.9801 20.14 21.2201L20.13 21.2401Z" fill="black"/>
<path d="M20.15 21.3199C20.7227 22.49 20.895 23.8158 20.6402 25.0933C20.3854 26.3708 19.7177 27.5292 18.74 28.39C17.8278 29.1714 16.7094 29.6728 15.5192 29.8343C14.3289 29.9957 13.1174 29.8101 12.03 29.2999C7.02998 27.0199 6.21999 20.5399 7.68999 15.8499C8.3961 13.6407 9.56363 11.6066 11.1152 9.88263C12.6668 8.15864 14.567 6.78407 16.69 5.84995C18.7624 5.01805 20.9894 4.64108 23.2202 4.7446C25.451 4.84812 27.6335 5.4297 29.62 6.44995C32.2769 7.69886 34.657 9.4669 36.62 11.6499C38.9611 14.3422 40.5481 17.606 41.22 21.1099C42.0097 24.9772 41.7109 28.9878 40.3567 32.6953C39.0026 36.4029 36.6463 39.662 33.55 42.1099C32.13 43.1899 30.62 44.1099 29.14 45.1099C27.2055 46.4019 25.3397 47.7938 23.55 49.2799C19.5388 52.6469 15.9584 56.496 12.89 60.7399C12.36 61.4699 11.89 62.2099 11.35 62.9699C11.22 63.1599 11.19 64.13 11.46 63.71C14.4037 59.2939 17.8873 55.2627 21.83 51.7099C23.8932 49.853 26.078 48.1359 28.37 46.5699C29.99 45.4599 31.67 44.4199 33.25 43.2399C36.8027 40.5984 39.4421 36.9137 40.8 32.7C42.0525 28.8524 42.3477 24.7574 41.66 20.7699C41.0666 17.2871 39.5934 14.0137 37.38 11.2599C35.3178 8.79264 32.7409 6.80621 29.83 5.43994C27.6982 4.33996 25.3415 3.74612 22.943 3.7045C20.5445 3.66288 18.1687 4.1746 16 5.19995C13.8897 6.28451 12.0249 7.79131 10.5213 9.62683C9.01784 11.4624 7.90776 13.5874 7.26 15.8699C5.9 20.5799 6.36998 26.9499 10.93 29.7999C11.9676 30.4806 13.1788 30.8491 14.4197 30.8615C15.6606 30.8739 16.879 30.5298 17.93 29.8699C18.9023 29.1974 19.6994 28.3017 20.2544 27.2578C20.8094 26.2138 21.1062 25.0521 21.12 23.8699C21.2053 22.7014 20.9774 21.5312 20.46 20.4799C20.3 20.1699 20 21.0599 20.12 21.2899L20.15 21.3199Z" fill="black"/>
<path d="M20.1499 21.32C21.9899 25.38 22.15 31.17 17.89 33.85C14.83 35.85 10.4799 35.13 7.42994 33.42C5.72597 32.3759 4.2693 30.9739 3.16078 29.3111C2.05225 27.6483 1.31837 25.7645 1.00996 23.79C0.0264207 19.2675 0.509815 14.5492 2.38997 10.32C4.37914 6.32362 7.69475 3.14231 11.7699 1.32001C12.0299 1.20001 12.0699 0.260012 11.8599 0.320012C8.13152 2.00903 5.01112 4.80135 2.91996 8.32001C0.56509 12.6453 -0.339285 17.6123 0.339948 22.49C0.809948 26.89 2.62996 31.29 6.40996 33.83C9.56996 35.95 14.4099 36.89 17.7999 34.75C22.4599 31.75 22.5499 24.97 20.4899 20.44C20.3499 20.13 20.0399 21.02 20.1499 21.25V21.32Z" fill="black"/>
</svg>
