<svg width="21" height="22" viewBox="0 0 21 22" fill="none" xmlns="http://www.w3.org/2000/svg">
<path d="M7.68001 12.85C6.87661 11.1427 6.72719 9.2001 7.26003 7.39002C7.54403 6.59795 8.0403 5.89915 8.6946 5.37007C9.3489 4.84098 10.136 4.50197 10.97 4.39002C11.7108 4.34391 12.4505 4.49445 13.1144 4.82636C13.7782 5.15828 14.3425 5.65978 14.75 6.28004C15.6814 7.77587 16.1348 9.51999 16.05 11.28C16.05 13.08 15.95 14.85 14.23 15.83C12.9222 16.5412 11.3968 16.7408 9.95003 16.39C8.47131 16.035 7.13497 15.24 6.11736 14.1099C5.09974 12.9798 4.44864 11.5677 4.25002 10.06C3.99663 8.42648 4.25227 6.75454 4.98222 5.27137C5.71218 3.7882 6.88104 2.56573 8.33 1.77003C9.04999 1.39555 9.83767 1.16897 10.6466 1.10371C11.4555 1.03844 12.2693 1.13582 13.04 1.39002C14.5023 1.9586 15.7456 2.97776 16.59 4.3C17.5361 5.80332 18.2382 7.44701 18.67 9.16999C19.008 10.0941 19.1314 11.083 19.0309 12.0618C18.9304 13.0407 18.6087 13.9838 18.09 14.82C17.228 16.0875 16.0389 17.098 14.6489 17.7442C13.2589 18.3904 11.7199 18.6483 10.1951 18.4904C8.67044 18.3325 7.21694 17.7647 5.98888 16.8474C4.76081 15.93 3.804 14.6973 3.22002 13.28C2.53961 11.3559 2.37752 9.28663 2.75002 7.28004C2.85992 6.33874 3.05064 5.40861 3.32002 4.50001C3.58629 3.7166 3.79353 2.91433 3.94002 2.09998C3.94002 2.00998 4.03 1.59003 3.86 1.58003C3.69 1.57003 3.60001 1.93004 3.59001 2.03004C3.40793 2.95532 3.16404 3.86735 2.86 4.76002C2.6193 5.6515 2.45208 6.56119 2.36 7.47999C2.02798 9.44673 2.12005 11.4617 2.63002 13.39C3.12712 14.9912 4.07728 16.4141 5.36568 17.4868C6.65407 18.5596 8.22557 19.2362 9.89028 19.4351C11.555 19.6339 13.2416 19.3464 14.7464 18.6072C16.2513 17.8681 17.5098 16.7091 18.37 15.27C19.3324 13.6636 19.6871 11.7655 19.37 9.91999C19.0421 7.88597 18.3655 5.92383 17.37 4.12C16.5356 2.50833 15.1779 1.22827 13.52 0.49C12.6525 0.161105 11.7229 0.0282269 10.798 0.100839C9.87304 0.173452 8.97562 0.449739 8.17003 0.909983C5.08003 2.62998 3.57001 6.47998 3.81001 9.90998C3.87197 11.6342 4.48967 13.2921 5.57097 14.6365C6.65227 15.981 8.13922 16.9398 9.81001 17.37C10.6384 17.5767 11.5013 17.6042 12.3411 17.4507C13.1809 17.2972 13.9783 16.9663 14.68 16.48C15.2923 15.9309 15.7737 15.2515 16.0886 14.4917C16.4036 13.732 16.5442 12.9113 16.5 12.09C16.6713 10.1457 16.3906 8.18796 15.68 6.37C15.3735 5.5939 14.8718 4.91001 14.2237 4.38447C13.5755 3.85893 12.8027 3.50952 11.98 3.37C8.03003 2.98 6.27002 7.47003 6.63002 10.71C6.75201 11.7064 7.00765 12.6818 7.39003 13.61C7.50003 13.91 7.82003 13.03 7.73003 12.8L7.68001 12.85Z" fill="black"/>
<path d="M10.84 4.99988C10.3888 5.25663 9.99912 5.60865 9.69798 6.03144C9.39684 6.45422 9.19152 6.93762 9.09632 7.44788C9.00113 7.95815 9.01834 8.48304 9.14677 8.98597C9.27521 9.4889 9.51177 9.95773 9.83998 10.3599C9.96998 10.4999 10.1 10.1299 10.12 10.0599C10.14 9.98988 10.25 9.57988 10.12 9.42988C9.86374 9.16989 9.67161 8.85381 9.55879 8.50666C9.44596 8.1595 9.41555 7.79082 9.46998 7.42988C9.5718 7.1051 9.7399 6.805 9.96366 6.54853C10.1874 6.29206 10.462 6.0848 10.77 5.93989C10.94 5.84989 10.99 5.52987 11.01 5.35987C11.03 5.18987 11.01 4.88986 10.86 4.97986L10.84 4.99988Z" fill="black"/>
<path d="M3.66008 1.29988C2.52111 3.44338 1.60626 5.69869 0.930068 8.02992C0.390068 10.3999 1.07007 12.5999 1.93007 14.8099C2.05007 15.1099 2.37007 14.2399 2.28007 13.9999C1.48007 11.8999 0.780088 9.81991 1.45009 7.58991C2.13173 5.62496 2.95038 3.71022 3.90007 1.85987C4.02007 1.58987 3.95008 0.719875 3.69008 1.29988H3.66008Z" fill="black"/>
<path d="M18.6 4.00008C19.3435 4.99015 19.8761 6.12211 20.1651 7.32607C20.454 8.53002 20.4931 9.78042 20.28 11.0001C20.28 11.1001 20.19 11.4901 20.36 11.5201C20.53 11.5501 20.61 11.1501 20.63 11.0701C20.9056 9.68802 20.8924 8.2639 20.5913 6.88716C20.2901 5.51043 19.7075 4.21084 18.88 3.07008C18.77 2.92008 18.62 3.32007 18.6 3.37007C18.5556 3.46915 18.5326 3.5765 18.5326 3.68507C18.5326 3.79365 18.5556 3.901 18.6 4.00008Z" fill="black"/>
<path d="M14.7999 19.7701C13.6147 20.3815 12.3029 20.7071 10.9694 20.721C9.63591 20.7349 8.31762 20.4366 7.11994 19.8501C6.93994 19.7701 6.64994 20.7001 6.92994 20.8501C8.1463 21.4368 9.48256 21.7324 10.8329 21.7133C12.1833 21.6942 13.5106 21.361 14.7099 20.7401C14.9599 20.6101 14.9899 19.6801 14.7999 19.7401V19.7701Z" fill="black"/>
</svg>
