<svg width="21" height="22" viewBox="0 0 21 22" fill="none" xmlns="http://www.w3.org/2000/svg">
<path d="M14 13.5299C15.24 10.3499 15.54 5.62985 11.91 3.84985C11.1423 3.46847 10.2745 3.33675 9.42812 3.47302C8.58177 3.6093 7.79921 4.00676 7.18999 4.60986C5.97431 5.88308 5.23293 7.53528 5.08998 9.28986C4.74511 11.1183 4.83417 13.0021 5.34999 14.7899C5.70025 15.5686 6.25946 16.2351 6.96556 16.7152C7.67167 17.1954 8.49702 17.4704 9.34999 17.5099C11.0305 17.6074 12.6959 17.145 14.0856 16.1951C15.4753 15.2451 16.5108 13.8612 17.03 12.2599C17.6319 10.6032 17.7805 8.81583 17.4605 7.08246C17.1406 5.34909 16.3636 3.73257 15.21 2.3999C14.5908 1.71156 13.84 1.15424 13.0018 0.760925C12.1636 0.367607 11.2551 0.146226 10.33 0.109863C9.45001 0.111919 8.57999 0.295999 7.77459 0.650513C6.96918 1.00503 6.24582 1.52231 5.64998 2.16986C4.35467 3.60792 3.3949 5.3157 2.83998 7.16986C2.03504 9.06055 1.75186 11.1325 2.01998 13.1699C2.44865 14.8466 3.38126 16.3515 4.69197 17.4816C6.00269 18.6117 7.62845 19.3126 9.34999 19.4899C10.9916 19.6614 12.6482 19.3657 14.129 18.6368C15.6099 17.9079 16.8547 16.7754 17.72 15.3699C18.6433 13.8624 19.1505 12.1372 19.19 10.3699C19.2787 8.40846 19.0627 6.44514 18.55 4.54987C18.2405 3.64027 17.99 2.71171 17.8 1.7699C17.8 1.5499 17.67 1.6099 17.55 1.7699C17.4272 1.98126 17.3813 2.22851 17.42 2.46985C17.65 3.95985 18.3 5.34985 18.5 6.84985C18.8801 8.73085 18.8801 10.6689 18.5 12.5499C18.0907 13.9297 17.3358 15.1822 16.3067 16.1885C15.2777 17.1948 14.0087 17.9215 12.62 18.2999C11.2127 18.6524 9.7397 18.6487 8.33419 18.2891C6.92868 17.9294 5.63496 17.2251 4.57 16.2399C3.33468 15.1431 2.52706 13.6447 2.29 12.0099C2.23739 10.032 2.68085 8.07238 3.57998 6.30988C4.85997 3.30988 7.47998 0.619849 11.02 1.21985C14.26 1.76985 16.52 4.67987 17.02 7.79987C17.3316 9.36355 17.1313 10.9861 16.4487 12.427C15.7661 13.8679 14.6374 15.0506 13.23 15.7999C10.71 17.0899 6.49 16.9299 5.51 13.7099C5.2763 12.7825 5.19191 11.8238 5.26 10.8699C5.2559 9.85563 5.39392 8.84582 5.67 7.86987C5.89277 6.99805 6.36216 6.20893 7.02193 5.59705C7.6817 4.98516 8.50389 4.57643 9.39 4.41986C10.2989 4.35905 11.2051 4.57249 11.9913 5.03247C12.7776 5.49245 13.4076 6.1778 13.8 6.99988C14.2238 7.94323 14.443 8.96568 14.443 9.99988C14.443 11.0341 14.2238 12.0565 13.8 12.9999C13.74 13.1499 13.6 13.5499 13.73 13.6899C13.86 13.8299 13.94 13.6899 14 13.5599V13.5299Z" fill="black"/>
<path d="M10.4801 6.00002C10.8117 6.16873 11.1058 6.40274 11.3446 6.688C11.5835 6.97327 11.7622 7.30389 11.8701 7.65999C11.9573 7.97799 11.9598 8.31331 11.8774 8.63258C11.7949 8.95186 11.6304 9.24399 11.4001 9.48C11.2608 9.67067 11.1935 9.9045 11.2101 10.14C11.2101 10.25 11.2701 10.53 11.4201 10.37C11.7831 9.94397 12.0504 9.44496 12.204 8.90669C12.3575 8.36843 12.3937 7.80347 12.3101 7.25002C12.2304 6.77585 12.0405 6.32705 11.7557 5.93971C11.4708 5.55238 11.099 5.23735 10.6701 5.02004C10.5001 4.93004 10.2101 5.86004 10.4801 6.02004V6.00002Z" fill="black"/>
<path d="M8.37007 9.91004C8.86817 10.8653 9.54747 11.7144 10.3701 12.41C10.5631 12.581 10.7909 12.708 11.0378 12.7823C11.2847 12.8565 11.5448 12.8763 11.8001 12.8401C12.3618 12.7247 12.8932 12.4931 13.3601 12.16C13.5129 12.0056 13.5991 11.7974 13.6001 11.5801C13.6001 11.5201 13.6001 11.0901 13.4501 11.1901C13.0249 11.5015 12.5423 11.7257 12.0301 11.85C11.7739 11.8964 11.5105 11.8826 11.2606 11.8097C11.0107 11.7368 10.7811 11.6068 10.5901 11.4301C9.83371 10.7728 9.20344 9.98322 8.73008 9.10004C8.63008 8.92004 8.51006 9.10005 8.46006 9.23005C8.3482 9.43869 8.32308 9.68299 8.39009 9.91004H8.37007Z" fill="black"/>
<path d="M17.43 2.00008C18.3485 3.83147 19.1598 5.71466 19.86 7.64009C20.2212 8.69008 20.3275 9.81089 20.17 10.9101C19.9515 12.0222 19.6164 13.1083 19.17 14.1501C19.11 14.3001 18.97 14.6901 19.1 14.8301C19.23 14.9701 19.31 14.8301 19.38 14.7001C20.19 12.5401 20.95 10.31 20.48 7.97005C20.01 5.63005 18.74 3.38008 17.75 1.19008C17.62 0.89008 17.31 1.77008 17.41 2.00008H17.43Z" fill="black"/>
<path d="M2.61999 3.10995C1.75853 4.2776 1.1455 5.60945 0.818718 7.02322C0.491934 8.43699 0.458329 9.90272 0.719994 11.33C0.719994 11.52 0.869994 11.53 0.969994 11.33C1.09876 11.1246 1.1485 10.8793 1.10998 10.64C0.887452 9.47875 0.907625 8.28406 1.16921 7.13101C1.4308 5.97795 1.92816 4.89148 2.63 3.93997C2.76926 3.7493 2.83657 3.51552 2.82 3.27999C2.82 3.18999 2.74999 2.86996 2.61999 3.05996V3.10995Z" fill="black"/>
<path d="M6.52 20.74C7.72154 21.3555 9.04948 21.684 10.3994 21.6997C11.7494 21.7153 13.0845 21.4176 14.3 20.83C14.55 20.7 14.59 19.76 14.39 19.83C13.1901 20.4112 11.8713 20.7048 10.5382 20.6874C9.20508 20.67 7.89435 20.3422 6.71 19.73C6.54 19.64 6.24 20.57 6.52 20.73V20.74Z" fill="black"/>
</svg>
