<svg width="18" height="50" viewBox="0 0 18 50" fill="none" xmlns="http://www.w3.org/2000/svg">
<path d="M3.99998 8.24992C0.563813 15.1522 -0.464098 23.0058 1.07997 30.5599C1.52784 32.6848 2.18092 34.7612 3.02998 36.7599C3.15998 37.0599 3.46998 36.1799 3.36998 35.9499C1.51748 31.6676 0.62383 27.0321 0.751659 22.368C0.879488 17.704 2.0257 13.1243 4.10997 8.94993C4.23873 8.7445 4.2885 8.49929 4.24998 8.25993C4.18998 8.11993 4.09998 7.99993 3.99998 8.25993V8.24992Z" fill="black"/>
<path d="M7.45002 10.14C7.9254 15.99 6.82383 21.8604 4.26002 27.14C4.13002 27.4 4.19001 28.27 4.47001 27.69C7.20399 22.0243 8.36777 15.7288 7.84 9.46004C7.84 9.24004 7.69 9.31004 7.59 9.46004C7.46381 9.67017 7.41435 9.91749 7.45002 10.16V10.14Z" fill="black"/>
<path d="M14.6701 0.919901C17.0024 7.8778 17.6871 15.2823 16.6701 22.5499C16.6701 22.6699 16.67 22.9599 16.82 22.9399C16.97 22.9199 17.04 22.4699 17.06 22.3599C18.1075 14.8838 17.4023 7.26659 15 0.109903C14.93 -0.110097 14.7701 0.109908 14.7301 0.239908C14.6222 0.449757 14.5972 0.692482 14.66 0.919901H14.6701Z" fill="black"/>
<path d="M14.9999 26.9999C15.3299 31.3199 11.9999 34.73 9.91994 38.15C7.85421 41.4328 6.8616 45.2774 7.07992 49.15C7.07992 49.79 7.48994 48.9999 7.47994 48.7199C7.34715 46.6302 7.62226 44.5346 8.28994 42.5499C9.02748 40.5852 10.0373 38.7337 11.2899 37.0499C13.4299 33.9399 15.7199 30.5699 15.4099 26.5999C15.3599 25.9599 14.9899 26.7499 15.0099 27.0399L14.9999 26.9999Z" fill="black"/>
</svg>
