<svg width="18" height="50" viewBox="0 0 18 50" fill="none" xmlns="http://www.w3.org/2000/svg">
<path d="M14.12 9.00013C17.3721 15.5162 18.3575 22.9309 16.92 30.0701C16.4975 32.1285 15.8676 34.1387 15.04 36.0701C14.93 36.3401 15.04 37.2201 15.25 36.6301C18.2155 29.5969 18.7642 21.7786 16.81 14.4002C16.2405 12.2651 15.453 10.1942 14.46 8.2201C14.31 7.9101 14.01 8.80016 14.12 9.03016V9.00013Z" fill="black"/>
<path d="M8.31999 2.99985C6.41605 9.10613 5.9944 15.5782 7.08998 21.8799C7.63693 25.0076 8.5638 28.0568 9.84999 30.9599C11.1 33.7799 12.68 36.4598 14.04 39.2298C15.7275 42.3056 16.6919 45.7255 16.86 49.2298C16.86 49.3998 16.86 49.5299 17.07 49.4499C17.28 49.3699 17.26 48.9298 17.26 48.7898C17.26 42.7898 13.89 37.5798 11.26 32.3698C8.36427 26.7201 6.8657 20.4584 6.89 14.1098C6.93248 10.4361 7.50849 6.78801 8.59999 3.27988C8.71999 2.88988 8.50998 2.27987 8.30998 2.95987L8.31999 2.99985Z" fill="black"/>
<path d="M3.38003 0.350105C0.949287 7.56258 0.23032 15.2418 1.28003 22.7802C1.28003 23.0002 1.42003 22.9401 1.53003 22.8301C1.65622 22.62 1.70571 22.3726 1.67004 22.1301C0.662554 14.9218 1.3473 7.57792 3.67004 0.680122C3.80004 0.280122 3.60003 -0.319895 3.38003 0.350105Z" fill="black"/>
<path d="M3.00004 26.8401C2.69004 30.8401 5.00004 34.1101 7.16004 37.2501C8.38477 38.924 9.36773 40.7621 10.08 42.7101C10.7624 44.7158 11.0477 46.8353 10.92 48.9501C10.92 49.6301 11.29 49.1701 11.32 48.7601C11.5347 44.9044 10.5268 41.0793 8.44004 37.8301C6.30004 34.4301 3.06004 30.9501 3.44004 26.6401C3.50004 25.9601 3.09002 26.4201 3.05002 26.8401H3.00004Z" fill="black"/>
</svg>
