<svg width="25" height="15" viewBox="0 0 25 15" fill="none" xmlns="http://www.w3.org/2000/svg">
<path d="M24.56 3.99993C22.9867 6.64781 20.8412 8.91025 18.2803 10.6215C15.7195 12.3328 12.8083 13.4495 9.75996 13.8899C9.44996 13.9399 9.39996 14.8899 9.56996 14.8899C12.6856 14.4382 15.6602 13.2936 18.2751 11.5405C20.89 9.78744 23.0786 7.47045 24.6799 4.75994C24.8077 4.55046 24.854 4.30131 24.81 4.05993C24.75 3.91993 24.68 3.81993 24.56 4.05993V3.99993Z" fill="black"/>
<path d="M18.91 0.999867C14.0303 6.54252 7.51786 10.394 0.309997 11.9999C0.0599972 11.9999 -0.0499992 12.9999 0.220001 12.9999C7.47251 11.363 14.0215 7.47421 18.93 1.88988C19.0693 1.69921 19.1366 1.46538 19.12 1.22985C19.12 1.12985 19.06 0.829867 18.91 0.999867Z" fill="black"/>
<path d="M24.14 3.99993C22.5689 6.64754 20.4252 8.90994 17.866 10.6213C15.3068 12.3326 12.397 13.4495 9.35002 13.8899C9.04002 13.9399 8.98001 14.8899 9.15001 14.8899C12.2669 14.4423 15.2433 13.2995 17.8588 11.546C20.4744 9.79252 22.6621 7.47327 24.26 4.75994C24.3878 4.55046 24.434 4.30131 24.39 4.05993C24.33 3.91993 24.26 3.81993 24.14 4.05993V3.99993Z" fill="black"/>
</svg>
