<svg width="26" height="15" viewBox="0 0 26 15" fill="none" xmlns="http://www.w3.org/2000/svg">
<path d="M6.31006 1.86998C11.2069 7.46236 17.7502 11.3589 25.0001 13C25.2401 13 25.4501 12.08 25.1901 12C17.9796 10.3935 11.4641 6.54229 6.58005 0.999983C6.43005 0.839983 6.11005 1.70998 6.30005 1.92998L6.31006 1.86998Z" fill="black"/>
<path d="M1.00003 4.8399C2.5944 7.52145 4.7694 9.81165 7.36517 11.5422C9.96095 13.2727 12.9115 14.3995 16 14.8399C16.26 14.8399 16.44 13.8999 16.19 13.8399C13.1151 13.3944 10.1792 12.2647 7.59879 10.5341C5.01835 8.80338 2.85906 6.51582 1.28003 3.8399C1.19003 3.6799 1.01003 4.09989 1.00003 4.13989C0.957951 4.23958 0.936279 4.34669 0.936279 4.45489C0.936279 4.5631 0.957951 4.67021 1.00003 4.76989V4.8399Z" fill="black"/>
</svg>
