<svg width="22" height="47" viewBox="0 0 22 47" fill="none" xmlns="http://www.w3.org/2000/svg">
<path d="M17.61 8.00002C18.2897 13.3249 17.5359 18.7347 15.4264 23.671C13.3169 28.6072 9.92812 32.891 5.60996 36.08C4.08686 37.2239 2.46363 38.228 0.759982 39.08C0.509982 39.21 0.469986 40.15 0.669986 40.08C4.76342 38.0528 8.36935 35.1632 11.24 31.61C15.2881 26.5367 17.7012 20.3542 18.16 13.88C18.3251 11.7237 18.2749 9.55631 18.01 7.40999C18.01 7.18999 17.87 7.25999 17.76 7.40999C17.6312 7.61541 17.5814 7.86063 17.62 8.09999L17.61 8.00002Z" fill="black"/>
<path d="M20.9999 22.8C20.8473 26.6709 19.8774 30.4657 18.1539 33.9351C16.4304 37.4045 13.9924 40.4699 10.9999 42.93C9.99382 43.7656 8.93131 44.5307 7.81993 45.22C7.57993 45.37 7.55994 46.29 7.72994 46.22C14.1493 42.2285 18.7564 35.8884 20.5699 28.55C21.0636 26.5349 21.3451 24.4738 21.4099 22.4001C21.4099 22.2201 21.3599 22.1 21.1999 22.18C21.0399 22.26 21.0099 22.6901 20.9999 22.8401V22.8Z" fill="black"/>
<path d="M15.46 0.720007C10.7188 6.49695 8.02204 13.6802 7.79004 21.1501C7.79004 21.3301 7.79003 21.45 8.00003 21.38C8.21003 21.31 8.19003 20.86 8.19003 20.72C8.4413 13.7181 11.0008 6.99588 15.47 1.60001C15.6093 1.40934 15.6766 1.17557 15.66 0.940038C15.66 0.850038 15.6 0.540007 15.46 0.720007Z" fill="black"/>
</svg>
