<svg width="22" height="47" viewBox="0 0 22 47" fill="none" xmlns="http://www.w3.org/2000/svg">
<path d="M4.36993 7.73005C3.78717 12.4379 4.24113 17.2162 5.69995 21.73C7.6811 27.6982 11.4216 32.9273 16.4299 36.73C18.04 37.9514 19.7609 39.0193 21.5699 39.9201C21.7399 40.0001 22.0299 39.0701 21.7599 38.9201C16.9595 36.5303 12.8579 32.9406 9.85315 28.4991C6.84835 24.0576 5.04223 18.9151 4.60992 13.5701C4.45482 11.5302 4.50509 9.47991 4.75995 7.45008C4.75995 7.33008 4.75992 7.04007 4.60992 7.06007C4.45992 7.08007 4.37993 7.54008 4.36993 7.64008V7.73005Z" fill="black"/>
<path d="M0.939999 22.8C1.06392 26.8165 2.03169 30.762 3.78039 34.3801C5.5291 37.9981 8.01959 41.2076 11.09 43.8C12.1452 44.681 13.2613 45.4864 14.43 46.21C14.67 46.36 14.92 45.42 14.71 45.29C10.752 42.8917 7.45587 39.5427 5.12097 35.547C2.78607 31.5513 1.48639 27.0355 1.33999 22.41C1.33999 21.77 0.929999 22.56 0.939999 22.85V22.8Z" fill="black"/>
<path d="M6.76999 1.62994C11.3223 7.14298 13.9271 14.0048 14.18 21.15C14.18 21.79 14.59 20.9999 14.58 20.7199C14.3423 13.4039 11.6913 6.372 7.04001 0.719901C6.91001 0.559901 6.57999 1.41995 6.76999 1.64995V1.62994Z" fill="black"/>
</svg>
