<svg width="26" height="56" viewBox="0 0 26 56" fill="none" xmlns="http://www.w3.org/2000/svg">
<path d="M18.45 4.52996C20.9424 6.77836 22.747 9.68668 23.6549 12.9183C24.5628 16.1499 24.5368 19.5725 23.5799 22.7899C23.4599 23.1899 23.6599 23.7899 23.8699 23.1199C24.951 19.7144 25.0408 16.0716 24.1289 12.6169C23.217 9.1622 21.3409 6.03825 18.72 3.60992C18.54 3.43992 18.24 4.34996 18.45 4.52996Z" fill="black"/>
<path d="M8.48999 5.55005C7.89999 10.97 10.64 15.96 13.94 20.05C17.46 24.42 21.82 28.2901 24.1 33.5301C25.5063 36.4012 25.8602 39.6748 25.1 42.7801C24.98 43.1801 25.2 43.78 25.39 43.11C26.94 37.87 24.92 32.5 21.87 28.23C18.49 23.5 13.87 19.68 11.09 14.55C9.43116 11.7816 8.66641 8.56895 8.89999 5.35004C8.96999 4.67004 8.55 5.13005 8.5 5.55005H8.48999Z" fill="black"/>
<path d="M2.62 1.00011C1.74252 6.57202 2.0222 12.265 3.44159 17.724C4.86098 23.1831 7.38966 28.2912 10.87 32.7301C13.38 35.9801 16.22 38.9901 18.43 42.4701C20.85 46.2401 22.61 50.8801 21.61 55.4001C21.61 55.4901 21.53 55.9101 21.69 55.9201C21.85 55.9301 21.94 55.5701 21.96 55.4701C23.73 47.4701 18.35 40.5901 13.57 34.8001C10.954 31.8049 8.6893 28.5202 6.82001 25.0101C5.10621 21.5714 3.88425 17.9089 3.19 14.1301C2.39049 9.81912 2.31952 5.40458 2.98001 1.07012C2.98001 0.980117 3.07 0.570097 2.9 0.550097C2.73 0.530097 2.64 0.900109 2.62 1.00011Z" fill="black"/>
<path d="M0.859985 30.67C1.44738 38.2884 4.43365 45.5247 9.39001 51.3401C10.8121 53.0122 12.3928 54.5426 14.11 55.91C14.31 56.07 14.6 55.15 14.39 54.98C8.55719 50.2715 4.358 43.8432 2.39001 36.61C1.82011 34.5235 1.45175 32.387 1.29001 30.23C1.24001 29.59 0.870015 30.38 0.890015 30.67H0.859985Z" fill="black"/>
</svg>
