<svg width="26" height="56" viewBox="0 0 26 56" fill="none" xmlns="http://www.w3.org/2000/svg">
<path d="M7.78004 3.62988C5.12952 6.08668 3.22538 9.241 2.28614 12.7308C1.34691 16.2207 1.41065 19.9046 2.47004 23.3599C2.54004 23.5799 2.70003 23.3599 2.74003 23.2299C2.84788 23.02 2.87287 22.7773 2.81004 22.5499C1.84697 19.3845 1.80577 16.0103 2.69129 12.8224C3.57682 9.63456 5.3524 6.76499 7.81004 4.54987C7.99004 4.38987 8.05004 3.43986 7.81004 3.66986L7.78004 3.62988Z" fill="black"/>
<path d="M17.4799 5.77009C18.1399 11.7701 14.2599 16.9401 10.5599 21.1901C6.85993 25.4401 2.94993 29.4301 1.23993 34.8301C0.293794 37.5777 0.196233 40.5463 0.959928 43.35C1.02993 43.57 1.19993 43.3 1.23993 43.22C1.33907 43.0074 1.3603 42.7667 1.29992 42.5401C-0.390076 36.8201 2.83994 31.2201 6.34994 26.9401C9.85994 22.6601 14.0099 18.8201 16.3499 13.7001C17.6233 11.0334 18.1552 8.07319 17.89 5.13008C17.89 4.90008 17.75 4.97008 17.64 5.13008C17.5112 5.3355 17.4614 5.58071 17.4999 5.82008L17.4799 5.77009Z" fill="black"/>
<path d="M23.37 1.37011C24.5361 9.06601 23.4164 16.9349 20.15 24.0001C18.4171 27.5777 16.2326 30.9182 13.65 33.9401C11.11 37.0401 8.41999 40.0901 6.54999 43.6701C4.67999 47.2501 3.48002 51.6101 4.39002 55.7501C4.50002 56.2401 4.81999 55.3301 4.76999 55.1001C2.89999 46.5801 9.84001 39.6401 14.67 33.5901C17.0557 30.6541 19.0553 27.4245 20.62 23.9801C22.1376 20.5557 23.1902 16.9437 23.75 13.2401C24.3849 9.08757 24.3849 4.86268 23.75 0.710142C23.75 0.490142 23.61 0.540093 23.5 0.660093C23.3712 0.865517 23.3215 1.11073 23.36 1.3501L23.37 1.37011Z" fill="black"/>
<path d="M25.1099 30.55C24.7276 35.2972 23.3769 39.9158 21.141 44.1208C18.9052 48.3259 15.8317 52.0284 12.1099 55.0001C11.9199 55.1601 11.8499 56.1001 12.1099 55.8801C15.9563 52.7564 19.1257 48.8816 21.4245 44.4921C23.7232 40.1027 25.1031 35.2907 25.48 30.35C25.53 29.67 25.12 30.13 25.09 30.55H25.1099Z" fill="black"/>
</svg>
