<svg width="15" height="23" viewBox="0 0 15 23" fill="none" xmlns="http://www.w3.org/2000/svg">
<path d="M10.5301 7.0899C12.3084 7.0899 13.7501 5.64823 13.7501 3.86987C13.7501 2.09152 12.3084 0.649902 10.5301 0.649902C8.7517 0.649902 7.31006 2.09152 7.31006 3.86987C7.31006 5.64823 8.7517 7.0899 10.5301 7.0899Z" fill="black" stroke="black" stroke-miterlimit="10"/>
<path d="M8.99999 5.89017C8.69999 7.58017 7.05998 8.70016 5.67998 9.51016C4.31396 10.1758 3.06183 11.0533 1.96999 12.1101C0.98698 13.2967 0.468169 14.7999 0.509985 16.3402C0.449212 17.9129 0.819201 19.4723 1.57999 20.8501C2.41999 22.2401 4.23999 23.1601 5.74999 22.2301C5.98999 22.0801 6.00999 21.1601 5.83999 21.2301C3.96999 22.3801 2.05998 20.7001 1.42998 18.9801C0.709983 16.9801 0.549999 14.5302 2.04 12.9002C3.29 11.5402 5.03998 10.9002 6.54998 9.84018C7.25579 9.41041 7.86759 8.84254 8.34871 8.17068C8.82984 7.49882 9.17042 6.73676 9.35 5.93014C9.35 5.83014 9.43998 5.42018 9.26998 5.40018C9.09998 5.38018 9.01999 5.76014 8.99999 5.86014V5.89017Z" fill="black"/>
<path d="M9.28002 4.56989C10.28 8.46989 14.53 10.7399 14.45 15.0199C14.4448 16.1414 14.1254 17.2391 13.5279 18.1882C12.9305 19.1374 12.079 19.9002 11.07 20.3899C10.1257 20.7319 9.08438 20.6861 8.17369 20.2626C7.26301 19.8391 6.55701 19.0724 6.21001 18.1299C5.26001 15.7399 7.42003 13.5399 9.64003 13.0399C9.89003 12.9799 10 12.0399 9.73003 12.0399C8.65796 12.2986 7.68985 12.8771 6.95406 13.6986C6.21827 14.5201 5.74952 15.5459 5.61 16.6399C5.45477 17.7174 5.70261 18.8142 6.30602 19.7202C6.90943 20.6263 7.82599 21.2778 8.88002 21.5499C11.29 22.0499 13.3 19.9099 14.16 17.8899C14.6454 16.7827 14.8843 15.5831 14.8602 14.3745C14.836 13.1658 14.5493 11.9768 14.02 10.8899C12.77 8.43989 10.34 6.59989 9.66002 3.88989C9.54002 3.39989 9.22002 4.29986 9.28002 4.53986V4.56989Z" fill="black"/>
</svg>
