<svg width="15" height="23" viewBox="0 0 15 23" fill="none" xmlns="http://www.w3.org/2000/svg">
<path d="M4.82999 7.0899C6.60834 7.0899 8.04999 5.64823 8.04999 3.86987C8.04999 2.09152 6.60834 0.649902 4.82999 0.649902C3.05163 0.649902 1.60999 2.09152 1.60999 3.86987C1.60999 5.64823 3.05163 7.0899 4.82999 7.0899Z" fill="black" stroke="black" stroke-miterlimit="10"/>
<path d="M5.99996 6.24987C6.64996 9.96987 11.06 10.5399 13.25 13.0199C13.8829 13.8396 14.293 14.8092 14.4402 15.8343C14.5874 16.8594 14.4667 17.9052 14.09 18.8699C13.55 20.6299 11.63 22.4599 9.70995 21.2799C9.46995 21.1299 9.21995 22.0799 9.42995 22.2099C10.0467 22.546 10.7619 22.6551 11.4509 22.518C12.1398 22.3809 12.7588 22.0065 13.2 21.4599C14.1684 20.1901 14.7266 18.6551 14.7999 17.0599C15.0573 15.4837 14.7263 13.8679 13.87 12.5199C12.8755 11.3414 11.6369 10.3928 10.24 9.73986C8.60995 8.79986 6.72997 7.59985 6.37997 5.59985C6.29997 5.10985 5.95996 6.00987 5.99996 6.24987Z" fill="black"/>
<path d="M5.74998 4.08005C5.14998 6.51005 3.13998 8.21005 1.86998 10.27C1.23974 11.2661 0.818962 12.38 0.633283 13.5439C0.447604 14.7078 0.500931 15.8974 0.78999 17.04C1.36999 19.22 3.18998 21.7101 5.68998 21.6501C6.75998 21.5377 7.75625 21.0522 8.5041 20.2787C9.25196 19.5053 9.70365 18.4932 9.77998 17.42C9.87081 16.1946 9.51614 14.9776 8.78123 13.9928C8.04632 13.008 6.98057 12.3217 5.77998 12.06C5.53998 12.06 5.32998 12.99 5.58998 13.06C6.58352 13.2611 7.48767 13.7721 8.17231 14.5197C8.85696 15.2672 9.28679 16.2127 9.39998 17.22C9.47998 19.32 7.12999 20.99 5.15999 20.61C3.01999 20.2 1.53998 18.05 1.08998 16.04C0.559978 13.7 1.39998 11.72 2.77998 9.87002C4.15998 8.02002 5.51999 6.54001 6.03999 4.42001C6.03999 4.29001 6.18999 3.88001 6.03999 3.79001C5.88999 3.70001 5.77998 3.98006 5.74998 4.09006V4.08005Z" fill="black"/>
</svg>
