<svg width="23" height="21" viewBox="0 0 23 21" fill="none" xmlns="http://www.w3.org/2000/svg">
<path d="M21.929 1.47018C22.012 5.00118 21.457 8.51716 20.289 11.8502C19.314 14.6202 17.876 18.0382 14.983 19.2302C12.0896 20.4212 9.89281 17.6832 8.94921 15.1612C8.17561 13.1032 7.29381 9.96321 4.75671 9.49921C4.24691 9.39821 3.72041 9.42218 3.22181 9.56818C2.72321 9.71418 2.26711 9.97819 1.89221 10.3382C1.51731 10.6982 1.23461 11.1422 1.06801 11.6352C0.901512 12.1272 0.856012 12.6522 0.935512 13.1652C0.935512 13.5062 1.15211 13.4132 1.32221 13.1652C1.51751 12.8402 1.59401 12.4582 1.53881 12.0822C1.53881 11.7112 2.25051 11.3092 2.54441 11.1702C3.03021 10.9542 3.56091 10.8582 4.09141 10.8912C4.74171 11.0022 5.35441 11.2722 5.87531 11.6772C6.39611 12.0822 6.80901 12.6092 7.07721 13.2122C8.33031 15.4392 8.62431 18.4102 10.6818 20.0962C12.7394 21.7822 15.215 20.8082 16.87 19.1372C18.81 16.9992 20.22 14.4332 20.985 11.6492C22.103 8.15217 22.626 4.49119 22.532 0.820189C22.532 -0.169811 21.898 1.05217 21.913 1.48517L21.929 1.47018Z" fill="black"/>
</svg>
