<svg width="23" height="21" viewBox="0 0 23 21" fill="none" xmlns="http://www.w3.org/2000/svg">
<path d="M0.647971 1.46915C0.587971 4.60315 0.977974 7.72917 1.80797 10.7522C2.48397 13.7272 3.82698 16.5101 5.73698 18.8891C7.36198 20.6531 9.91398 21.8591 12.08 20.2351C14.246 18.6101 14.602 15.9651 15.608 13.7531C15.843 13.0291 16.272 12.3831 16.847 11.8841C17.422 11.3861 18.122 11.0532 18.872 10.9222C19.862 10.9222 21.811 11.4632 21.672 12.7632C21.548 13.8152 22.198 13.1031 22.275 12.4691C22.33 12.0161 22.275 11.5562 22.113 11.1302C21.952 10.7032 21.691 10.3212 21.35 10.0172C21.01 9.71318 20.601 9.49613 20.159 9.38413C19.717 9.27313 19.254 9.26915 18.81 9.37515C16.335 9.74615 15.267 12.7011 14.556 14.7271C13.643 17.2651 11.91 20.3742 8.69198 19.1982C5.82998 18.1462 4.29897 14.9132 3.29297 12.2682C1.86497 8.58116 1.18197 4.64817 1.28197 0.696167C1.28197 0.417167 1.20498 0.216149 0.956976 0.340149C0.709976 0.464149 0.662971 1.14415 0.647971 1.36115V1.46915Z" fill="black"/>
</svg>
