<svg width="29" height="80" viewBox="0 0 29 80" fill="none" xmlns="http://www.w3.org/2000/svg">
<path d="M27.8512 11.194C21.0597 15.495 17.1767 22.766 14.6859 30.176C11.9322 38.391 10.9421 47.054 8.2348 55.269C6.7644 60.135 4.3283 64.655 1.072 68.558C0.856599 68.853 0.7525 69.215 0.7781 69.579C0.7781 69.734 0.778102 70.198 1.0875 69.919C12.6438 56.692 10.3697 37.432 18.5999 22.673C20.7571 18.638 23.8896 15.208 27.712 12.694C28.0987 12.447 28.1142 11.039 27.8512 11.147V11.194Z" fill="black"/>
<path d="M22.9626 5.65625C16.7744 12.1533 10.3697 19.3312 10.0603 28.8612C10.0603 29.1402 10.0603 29.3412 10.3852 29.2172C10.71 29.0932 10.6791 28.4132 10.6791 28.1962C10.9576 19.6102 17.4087 12.9112 22.9781 7.07924C23.2411 6.80024 23.3184 5.34625 22.9781 5.71825L22.9626 5.65625Z" fill="black"/>
<path d="M20.1933 0.983302C16.7108 2.9713 13.7249 5.72431 11.4605 9.03331C9.19612 12.3433 7.71241 16.1233 7.12091 20.0893C7.12091 20.2283 6.99712 20.8783 7.24472 20.8943C7.49222 20.9093 7.64691 20.3523 7.67781 20.1983C8.26511 16.4993 9.68401 12.9813 11.8278 9.9103C13.9716 6.8393 16.7843 4.2953 20.0541 2.4683C20.4409 2.2523 20.4718 0.813306 20.1933 0.921306V0.983302Z" fill="black"/>
<path d="M23.6278 34.2601C20.3171 39.1491 19.2806 45.0891 18.3679 50.8751C17.4242 56.9091 16.6197 63.5301 12.6438 68.4501C11.7804 69.6401 10.6836 70.6421 9.42019 71.3951C8.15679 72.1481 6.75329 72.6351 5.29539 72.8281C4.83129 72.8281 4.70749 74.3751 5.00149 74.3751C10.3387 73.9261 13.9897 68.9601 15.8307 64.3651C18.2131 58.3941 18.5535 51.9891 19.8685 45.6621C20.495 42.0311 21.8359 38.5601 23.8134 35.4511C24.0145 35.1421 24.0609 33.6571 23.6278 34.2911V34.2601Z" fill="black"/>
<path d="M25.3757 53.9231C24.8768 59.0571 23.5388 64.0741 21.4153 68.7741C19.4661 73.0751 16.2637 77.5461 11.1275 77.8711C10.6634 77.8711 10.5242 79.4181 10.8336 79.4181C16.2018 79.0621 19.5279 74.4211 21.6628 69.9501C24.0253 64.7931 25.5052 59.2761 26.0409 53.6291C26.1492 52.5771 25.4995 53.3041 25.4376 53.9381L25.3757 53.9231Z" fill="black"/>
</svg>
