<svg width="28" height="80" viewBox="0 0 28 80" fill="none" xmlns="http://www.w3.org/2000/svg">
<path d="M0.720932 12.6632C7.74493 17.1032 11.5499 24.7462 13.9789 32.4502C16.5319 40.6342 17.5529 49.2202 20.3839 57.3262C21.9039 61.9492 24.2929 66.2392 27.4229 69.9662C27.6389 70.2132 28.1349 68.8522 27.8409 68.5272C21.8849 61.6892 19.6099 52.7322 17.6919 44.0992C15.9439 36.1782 14.2729 28.1182 10.2039 21.0022C8.02693 17.0512 4.91395 13.6942 1.13895 11.2252C0.782947 10.9932 0.380932 12.4472 0.720932 12.6632Z" fill="black"/>
<path d="M5.53203 7.0631C11.303 13.0961 17.754 19.9501 18.032 28.7221C18.032 29.7271 18.667 28.4901 18.651 28.0561C18.357 18.7741 11.984 11.8431 5.96604 5.54709C5.71804 5.28409 5.22303 6.66109 5.53203 6.98609V7.0631Z" fill="black"/>
<path d="M8.44098 2.484C11.775 4.363 14.639 6.97401 16.817 10.12C18.996 13.265 20.432 16.865 21.018 20.646C21.018 20.987 21.235 20.894 21.405 20.646C21.604 20.329 21.681 19.949 21.622 19.579C21.027 15.694 19.558 11.995 17.326 8.76C15.094 5.52601 12.156 2.84002 8.73498 0.906016C8.50298 0.767016 8.02298 2.19001 8.44098 2.45301V2.484Z" fill="black"/>
<path d="M4.77395 35.5602C8.39395 40.8662 9.13695 47.4872 10.1269 53.6752C11.0709 59.4772 12.2459 65.7112 16.2219 70.2912C17.9909 72.5392 20.5769 73.9962 23.4159 74.3442C23.8489 74.3442 24.081 72.7972 23.71 72.7972C18.017 72.3172 14.4279 66.7172 12.7879 61.7972C10.7459 55.7792 10.514 49.3442 8.99795 43.2332C8.28495 39.9992 7.00195 36.9192 5.20695 34.1362C5.05295 33.9042 4.52695 35.2042 4.77395 35.5752V35.5602Z" fill="black"/>
<path d="M2.68606 54.2633C3.20206 59.7573 4.64504 65.1243 6.95604 70.1363C8.98204 74.5143 12.2771 79.0623 17.5221 79.4183C17.9551 79.4183 18.171 77.8713 17.816 77.8713C12.571 77.5303 9.33805 72.9673 7.34205 68.5893C5.15905 63.7453 3.78505 58.5773 3.27405 53.2883C3.27405 52.9333 3.05704 53.0413 2.88704 53.2113C2.69304 53.5313 2.62106 53.9103 2.68606 54.2793V54.2633Z" fill="black"/>
</svg>
