<svg width="39" height="102" viewBox="0 0 39 102" fill="none" xmlns="http://www.w3.org/2000/svg">
<path d="M36.5119 0.526127C28.6499 -0.0698734 20.8459 2.26713 14.6059 7.08513C11.5869 9.37713 9.15295 12.3511 7.50495 15.7641C5.94795 19.3221 5.05094 23.1331 4.85994 27.0111C4.73594 29.0271 4.76694 31.0491 4.95194 33.0601C5.26494 35.4091 5.18195 37.7941 4.70495 40.1151C3.69895 44.1831 2.24495 48.1751 2.32195 52.4911C2.32195 57.0391 4.39494 61.2011 5.13794 65.6251C5.57394 68.7081 5.52095 71.8411 4.98295 74.9071C4.34895 78.9611 3.43594 82.9831 2.75594 87.0361C1.97194 91.7801 1.37394 96.5611 0.960943 101.377C0.867943 102.429 1.50294 101.718 1.56394 101.068C1.91994 96.8291 2.43094 92.5901 3.11094 88.3821C3.66794 84.8551 4.41095 81.3741 5.06095 77.8621C5.68295 74.8471 6.02994 71.7821 6.09694 68.7041C5.90294 65.0761 5.22194 61.4911 4.07094 58.0451C3.35494 55.7821 2.97894 53.4251 2.95694 51.0521C3.07194 48.8811 3.44594 46.7301 4.07094 44.6471C4.59694 42.6981 5.24594 40.7491 5.61794 38.7531C5.86494 36.7551 5.86494 34.7341 5.61794 32.7351C4.95194 24.5981 6.26695 16.2751 12.378 10.3961C15.556 7.42312 19.3189 5.14312 23.4249 3.70212C27.5319 2.26112 31.8939 1.69112 36.2329 2.02712C36.6669 2.02712 36.8829 0.480121 36.5269 0.480121L36.5119 0.526127Z" fill="black"/>
<path d="M24.414 25.7892C23.842 23.2832 22.759 19.4772 19.51 19.6012C17.468 19.6012 16.509 21.8752 16.06 23.5772C14.931 27.8782 17.004 32.0702 20.036 35.0872C21.654 36.7132 23.706 37.8402 25.947 38.3342C28.188 38.8282 30.523 38.6672 32.675 37.8722C37.61 35.7832 38.77 29.8272 38.105 25.0472C37.685 21.9782 36.511 19.0612 34.689 16.5552C32.867 14.0502 30.453 12.0352 27.663 10.6902C27.384 10.5662 26.951 12.0052 27.369 12.2372C29.53 13.2842 31.463 14.7492 33.056 16.5472C34.649 18.3442 35.871 20.4392 36.651 22.7112C38.09 26.8412 38.353 32.3332 34.578 35.3342C31.484 37.8412 26.518 37.5622 23.114 35.7212C21.473 34.7852 20.036 33.5292 18.888 32.0282C17.74 30.5262 16.905 28.8102 16.431 26.9802C16.075 25.2482 16.431 22.3392 18.148 21.4112C18.801 21.1582 19.517 21.1192 20.192 21.3002C20.868 21.4802 21.469 21.8722 21.908 22.4172C22.912 23.7042 23.553 25.2372 23.764 26.8572C23.934 27.6302 24.445 26.2222 24.368 25.8672L24.414 25.7892Z" fill="black"/>
</svg>
