<svg width="38" height="102" viewBox="0 0 38 102" fill="none" xmlns="http://www.w3.org/2000/svg">
<path d="M2.19979 2.04207C10.0092 1.44207 17.764 3.75706 23.967 8.54006C27.099 10.9141 29.57 14.0511 31.145 17.6521C32.637 21.3961 33.383 25.3951 33.342 29.4251C33.342 31.5751 33.017 33.7101 32.955 35.8451C32.91 37.8091 33.155 39.7691 33.682 41.6621C34.827 45.9941 36.312 50.2941 35.554 54.8271C34.842 58.9891 33.11 62.8871 32.738 67.1111C32.544 69.9961 32.7 72.8951 33.202 75.7431C33.837 79.7031 34.749 83.6331 35.399 87.5931C36.173 92.2341 36.745 96.9991 37.163 101.733C37.163 102.089 37.379 101.981 37.55 101.733C37.743 101.413 37.815 101.034 37.751 100.666C37.379 96.349 36.869 92.0491 36.204 87.7791C35.631 84.1431 34.873 80.5541 34.208 76.9501C33.547 73.8541 33.246 70.6931 33.311 67.5281C33.543 63.2741 35.275 59.3751 36.049 55.1521C36.64 51.1301 36.29 47.0261 35.028 43.1621C34.282 40.9731 33.794 38.7041 33.574 36.4021C33.574 34.1741 33.868 31.9621 33.945 29.7341C34.27 21.9991 32.088 14.0471 26.364 8.66406C23.17 5.71806 19.404 3.46406 15.299 2.03906C11.1948 0.615064 6.84079 0.053056 2.50909 0.387056C2.04499 0.387056 1.92129 1.93407 2.21519 1.93407L2.19979 2.04207Z" fill="black"/>
<path d="M14.87 26.346C15.055 24.929 15.586 23.579 16.417 22.416C16.829 21.888 17.388 21.493 18.024 21.281C18.66 21.069 19.344 21.05 19.991 21.225C21.367 21.736 21.955 23.515 22.218 24.83C22.976 28.62 19.867 32.8431 16.881 34.9471C15.276 36.0821 13.407 36.788 11.4528 36.999C9.49831 37.211 7.52221 36.9201 5.71151 36.1541C1.30241 34.0191 0.451515 28.667 1.36431 24.319C1.94721 21.681 3.12761 19.211 4.81451 17.101C6.50151 14.99 8.65011 13.294 11.0952 12.144C11.4974 11.959 11.5593 10.504 11.2344 10.597C8.74791 11.803 6.55261 13.534 4.80051 15.67C3.04831 17.807 1.78091 20.2991 1.08581 22.9731C-0.136289 27.6151 -0.105387 33.803 4.17991 36.897C8.06301 39.62 13.833 38.691 17.376 35.845C20.919 32.998 23.564 28.4651 22.837 24.0721C22.559 22.3861 21.801 19.864 19.851 19.508C16.216 18.843 14.839 23.53 14.251 26.16C14.05 27.042 14.591 27.15 14.793 26.269L14.87 26.346Z" fill="black"/>
</svg>
