<svg width="23" height="26" viewBox="0 0 23 26" fill="none" xmlns="http://www.w3.org/2000/svg">
<path d="M14.085 16.9211C13.959 17.1221 13.783 17.2871 13.574 17.4011C13.366 17.5141 13.132 17.5731 12.894 17.5701C12.606 17.5971 12.315 17.5551 12.046 17.4481C11.777 17.3401 11.537 17.1701 11.347 16.9521C10.979 16.4571 10.791 15.8521 10.813 15.2361C10.836 14.6201 11.068 14.0301 11.471 13.5641C11.776 12.9201 12.266 12.3811 12.879 12.0171C13.178 11.8491 13.524 11.7861 13.862 11.8361C14.201 11.8871 14.514 12.0481 14.751 12.2951C15.156 12.7531 15.48 13.2761 15.71 13.8421C16.036 14.5181 16.315 15.2161 16.545 15.9311C16.834 16.5391 16.904 17.2281 16.743 17.8821C16.583 18.5361 16.201 19.1141 15.663 19.5201C15.427 19.7591 15.294 20.0811 15.292 20.4171C15.292 20.5101 15.292 21.1751 15.524 21.0201C16.216 20.4781 16.754 19.7651 17.085 18.9511C17.416 18.1371 17.529 17.2501 17.412 16.3791C17.321 15.3391 17.049 14.3241 16.607 13.3781C16.309 12.5221 15.887 11.7141 15.354 10.9801C15.112 10.6661 14.776 10.4361 14.395 10.3251C14.014 10.2141 13.608 10.2261 13.235 10.3611C12.38 10.7901 11.694 11.4931 11.285 12.3571C10.728 13.1271 10.368 14.0221 10.239 14.9641C10.109 15.9051 10.214 16.8641 10.543 17.7561C10.712 18.1301 10.983 18.4501 11.325 18.6771C11.667 18.9041 12.066 19.0301 12.477 19.0401C12.885 19.0281 13.281 18.8951 13.614 18.6581C13.947 18.4211 14.202 18.0911 14.348 17.7101C14.516 17.3851 14.55 17.0071 14.441 16.6581C14.287 16.3791 14.101 16.6581 14.024 16.8591L14.085 16.9211Z" fill="black"/>
<path d="M5.76304 9.27819C4.37004 11.9552 2.90104 14.9402 3.58104 18.0342C3.85504 19.4552 4.63104 20.7292 5.76704 21.6242C6.90404 22.5192 8.32504 22.9752 9.76904 22.9082C10.637 22.9012 11.4981 22.7602 12.3221 22.4902C12.7241 22.3352 12.833 20.9432 12.461 20.9432C11.292 21.4072 10.012 21.5182 8.78004 21.2622C7.54904 21.0062 6.41905 20.3952 5.53105 19.5042C4.57405 18.4222 4.06004 17.0192 4.09204 15.5752C4.34804 13.7242 5.00304 11.9502 6.01004 10.3772C6.20404 10.0572 6.27504 9.6782 6.21104 9.3092C6.21104 9.0622 5.97904 8.93819 5.82504 9.23219L5.76304 9.27819Z" fill="black"/>
<path d="M7.604 24.099C4.649 24.253 2.112 21.005 1.168 18.499C0.618996 16.852 0.542995 15.086 0.947995 13.399C1.352 11.711 2.222 10.171 3.457 8.95299C4.496 7.81099 5.773 6.90998 7.198 6.31398C8.622 5.71698 10.16 5.44099 11.703 5.50299C13.246 5.80599 14.682 6.50999 15.865 7.54599C17.041 8.38499 18.084 9.39698 18.959 10.547C20.062 12.065 20.608 13.916 20.507 15.79C20.405 17.663 19.662 19.445 18.402 20.835C18.186 21.13 18.082 21.491 18.108 21.856C18.108 22.01 18.185 22.474 18.433 22.196C19.586 20.864 20.409 19.279 20.836 17.57C21.264 15.861 21.283 14.075 20.893 12.357C20.073 8.90698 16.963 6.09099 13.869 4.52899C10.775 2.96599 6.28899 4.82298 3.82899 7.15898C2.51199 8.44198 1.491 9.99698 0.837003 11.715C0.182003 13.432 -0.0900086 15.272 0.0379914 17.106C0.236991 19.185 1.063 21.154 2.405 22.753C2.94 23.582 3.662 24.274 4.515 24.771C5.367 25.269 6.32499 25.558 7.30999 25.615C7.77399 25.615 7.913 24.068 7.604 24.068V24.099Z" fill="black"/>
<path d="M14.2561 2.16194C15.3411 2.08194 16.4301 2.23594 17.4501 2.61494C18.4701 2.99394 19.3961 3.58893 20.1651 4.35893C20.9181 5.12193 21.4891 6.04693 21.8351 7.06193C22.1801 8.07693 22.2921 9.15694 22.1611 10.2219C22.1611 10.3769 22.1611 10.8869 22.3931 10.8099C22.6251 10.7329 22.7331 10.1139 22.7641 9.91293C22.9461 8.72793 22.8721 7.51893 22.5471 6.36593C22.2211 5.21293 21.6521 4.14294 20.8771 3.22894C20.0911 2.34294 19.1111 1.64894 18.0141 1.20094C16.9171 0.752939 15.7321 0.562931 14.5501 0.645931C14.0861 0.645931 13.9461 2.19293 14.2561 2.19293V2.16194Z" fill="black"/>
</svg>
