<svg width="24" height="26" viewBox="0 0 24 26" fill="none" xmlns="http://www.w3.org/2000/svg">
<path d="M9.20819 17.9731C9.36139 18.2801 9.59129 18.5421 9.87569 18.7351C10.1601 18.9271 10.4893 19.0431 10.8315 19.0711C11.1737 19.0991 11.5174 19.0381 11.8292 18.8951C12.1411 18.7511 12.4106 18.5291 12.6117 18.2511C13.1433 17.4871 13.4511 16.5901 13.5003 15.6611C13.5495 14.7311 13.3382 13.8071 12.8902 12.9911C12.2095 11.6451 10.6779 9.3561 8.94529 10.6711C8.32639 11.2321 7.84929 11.9321 7.55289 12.7131C7.07509 13.7041 6.69679 14.7411 6.42359 15.8071C6.00589 17.6011 6.14509 19.9531 7.83139 21.0671C8.20269 21.2991 8.60489 19.8441 8.26459 19.6281C7.77089 19.2891 7.37899 18.8221 7.13089 18.2761C6.88289 17.7311 6.78809 17.1291 6.85679 16.5341C6.95709 15.7921 7.17649 15.0711 7.50649 14.3991C7.74919 13.7691 8.04959 13.1631 8.40379 12.5891C8.56259 12.3271 8.79209 12.1161 9.06579 11.9791C9.33949 11.8421 9.64629 11.7851 9.95079 11.8151C10.3059 11.9051 10.6395 12.0641 10.9318 12.2851C11.2241 12.5061 11.4692 12.7821 11.6526 13.0991C12.2559 13.9811 13.2924 15.5751 12.7045 16.6581C12.5525 16.9211 12.3338 17.1401 12.0703 17.2921C11.8069 17.4441 11.5081 17.5241 11.2039 17.5241C10.8997 17.5241 10.6009 17.4441 10.3375 17.2921C10.0741 17.1401 9.85539 16.9211 9.70329 16.6581C9.57949 16.3331 9.34749 16.6581 9.28559 16.8591C9.12709 17.1861 9.08869 17.5581 9.17729 17.9111L9.20819 17.9731Z" fill="black"/>
<path d="M17.5468 10.4851C19.001 13.2541 20.8729 16.8121 18.4131 19.5971C17.517 20.4761 16.3841 21.0741 15.153 21.3191C13.922 21.5631 12.6463 21.4431 11.4824 20.9741C11.1575 20.8661 10.7708 22.3511 11.1885 22.5211C12.1716 22.8891 13.2242 23.0351 14.2704 22.9461C15.3165 22.8581 16.3299 22.5381 17.2373 22.0101C18.3103 21.2211 19.1528 20.1601 19.6778 18.9361C20.2028 17.7121 20.391 16.3701 20.2231 15.0491C19.8865 12.9951 19.1563 11.0251 18.0727 9.24708C17.8252 8.78308 17.3611 10.1601 17.5468 10.5161V10.4851Z" fill="black"/>
<path d="M16.108 25.6149C19.4961 25.7849 22.2962 21.825 23.1934 18.947C23.7378 17.146 23.8379 15.24 23.4849 13.392C23.132 11.543 22.3366 9.80796 21.1668 8.33496C19.001 5.59596 15.1025 3.39896 11.5134 4.06496C9.76979 4.57796 8.17709 5.50696 6.87219 6.77196C5.40579 7.89296 4.23279 9.35296 3.45329 11.026C2.64769 12.862 2.37429 14.8859 2.66419 16.8699C2.95419 18.8529 3.79589 20.715 5.09319 22.242C5.32519 22.49 5.82029 21.1279 5.52629 20.8039C4.43269 19.6289 3.68939 18.172 3.38049 16.598C3.07159 15.023 3.20929 13.393 3.77819 11.893C4.47479 10.451 5.50329 9.19395 6.77939 8.22595C7.90449 7.19595 9.19669 6.36396 10.6006 5.76596C13.4781 4.79196 16.9125 6.21495 19.1093 8.05595C20.3946 9.09795 21.4241 10.421 22.1187 11.922C22.8132 13.424 23.1545 15.0649 23.1161 16.7189C22.9167 18.5729 22.1183 20.311 20.842 21.67C20.3474 22.387 19.6932 22.98 18.9308 23.401C18.1684 23.823 17.3187 24.061 16.4484 24.099C16.0152 24.099 15.8141 25.646 16.1545 25.646L16.108 25.6149Z" fill="black"/>
<path d="M9.4558 0.646103C8.2355 0.562103 7.0123 0.764106 5.8841 1.23711C4.756 1.70911 3.754 2.43911 2.9583 3.36911C2.1458 4.36411 1.5489 5.5181 1.2054 6.7561C0.861795 7.9941 0.779197 9.2901 0.962597 10.5621C0.962597 10.8721 1.1947 10.8721 1.3494 10.5621C1.5323 10.2381 1.603 9.8631 1.5505 9.4951C0.947096 5.1631 5.0468 1.76011 9.1619 2.08511C9.595 2.08511 9.8116 0.537109 9.4558 0.537109V0.646103Z" fill="black"/>
</svg>
