<svg width="29" height="54" viewBox="0 0 29 54" fill="none" xmlns="http://www.w3.org/2000/svg">
<path d="M27.5467 6.96309C25.6014 20.1461 21.075 32.8161 14.2267 44.2471C12.6797 46.8001 11.0398 49.2901 9.29168 51.7041C9.07508 52.0131 9.01319 53.4981 9.46179 52.8641C17.1446 42.2521 22.7554 30.2851 25.9996 17.5911C26.8841 14.1231 27.5915 10.6121 28.1191 7.07207C28.1191 6.93207 28.2429 6.29808 27.9953 6.26708C27.7478 6.23608 27.5931 6.80909 27.5622 6.96309H27.5467Z" fill="black"/>
<path d="M11.2565 5.67928C6.94272 13.6563 4.94412 22.6793 5.48602 31.7313C5.48602 32.7373 6.12032 31.5153 6.10482 31.0663C5.58202 22.6453 7.43112 14.2473 11.4421 6.8243C11.6359 6.5043 11.7074 6.12528 11.6432 5.75728C11.5504 5.52528 11.4266 5.35428 11.2565 5.67928Z" fill="black"/>
<path d="M14.7835 34.423C19.0993 26.442 21.098 17.413 20.554 8.356C20.554 7.366 19.9042 8.58803 19.9351 9.03603C20.4563 17.457 18.6073 25.855 14.5979 33.278C14.404 33.598 14.3326 33.977 14.3967 34.346C14.4896 34.578 14.6133 34.748 14.7835 34.346V34.423Z" fill="black"/>
<path d="M12.6951 18.5662C12.0911 27.7612 9.12303 36.6442 4.07823 44.3552C3.87703 44.6652 3.83063 46.1502 4.24833 45.5152C9.55723 37.3632 12.6742 27.9802 13.2985 18.2722C13.2985 17.2052 12.7415 17.9162 12.6951 18.5662Z" fill="black"/>
<path d="M8.1623 0.666996C4.6139 6.206 2.2084 12.399 1.0873 18.882C-0.0338976 25.364 0.152004 32.005 1.6338 38.415C1.804 39.173 2.3145 37.78 2.2217 37.424C0.814102 31.382 0.636503 25.117 1.6996 19.005C2.7627 12.892 5.0447 7.05499 8.4099 1.84299C8.611 1.53299 8.6574 0.0480018 8.2397 0.698002L8.1623 0.666996Z" fill="black"/>
</svg>
