<svg width="29" height="54" viewBox="0 0 29 54" fill="none" xmlns="http://www.w3.org/2000/svg">
<path d="M0.545981 7.52015C2.52898 20.8531 7.09498 33.6702 13.99 45.2532C15.537 47.8982 17.269 50.4822 19.079 52.9882C19.25 53.2202 19.776 51.9202 19.513 51.5492C11.974 41.1612 6.45898 29.4472 3.25298 17.0192C2.36098 13.5592 1.65798 10.0522 1.14898 6.51517C1.14898 6.17517 0.932976 6.25217 0.762976 6.43717C0.562976 6.75517 0.485981 7.13516 0.545981 7.50516V7.52015Z" fill="black"/>
<path d="M17.0991 6.88594C21.2081 14.4279 23.121 22.9709 22.622 31.5459C22.622 32.5979 23.1941 31.902 23.2251 31.252C23.7831 22.354 21.8491 13.477 17.6411 5.61696C17.3781 5.15296 16.9131 6.52994 17.0991 6.88594Z" fill="black"/>
<path d="M14.283 33.2632C10.187 25.7162 8.27998 17.1762 8.77598 8.6032C8.77598 7.5512 8.20398 8.2472 8.15698 8.8972C7.60498 17.7962 9.54398 26.6732 13.758 34.5312C14.02 34.9962 14.469 33.6192 14.283 33.2632Z" fill="black"/>
<path d="M15.413 18.7523C16.018 28.3393 19.093 37.6073 24.339 45.6553C24.494 45.8873 25.02 44.6033 24.772 44.2163C19.664 36.3953 16.654 27.3923 16.032 18.0713C15.954 17.0813 15.382 18.3033 15.413 18.7523Z" fill="black"/>
<path d="M20.255 1.93505C23.634 7.20605 25.922 13.1 26.985 19.27C28.048 25.44 27.8639 31.7601 26.4429 37.8581C26.4429 37.9971 26.304 38.631 26.567 38.662C26.83 38.693 26.954 38.1051 26.985 37.9501C28.482 31.5981 28.688 25.0091 27.591 18.5751C26.493 12.1411 24.114 5.99406 20.595 0.497061C20.456 0.265061 19.9299 1.54905 20.1779 1.93505H20.255Z" fill="black"/>
</svg>
