<svg width="46" height="53" viewBox="0 0 46 53" fill="none" xmlns="http://www.w3.org/2000/svg">
<path d="M1.30976 43.306C3.05056 45.914 5.38316 48.074 8.11736 49.609C10.8517 51.144 13.9101 52.012 17.0432 52.14C17.4763 52.14 17.6774 50.593 17.3371 50.593C14.2306 50.47 11.1976 49.612 8.48686 48.09C5.77606 46.568 3.46496 44.425 1.74296 41.837C1.57276 41.589 1.32516 42.223 1.29426 42.301C1.22556 42.454 1.19006 42.62 1.19006 42.788C1.19006 42.956 1.22556 43.122 1.29426 43.275L1.30976 43.306Z" fill="black"/>
<path d="M15.9291 31.642C15.0482 26.9 14.7675 22.066 15.0937 17.254C15.118 16.134 15.39 15.032 15.8902 14.029C16.3904 13.026 17.1064 12.147 17.9867 11.453C19.5351 10.311 21.4 9.67802 23.324 9.64302C32.173 9.41102 37.247 18.585 37.417 26.397C37.524 28.485 37.2161 30.574 36.5091 32.542C35.8031 34.509 34.7131 36.317 33.3021 37.861C32.0151 39.204 30.445 40.244 28.705 40.905C26.966 41.566 25.101 41.832 23.247 41.682C21.38 41.378 19.604 40.666 18.0451 39.596C16.486 38.527 15.1825 37.126 14.2275 35.494C13.0284 33.538 12.0331 31.464 11.2571 29.306C10.4264 27.284 9.70845 25.218 9.10675 23.118C7.90005 18.739 7.66795 13.681 10.8085 10.03C13.7497 7.07901 17.4404 4.988 21.483 3.981C23.47 3.301 25.583 3.07102 27.669 3.30702C29.756 3.54202 31.7641 4.23702 33.5501 5.34202C36.8241 7.60602 39.3411 10.802 40.7741 14.516C41.6221 16.578 42.3051 18.704 42.8171 20.874C43.4301 23.092 43.809 25.369 43.946 27.666C44.051 30.059 43.4251 32.428 42.1511 34.457C40.9711 36.23 39.6021 37.869 38.0671 39.346C35.2111 42.55 31.745 45.153 27.872 47.004C25.954 47.86 23.877 48.303 21.777 48.303C19.676 48.303 17.5995 47.86 15.6817 47.004C8.64265 43.801 3.92415 36.36 2.26885 29.012C1.40665 25.191 1.30585 21.238 1.97215 17.378C2.63845 13.519 4.05875 9.82802 6.15185 6.51802C7.28715 4.72602 8.59275 3.04702 10.0503 1.50502C10.3133 1.22702 10.3907 -0.226988 10.0503 0.129012C7.02585 3.32201 4.66235 7.08202 3.09595 11.191C1.52945 15.301 0.790946 19.68 0.922846 24.077C1.00945 28.191 1.95245 32.241 3.69185 35.97C5.43115 39.7 7.92875 43.025 11.0251 45.735C12.7271 47.251 14.7355 48.382 16.9139 49.052C19.0921 49.722 21.389 49.915 23.649 49.618C28.227 48.638 32.418 46.336 35.7 42.997C38.949 39.996 42.4451 36.592 43.8691 32.307C45.4161 27.759 44.2551 22.839 43.0641 18.384C42.0561 13.802 39.8701 9.56201 36.7211 6.08501C35.2111 4.48401 33.347 3.26 31.278 2.511C29.209 1.761 26.994 1.50702 24.809 1.76802C22.454 2.12002 20.162 2.80802 18.0021 3.81102C15.9645 4.65102 14.0536 5.77001 12.3245 7.13701C10.7366 8.56401 9.49384 10.333 8.68984 12.311C7.88584 14.289 7.54175 16.424 7.68345 18.554C7.80715 23.411 9.71005 28.238 11.6285 32.647C13.3457 36.608 15.8672 40.584 19.982 42.394C21.844 43.129 23.862 43.381 25.847 43.126C27.832 42.872 29.721 42.12 31.338 40.939C34.657 38.489 36.9061 34.855 37.6191 30.791C39.3361 22.592 36.365 11.84 27.733 8.79201C25.795 8.02701 23.6671 7.88902 21.6471 8.39702C19.6261 8.90502 17.8162 10.033 16.4705 11.623C15.3404 13.283 14.6828 15.219 14.5678 17.223C14.359 19.828 14.359 22.446 14.5678 25.051C14.7062 27.599 15.0006 30.136 15.4495 32.647C15.5888 33.405 16.1147 32.013 16.0374 31.642H15.9291Z" fill="black"/>
<path d="M18.2033 17.9042C18.3125 17.3002 18.5988 16.7422 19.026 16.3022C19.453 15.8612 20.001 15.5571 20.601 15.4291C21.71 15.1701 22.873 15.3011 23.896 15.8001C26.134 17.1051 27.768 19.2392 28.445 21.7412C29.357 24.2472 29.837 27.2632 28.352 29.6612C27.789 30.6382 26.97 31.4432 25.983 31.9882C24.996 32.5342 23.878 32.7992 22.752 32.7552C22.318 32.7552 22.086 34.3022 22.442 34.3022C27.377 34.7052 30.054 29.4452 29.914 25.1902C29.775 20.9362 27.176 13.8202 21.947 13.8512C20.79 13.8872 19.691 14.3692 18.8805 15.1962C18.0702 16.0242 17.6114 17.1331 17.6 18.2911C17.6 19.3431 18.1724 18.6311 18.2033 17.9811V17.9042Z" fill="black"/>
<path d="M31.214 29.0743C30.908 30.5153 30.311 31.8783 29.46 33.0803C28.608 34.2833 27.521 35.2993 26.264 36.0663C23.773 37.6133 20.168 37.8923 18.3272 35.2003C18.157 34.9523 17.9095 35.5873 17.894 35.6643C17.8289 35.8183 17.7954 35.9843 17.7954 36.1513C17.7954 36.3193 17.8289 36.4843 17.894 36.6393C19.952 39.6553 24.082 39.0213 26.681 37.1963C29.338 35.2743 31.155 32.4053 31.755 29.1823C31.755 29.0123 31.895 28.4083 31.632 28.3623C31.369 28.3163 31.245 28.9343 31.214 29.0743Z" fill="black"/>
<path d="M45.013 34.983C44.559 39.374 42.518 43.448 39.274 46.441C36.03 49.435 31.806 51.142 27.393 51.243C26.929 51.243 26.774 52.79 27.099 52.79C31.964 52.657 36.593 50.664 40.032 47.22C43.294 43.826 45.269 39.4 45.617 34.705C45.694 33.653 45.06 34.364 45.013 35.014V34.983Z" fill="black"/>
<path d="M26.913 6.76607C28.702 6.47207 30.538 6.79607 32.118 7.68507C33.698 8.57307 34.929 9.97307 35.607 11.6541C35.731 11.9641 35.963 11.6541 36.025 11.4531C36.184 11.1261 36.222 10.7541 36.133 10.4011C35.457 8.65308 34.202 7.18808 32.579 6.25108C30.955 5.31408 29.059 4.96107 27.207 5.24907C26.727 5.32707 26.65 6.79607 26.913 6.79607V6.76607Z" fill="black"/>
</svg>
