<svg width="45" height="53" viewBox="0 0 45 53" fill="none" xmlns="http://www.w3.org/2000/svg">
<path d="M44.108 42.0223C42.389 44.5733 40.092 46.6823 37.403 48.1773C34.715 49.6723 31.711 50.5102 28.637 50.6242C28.173 50.6242 28.018 52.1712 28.343 52.1712C31.511 52.0342 34.602 51.1492 37.363 49.5902C40.125 48.0312 42.478 45.8403 44.231 43.1983C44.439 42.8843 44.517 42.5013 44.448 42.1313C44.371 41.8523 44.231 41.7753 44.061 42.0533L44.108 42.0223Z" fill="black"/>
<path d="M30.355 32.199C31.3 27.157 31.591 22.014 31.221 16.898C31.153 14.709 30.352 12.606 28.947 10.927C27.565 9.52803 25.78 8.59802 23.842 8.26602C21.691 8.00002 19.509 8.28702 17.501 9.09902C15.492 9.91102 13.724 11.222 12.363 12.907C9.61702 16.3 7.995 20.463 7.721 24.819C7.248 29.086 8.188 33.391 10.398 37.072C11.477 38.787 12.932 40.236 14.652 41.307C16.373 42.379 18.314 43.047 20.33 43.26C30.123 44.111 34.361 32.74 36.697 25.206C38.043 20.859 38.755 15.924 36.945 11.654C35.135 7.38402 31.252 5.14102 27.369 3.59402C23.006 1.76802 18.164 0.85603 13.724 2.97503C9.98401 4.93703 7.01 8.09602 5.277 11.948C3.209 16.297 1.88102 20.961 1.34802 25.747C0.962016 28.014 1.11501 30.339 1.79501 32.535C2.47501 34.731 3.662 36.735 5.262 38.387C10.986 45.116 19.866 52.604 29.287 48.968C37.115 45.952 42.174 37.768 44.015 29.924C45.246 24.685 45.152 19.222 43.742 14.028C42.333 8.83404 39.651 4.07301 35.939 0.175011C35.707 -0.0729888 35.212 1.28904 35.522 1.61404C41.19 7.51504 44.327 15.399 44.262 23.582C44.212 27.395 43.382 31.157 41.823 34.637C40.264 38.117 38.009 41.241 35.197 43.817C32.178 46.772 28.128 48.437 23.903 48.458C19.549 48.082 15.432 46.313 12.161 43.415C10.561 42.09 9.04202 40.669 7.61302 39.16C6.13902 37.719 4.82601 36.122 3.69901 34.395C1.05401 30.156 1.673 25.484 2.786 20.859C3.634 16.493 5.46502 12.377 8.13902 8.82302C9.34602 7.27302 10.856 5.98602 12.577 5.03902C14.298 4.09202 16.194 3.50603 18.148 3.31503C22.522 3.29603 26.813 4.51402 30.525 6.82702C32.368 7.74602 33.959 9.10202 35.159 10.776C36.359 12.451 37.131 14.393 37.409 16.434C37.981 21.075 36.218 25.577 34.563 29.785C33.015 33.746 31.02 37.814 27.322 40.181C25.762 41.158 23.981 41.727 22.143 41.838C20.306 41.949 18.469 41.597 16.803 40.816C15.032 40.007 13.451 38.836 12.162 37.378C10.872 35.921 9.90201 34.209 9.31501 32.353C6.68501 24.618 9.42301 14.114 17.437 10.695C19.199 9.88403 21.159 9.59801 23.079 9.87301C25 10.147 26.801 10.97 28.266 12.242C29.765 13.795 30.626 15.854 30.679 18.012C30.834 20.356 30.834 22.707 30.679 25.051C30.544 27.475 30.26 29.887 29.829 32.276C29.829 32.431 29.705 33.065 29.968 33.096C30.231 33.127 30.355 32.539 30.386 32.384L30.355 32.199Z" fill="black"/>
<path d="M28.127 17.7181C28.091 17.0691 27.905 16.4371 27.584 15.8731C27.262 15.3081 26.813 14.8261 26.273 14.4641C25.733 14.1021 25.116 13.8711 24.471 13.7891C23.826 13.7071 23.171 13.7761 22.558 13.9901C19.464 14.8721 17.793 18.0431 16.787 20.8431C15.545 23.7661 15.462 27.0511 16.555 30.0331C17.073 31.3011 17.965 32.3811 19.111 33.1301C20.258 33.8791 21.606 34.2611 22.975 34.2251C23.439 34.2251 23.563 32.6781 23.269 32.6781C22.173 32.7331 21.081 32.4991 20.104 32.0001C19.127 31.5001 18.297 30.7521 17.7 29.8321C16.978 28.6351 16.545 27.2861 16.435 25.8921C16.325 24.4981 16.541 23.0981 17.066 21.8031C17.886 19.3271 19.324 16.6661 21.877 15.6141C24.012 14.7641 27.384 15.6141 27.508 18.3371C27.508 19.3271 28.142 18.1051 28.127 17.6571V17.7181Z" fill="black"/>
<path d="M13.94 29.6311C14.242 31.2271 14.866 32.7461 15.773 34.0941C16.679 35.4431 17.851 36.5931 19.216 37.4741C21.923 39.1761 25.713 39.4081 27.694 36.5001C27.891 36.1751 27.963 35.7901 27.895 35.4171C27.895 35.1381 27.694 35.0761 27.508 35.3391C25.605 38.1391 21.676 37.4281 19.278 35.7881C16.828 34.1041 15.126 31.5371 14.528 28.6251C14.528 28.3161 14.312 28.3311 14.142 28.5481C13.952 28.8751 13.881 29.2571 13.94 29.6311Z" fill="black"/>
<path d="M0.109954 35.3243C0.456954 39.8933 2.43295 44.1873 5.67895 47.4213C9.07495 50.7223 13.585 52.6273 18.319 52.7593C18.767 52.7593 18.968 51.2123 18.613 51.2123C14.076 51.0713 9.74695 49.2723 6.44595 46.1573C3.14495 43.0413 1.09995 38.8243 0.697951 34.3033C0.697951 33.9473 0.480958 34.0553 0.310958 34.2253C0.116958 34.5453 0.0459535 34.9243 0.109954 35.2933V35.3243Z" fill="black"/>
<path d="M18.813 5.24903C16.911 4.96203 14.968 5.33504 13.307 6.30604C11.646 7.27704 10.368 8.78805 9.68599 10.587C9.52399 10.918 9.48498 11.297 9.57798 11.654C9.73198 11.933 9.93398 11.654 10.011 11.453C10.688 9.82604 11.901 8.47905 13.448 7.63505C14.996 6.79105 16.785 6.50005 18.52 6.81205C18.906 6.81205 19.2 5.35805 18.813 5.26505V5.24903Z" fill="black"/>
</svg>
