<svg width="32" height="65" viewBox="0 0 32 65" fill="none" xmlns="http://www.w3.org/2000/svg">
<path d="M12.8109 31.863C11.7589 35.174 12.5325 39.97 15.719 41.872C18.906 43.775 20.902 39.691 21.567 37.138C22.49 33.69 22.399 30.048 21.304 26.65C20.399 23.627 18.762 20.875 16.539 18.636C14.1568 16.408 11.0164 15.944 8.51021 18.249C6.17851 20.759 4.67211 23.923 4.19401 27.315C3.59881 31.326 3.89461 35.42 5.06031 39.304C5.70661 42.375 6.74661 45.349 8.15441 48.153C9.71201 51.32 12.2741 53.882 15.441 55.44C16.346 55.897 17.353 56.114 18.366 56.071C19.379 56.028 20.364 55.725 21.227 55.192C22.637 54.201 23.763 52.856 24.491 51.294C26.36 47.349 27.267 43.018 27.136 38.654C27.086 29.993 24.964 21.469 20.948 13.794C19.358 10.833 17.542 7.99902 15.518 5.31602C14.8994 4.46502 14.2497 3.63 13.6927 2.732C13.5071 2.407 13.3988 2.06701 13.2286 1.75801C13.0585 1.44801 13.2286 1.572 13.2286 1.572C13.2286 1.572 13.1358 1.97402 13.1513 2.00502C13.1667 2.03602 13.1513 1.92802 13.2751 1.92802C13.3988 1.92802 13.7082 1.77301 13.9093 1.75801C14.1714 1.72701 14.4362 1.72701 14.6983 1.75801C15.456 1.86801 16.198 2.06502 16.911 2.34602C18.8 3.08702 20.579 4.081 22.201 5.3C25.375 7.67 27.815 10.887 29.24 14.583C31.245 20.151 31.741 26.15 30.679 31.971C30.586 32.575 30.478 33.178 30.354 33.766C30.354 33.921 30.215 34.555 30.478 34.586C30.741 34.617 30.865 34.029 30.896 33.874C33.139 23.2 31.7 10.313 22.14 3.568C20.7 2.526 19.142 1.65802 17.498 0.984019C16.397 0.421019 15.155 0.19001 13.9248 0.31901C12.3777 0.65901 12.5015 2.54702 13.0584 3.63002C14.1647 5.47502 15.395 7.24202 16.74 8.92002C18.912 11.984 20.758 15.266 22.248 18.713C25.489 26.002 26.973 33.951 26.58 41.919C26.463 43.774 26.141 45.611 25.62 47.395C25.009 49.924 23.565 52.175 21.521 53.784C18.117 56.012 14.0176 53.46 11.6197 50.907C9.36271 48.34 7.70831 45.301 6.77751 42.012C5.72881 38.904 5.01321 35.694 4.64261 32.435C4.26351 28.582 5.17801 24.712 7.24161 21.436C8.05211 20.04 9.33651 18.98 10.8617 18.45C11.6315 18.255 12.4361 18.241 13.2121 18.41C13.988 18.58 14.714 18.927 15.333 19.425C17.786 21.45 19.611 24.134 20.592 27.16C21.835 30.32 22.041 33.792 21.18 37.077C21.067 37.825 20.799 38.541 20.395 39.18C19.99 39.819 19.457 40.367 18.829 40.789C16.787 41.764 14.8066 39.66 13.9867 37.989C13.1293 36.302 12.9201 34.359 13.3988 32.528C13.5844 31.925 13.275 30.981 12.9501 32.018L12.8109 31.863Z" fill="black"/>
<path d="M0.218197 33.843C0.372897 45.802 5.7875 60.406 18.303 64.258C18.659 64.366 19.015 62.881 18.612 62.711C6.4373 58.952 0.991694 44.812 0.836994 33.132C0.836994 32.869 0.836996 32.668 0.512096 32.791C0.187296 32.915 0.218197 33.596 0.218197 33.812V33.843Z" fill="black"/>
<path d="M30.37 43.28C30.485 47.085 30.01 50.884 28.962 54.543C28.003 57.219 25.868 60.452 22.681 60.39C22.232 60.39 22.047 61.937 22.387 61.937C25.899 62.015 28.189 58.379 29.271 55.486C30.547 51.325 31.127 46.981 30.989 42.63C30.989 42.367 30.989 42.166 30.664 42.29C30.339 42.414 30.37 43.079 30.37 43.311V43.28Z" fill="black"/>
</svg>
