<svg width="33" height="65" viewBox="0 0 33 65" fill="none" xmlns="http://www.w3.org/2000/svg">
<path d="M15.831 30.9503C16.412 30.9113 16.994 30.9913 17.542 31.1853C18.09 31.3793 18.593 31.6843 19.018 32.0803C20.565 33.8593 19.637 37.2163 18.446 38.8873C17.255 40.5583 15.166 41.6873 13.495 40.0783C12.493 38.9303 11.829 37.5273 11.577 36.0253C10.788 32.6563 11.114 29.1223 12.505 25.9543C13.712 23.0923 15.723 19.6423 18.802 18.4813C22.314 17.1513 24.99 20.2603 26.413 23.1223C28.153 26.7703 28.695 30.8753 27.96 34.8493C26.8 41.1763 24.99 48.7723 19.39 52.6403C17.914 53.8403 16.078 54.5103 14.176 54.5433C13.191 54.4313 12.244 54.0933 11.41 53.5573C10.576 53.0203 9.87605 52.2993 9.36505 51.4493C8.26805 49.7573 7.47304 47.8893 7.01304 45.9263C5.77104 39.8703 5.96704 33.6063 7.58604 27.6403C8.64204 23.0263 10.307 18.5723 12.536 14.3973C14.104 11.5943 15.862 8.90131 17.796 6.33731C18.985 5.08931 19.818 3.5453 20.21 1.8663C20.38 -0.469698 17.379 0.319306 16.048 0.845306C12.643 2.12631 9.59804 4.21229 7.17404 6.92529C4.74904 9.63829 3.01704 12.8973 2.12504 16.4243C0.781042 21.7303 0.576038 27.2613 1.52104 32.6523C1.59904 33.2253 1.70704 33.7823 1.83104 34.3383C1.95504 34.8953 2.49605 33.7043 2.41905 33.3333C1.34905 28.4533 1.27504 23.4063 2.20204 18.4973C2.90404 14.7123 4.60204 11.1823 7.12204 8.2713C9.74704 5.2303 13.214 3.03432 17.085 1.95932C17.487 1.79032 17.928 1.73529 18.359 1.80029C18.79 1.86629 19.195 2.04929 19.529 2.33029C19.529 2.25329 19.622 2.0363 19.529 2.1763C19.436 2.3153 19.421 2.42331 19.359 2.53131C19.146 2.92731 18.908 3.3103 18.647 3.6763C16.945 6.1513 15.089 8.51831 13.526 11.0873C8.93504 18.7603 6.22504 27.4123 5.62104 36.3343C5.16004 40.9603 5.75305 45.6303 7.35405 49.9943C8.77705 53.4133 11.5 56.9873 15.692 55.9353C19.146 54.7823 22.033 52.3603 23.768 49.1593C25.421 46.2603 26.635 43.1323 27.372 39.8773C28.612 35.9623 29.054 31.8373 28.672 27.7483C28.293 24.3003 26.849 21.0563 24.541 18.4663C23.994 17.8883 23.327 17.4363 22.586 17.1423C21.846 16.8483 21.051 16.7193 20.256 16.7643C18.73 16.9963 17.325 17.7313 16.265 18.8533C14.055 21.1343 12.416 23.9073 11.484 26.9443C10.286 30.4353 10.151 34.2043 11.098 37.7733C11.385 39.2893 12.112 40.6873 13.186 41.7953C13.852 42.3213 14.699 42.5623 15.542 42.4673C16.385 42.3713 17.156 41.9463 17.688 41.2853C19.106 39.7913 19.992 37.8723 20.21 35.8243C20.457 34.2773 20.535 31.7863 19.204 30.5793C18.318 29.8993 17.226 29.5443 16.11 29.5743C15.677 29.5743 15.46 31.1213 15.816 31.1213L15.831 30.9503Z" fill="black"/>
<path d="M31.874 33.8431C31.735 45.3531 26.29 59.0751 14.331 62.7571C13.929 62.8811 13.805 64.3041 14.192 64.3041C26.924 60.3751 32.339 45.3381 32.509 33.2091C32.509 32.9461 32.431 32.7451 32.184 32.8681C31.936 32.9921 31.89 33.6731 31.874 33.8901V33.8431Z" fill="black"/>
<path d="M1.73804 43.2799C1.57604 47.4619 2.09904 51.6429 3.28504 55.6559C4.32204 58.4719 6.58004 61.9839 9.96804 61.8449C10.417 61.8449 10.587 60.2979 10.262 60.2979C6.98303 60.3749 4.81704 57.0329 3.81104 54.3109C2.65504 50.4869 2.13204 46.4989 2.26404 42.5069C2.26404 41.5169 1.63004 42.7389 1.64504 43.1869L1.73804 43.2799Z" fill="black"/>
</svg>
