<svg width="29" height="31" viewBox="0 0 29 31" fill="none" xmlns="http://www.w3.org/2000/svg">
<path d="M18.136 0.507305C9.40499 7.9803 3.19199 17.9633 0.344995 29.0963C0.344995 29.2363 0.189989 30.4273 0.576989 30.0253C4.12499 26.4983 8.67599 24.1523 13.607 23.3083C18.538 22.4633 23.61 23.1613 28.129 25.3063C28.392 25.4303 28.841 23.9913 28.423 23.7593C23.843 21.6093 18.711 20.9253 13.727 21.8003C8.743 22.6743 4.15099 25.0663 0.576989 28.6483L0.808999 29.5763C3.609 18.7713 9.66999 9.0913 18.166 1.8533C18.46 1.6063 18.553 0.136305 18.166 0.492306L18.136 0.507305Z" fill="black"/>
<path d="M25.376 10.0991C23.338 10.3071 21.365 10.9321 19.579 11.9351C17.793 12.9391 16.233 14.2991 14.995 15.9311C14.79 16.2311 14.686 16.5891 14.701 16.9521C14.701 17.0761 14.809 17.5711 15.026 17.2931C16.224 15.7081 17.734 14.3861 19.464 13.4091C21.194 12.4321 23.106 11.8221 25.082 11.6151C25.546 11.6151 25.654 10.0681 25.376 10.0681V10.0991Z" fill="black"/>
</svg>
