<svg width="29" height="31" viewBox="0 0 29 31" fill="none" xmlns="http://www.w3.org/2000/svg">
<path d="M10.359 1.90017C18.949 9.23217 25.066 19.0382 27.872 29.9782L28.367 28.6322C24.79 25.0542 20.195 22.6692 15.21 21.8022C10.226 20.9352 5.09509 21.6302 0.520195 23.7902C0.117995 23.9912 0.0560887 25.4452 0.380989 25.3372C4.90579 23.2002 9.98 22.5112 14.911 23.3642C19.841 24.2172 24.389 26.5702 27.934 30.1022C28.274 30.4732 28.46 28.9262 28.413 28.7562C25.57 17.7582 19.42 7.89718 10.792 0.507183C10.499 0.260183 10.034 1.68318 10.359 1.94618V1.90017Z" fill="black"/>
<path d="M3.35151 11.6151C5.34241 11.8181 7.27001 12.4301 9.01401 13.4121C10.757 14.3951 12.279 15.7261 13.485 17.3241C13.67 17.5711 13.902 16.9521 13.933 16.8601C13.998 16.7051 14.032 16.5401 14.032 16.3721C14.032 16.2051 13.998 16.0391 13.933 15.8851C12.708 14.2691 11.164 12.9221 9.39701 11.9271C7.63031 10.9311 5.67791 10.3091 3.66101 10.0991C3.22781 10.0991 2.99571 11.6461 3.36701 11.6461L3.35151 11.6151Z" fill="black"/>
</svg>
