<svg width="41" height="48" viewBox="0 0 41 48" fill="none" xmlns="http://www.w3.org/2000/svg">
<path d="M32.165 0.317101C27.625 9.8981 19.652 17.4241 9.82537 21.4031C7.01887 22.5551 4.09227 23.3911 1.10017 23.8941C0.620569 23.8941 0.54327 25.4411 0.80627 25.4411C11.5993 23.5771 21.276 17.6681 27.864 8.9181C29.686 6.5151 31.242 3.9221 32.505 1.1831C32.691 0.781098 32.598 -0.5649 32.18 0.3321L32.165 0.317101Z" fill="black"/>
<path d="M35.367 9.7331C33.063 13.9031 29.936 17.5611 26.176 20.4861C22.416 23.4121 18.1 25.5431 13.4918 26.7501C13.1051 26.8431 12.9504 28.2971 13.3526 28.2971C18.049 27.0551 22.443 24.8701 26.267 21.8751C30.092 18.8801 33.267 15.1381 35.599 10.8771C35.793 10.5581 35.864 10.1781 35.8 9.81009C35.707 9.57809 35.584 9.4081 35.413 9.7331H35.367Z" fill="black"/>
<path d="M13.6619 28.2811C19.131 28.7211 24.36 30.7181 28.73 34.0361C33.047 37.4571 36.409 41.9331 38.492 47.0311C38.693 47.4961 39.188 46.1341 39.033 45.7781C36.924 40.6131 33.526 36.0751 29.163 32.5981C24.76 29.2421 19.488 27.2181 13.9713 26.7651C13.5381 26.7651 13.3061 28.3121 13.6619 28.3121V28.2811Z" fill="black"/>
<path d="M39.776 16.632C40.011 19.047 39.466 21.473 38.221 23.556C36.977 25.638 35.098 27.267 32.861 28.204C32.459 28.374 32.381 29.844 32.722 29.751C35.322 28.525 37.465 26.503 38.839 23.977C40.213 21.451 40.747 18.554 40.364 15.704C40.364 15.379 40.132 15.426 39.977 15.704C39.783 16.024 39.712 16.403 39.776 16.772V16.632Z" fill="black"/>
</svg>
