<svg width="41" height="48" viewBox="0 0 41 48" fill="none" xmlns="http://www.w3.org/2000/svg">
<path d="M8.12903 1.36908C12.711 11.1481 20.808 18.8431 30.809 22.9191C33.642 24.0721 36.594 24.9071 39.612 25.4101C40.014 25.4101 40.308 23.9561 39.921 23.8631C29.369 22.0331 19.885 16.3151 13.343 7.83508C11.517 5.43508 9.96103 2.84107 8.70203 0.100073C8.48503 -0.378927 8.00603 0.998071 8.17603 1.35307L8.12903 1.36908Z" fill="black"/>
<path d="M4.98901 10.9391C7.31601 15.1791 10.479 18.9011 14.287 21.8821C18.095 24.8631 22.469 27.0401 27.143 28.2821C27.514 28.3741 27.854 26.8741 27.436 26.7351C22.824 25.5271 18.505 23.3961 14.74 20.4711C10.974 17.5461 7.84101 13.8881 5.53001 9.71705C5.26701 9.25305 4.80301 10.63 4.98901 10.986V10.9391Z" fill="black"/>
<path d="M27.05 26.7661C21.421 27.2071 16.044 29.2821 11.579 32.7371C7.222 36.2421 3.83001 40.8001 1.72501 45.9801C1.55401 46.3821 1.72501 47.7431 2.05001 46.8311C4.12901 41.7391 7.512 37.2841 11.858 33.9131C16.176 30.6791 21.318 28.7281 26.694 28.2821C27.158 28.2821 27.282 26.7351 26.988 26.7351L27.05 26.7661Z" fill="black"/>
<path d="M0.347956 16.2921C-0.00204431 19.0231 0.532948 21.7931 1.87495 24.1971C3.21795 26.6001 5.29594 28.5091 7.80494 29.6431C8.09794 29.7671 8.53195 28.3131 8.11395 28.0961C5.78395 27.0821 3.83695 25.3521 2.55395 23.1581C1.27195 20.9631 0.721943 18.4181 0.981943 15.8901C0.981943 15.7041 0.981948 15.2711 0.749949 15.3021C0.517949 15.3331 0.393946 16.0451 0.378946 16.1991L0.347956 16.2921Z" fill="black"/>
</svg>
