<svg width="39" height="87" viewBox="0 0 39 87" fill="none" xmlns="http://www.w3.org/2000/svg">
<path d="M36.932 10.7473C37.907 21.6363 38.325 32.5673 38.185 43.4983C38.108 48.9593 37.907 54.4043 37.551 59.8653C37.211 65.0023 37.118 70.4633 35.648 75.4293C34.287 80.0703 30.574 85.2063 25.175 84.4943C24.773 84.4943 24.51 85.9643 24.881 86.0413C29.29 86.6143 32.941 83.0863 34.751 79.4203C37.087 74.7793 37.412 69.2713 37.845 64.1353C38.76 52.5513 39.049 40.9273 38.711 29.3113C38.526 22.7833 38.123 16.2553 37.551 9.75729C37.551 9.40129 37.319 9.50929 37.164 9.68029C36.961 10.0023 36.884 10.3873 36.948 10.7633L36.932 10.7473Z" fill="black"/>
<path d="M13.6805 12.4181C11.1356 18.7111 9.4044 25.3031 8.5288 32.0341C6.9818 43.4511 8.0493 55.3942 13.1699 65.8372C15.9614 71.5742 19.863 76.7011 24.649 80.9211C24.943 81.1841 25.392 79.7761 25.082 79.4821C16.4899 71.8431 10.8553 61.4292 9.1631 50.0572C7.838 40.3032 8.60261 30.3781 11.4063 20.9421C12.1332 18.3691 13.0008 15.8391 14.0053 13.3621C14.0982 13.1291 14.2993 12.5112 14.1137 12.2942C13.928 12.0772 13.7888 12.2941 13.6805 12.4951V12.4181Z" fill="black"/>
<path d="M32.214 34.8032C34.607 47.8042 33.084 61.2232 27.836 73.3552C27.666 73.7582 27.836 75.1191 28.161 74.2061C32.693 63.7961 34.61 52.4361 33.745 41.1151C33.56 38.6621 33.25 36.2202 32.817 33.7982C32.678 33.0402 32.152 34.4322 32.214 34.8032Z" fill="black"/>
<path d="M0.375977 1.68131C2.18598 17.1523 3.28437 32.6223 4.41367 48.0923C4.81587 53.6313 5.20268 59.2003 6.08448 64.6923C6.58478 68.6673 7.68538 72.5423 9.34878 76.1873C10.4506 78.4473 12.0095 80.4543 13.9267 82.0813C15.844 83.7083 18.078 84.9203 20.487 85.6393C20.828 85.7473 21.184 84.2623 20.781 84.0923C16.3813 82.7333 12.6744 79.7293 10.4317 75.7073C8.68288 72.2523 7.52218 68.5293 6.99728 64.6923C6.06908 59.3703 5.65138 53.9563 5.24908 48.5723C4.70768 41.1773 4.24358 33.7823 3.70208 26.3883C3.02138 17.8073 2.18077 9.24132 1.18037 0.691322C1.18037 0.335322 0.948378 0.444322 0.793678 0.691322C0.594478 1.00932 0.51748 1.38832 0.57708 1.75932L0.375977 1.68131Z" fill="black"/>
<path d="M17.5018 22.8762C13.6137 34.0492 13.4238 46.1782 16.9603 57.4672C17.0686 57.8082 17.3161 57.4671 17.3935 57.2661C17.5468 56.9371 17.5797 56.5651 17.4863 56.2141C14.1015 45.5071 14.2643 33.9931 17.9504 23.3861C18.167 22.7831 17.8576 21.8392 17.5018 22.8762Z" fill="black"/>
<path d="M23.055 17.8941C25.979 21.3131 26.149 26.0161 25.886 30.2711C25.57 35.5661 24.799 40.8251 23.581 45.9891C23.581 46.1281 23.458 46.7621 23.705 46.7931C23.953 46.8241 24.092 46.2521 24.123 46.0971C25.493 40.5171 26.327 34.8181 26.614 29.0791C26.83 24.7011 26.536 19.9061 23.519 16.4251C23.303 16.1771 22.792 17.5231 23.086 17.8631L23.055 17.8941Z" fill="black"/>
</svg>
