<svg width="40" height="87" viewBox="0 0 40 87" fill="none" xmlns="http://www.w3.org/2000/svg">
<path d="M2.17595 10.3912C1.14695 21.8402 0.728958 33.3352 0.922958 44.8282C1.02596 50.5312 1.27795 56.2402 1.68095 61.9542C2.05195 67.1522 2.20696 72.6442 4.00096 77.5942C5.54796 81.9412 9.38496 86.6912 14.537 86.0262C15.016 86.0262 15.109 84.4792 14.83 84.4792C10.189 85.0822 6.53795 81.1832 4.89795 77.2692C2.90295 72.5052 2.73295 67.0902 2.36095 62.0162C1.55195 50.9952 1.31395 39.9392 1.64995 28.8942C1.83495 22.6132 2.21196 16.3422 2.77896 10.0822C2.88696 9.03022 2.23795 9.74122 2.17595 10.3762V10.3912Z" fill="black"/>
<path d="M25.613 13.4703C27.992 19.3723 29.634 25.5443 30.502 31.8483C32.049 42.9873 31.121 54.5743 26.155 64.7853C23.4 70.3923 19.568 75.4023 14.877 79.5283C14.583 79.7763 14.49 81.2453 14.877 80.8893C23.709 73.0003 29.487 62.2562 31.198 50.5372C32.585 40.4742 31.837 30.2323 29.001 20.4783C28.236 17.6723 27.306 14.9133 26.216 12.2173C26.031 11.7523 25.536 13.1143 25.69 13.4703H25.613Z" fill="black"/>
<path d="M6.92495 34.2461C4.94295 44.9431 5.47195 55.9531 8.47195 66.4091C9.26995 69.1351 10.242 71.8061 11.38 74.4071C11.597 74.8721 12.0769 73.5101 11.9219 73.1541C6.61995 60.9501 5.04896 47.4501 7.40396 34.3551C7.40396 34.2151 7.54395 33.5661 7.28095 33.5501C7.01795 33.5351 6.89396 34.0921 6.86296 34.2461H6.92495Z" fill="black"/>
<path d="M38.6701 1.3411C36.9221 16.3631 35.8081 31.4311 34.7251 46.5141C34.3391 52.1301 33.952 57.7611 33.178 63.3461C32.711 67.2681 31.6681 71.0991 30.0841 74.7171C29.0321 76.9501 27.5261 78.9381 25.6611 80.5551C23.7961 82.1721 21.6141 83.3821 19.2551 84.1071C18.8531 84.2311 18.7291 85.6541 19.1161 85.6541C23.5531 84.2721 27.2981 81.2521 29.5891 77.2081C31.4111 73.7431 32.6451 70.0001 33.2401 66.1311C34.1401 60.7891 34.755 55.4031 35.081 49.9951C35.654 42.5081 36.1181 35.0051 36.7051 27.5011C37.4071 18.6831 38.2681 9.88109 39.2891 1.09409C39.2891 0.908094 39.2891 0.459111 39.0571 0.506111C38.8251 0.552111 38.7171 1.23311 38.6861 1.40311L38.6701 1.3411Z" fill="black"/>
<path d="M21.715 23.7581C25.43 34.3551 25.625 45.8691 22.272 56.5861C22.071 57.2051 22.395 58.1331 22.72 57.0961C26.283 45.8151 26.12 33.6861 22.256 22.5051C22.132 22.1801 21.885 22.5051 21.823 22.7061C21.665 23.0331 21.626 23.4051 21.715 23.7581Z" fill="black"/>
<path d="M16.439 16.4861C13.438 19.9981 12.974 24.8561 13.144 29.2961C13.422 35.1071 14.256 40.8781 15.635 46.5301C15.82 47.2881 16.331 45.8961 16.238 45.5401C15.021 40.4991 14.224 35.3661 13.856 30.1931C13.577 25.9541 13.546 21.2671 16.455 17.8171C16.672 17.5281 16.782 17.1721 16.764 16.8111C16.764 16.6571 16.671 16.1931 16.439 16.4561V16.4861Z" fill="black"/>
</svg>
