<svg width="20" height="34" viewBox="0 0 20 34" fill="none" xmlns="http://www.w3.org/2000/svg">
<path d="M12.624 20.0051C11.8186 20.0691 11.0353 20.2991 10.3241 20.6821C9.6128 21.0661 8.9892 21.5931 8.4929 22.2301C7.9966 22.8681 7.6385 23.6021 7.4415 24.3851C7.2445 25.1691 7.2128 25.9841 7.3486 26.7811C7.4655 27.5861 7.7613 28.3551 8.2144 29.0311C8.6675 29.7071 9.2662 30.2721 9.9667 30.6861C10.6671 31.1001 11.4515 31.3521 12.262 31.4231C13.0726 31.4941 13.8888 31.3831 14.6506 31.0971C17.8839 29.9831 19.4773 26.3011 19.4154 23.0831C19.4154 19.1851 16.9247 15.3481 14.7743 12.2541C13.2273 10.0261 10.7521 7.52013 11.572 4.51913C11.8314 3.73313 12.3866 3.07912 13.12 2.69412C13.8534 2.31012 14.7075 2.22712 15.5014 2.46112C15.986 2.63612 16.4141 2.93913 16.74 3.33813C17.0659 3.73713 17.2774 4.21711 17.352 4.72711C17.4267 5.23611 17.3616 5.75712 17.1637 6.23212C16.9659 6.70812 16.6427 7.12112 16.2286 7.42712C13.8307 10.1041 10.3498 11.2021 7.2712 12.8271C4.8255 14.0051 2.8005 15.9061 1.4698 18.2721C0.545201 19.8611 0.0402027 21.6591 0.00230267 23.4961C-0.0355973 25.3341 0.394903 27.1511 1.2532 28.7771C2.6428 30.9031 4.7255 32.4821 7.1475 33.2471C7.4723 33.3561 7.8591 31.8711 7.4414 31.7001C5.4876 31.0591 3.7481 29.8921 2.4135 28.3281C1.3451 26.9821 0.729402 25.3321 0.654402 23.6151C0.579402 21.8981 1.0489 20.2011 1.9958 18.7671C5.2137 13.3221 12.624 13.1671 16.5225 8.43313C18.1778 6.43713 18.9977 2.70913 16.2904 1.13113C15.6835 0.827133 14.9979 0.716132 14.3259 0.812132C13.6539 0.909132 13.0276 1.20912 12.5311 1.67212C11.5943 2.55312 11.0158 3.74912 10.9068 5.03012C10.7702 6.20312 10.8696 7.39212 11.199 8.52612C11.5285 9.66112 12.0813 10.7181 12.8251 11.6351C15.306 14.5961 17.2391 17.9751 18.5336 21.6141C18.8834 22.6901 18.949 23.8381 18.724 24.9461C18.499 26.0551 17.9911 27.0871 17.2496 27.9411C16.5998 28.6671 15.776 29.2151 14.8558 29.5341C13.9356 29.8541 12.9493 29.9341 11.9897 29.7671C10.9615 29.6311 10.0083 29.1561 9.2821 28.4151C8.5558 27.6751 8.0984 26.7131 7.9829 25.6821C7.7508 23.2541 10.1796 21.5671 12.3764 21.4751C12.8405 21.4751 12.9953 19.9281 12.6704 19.9281L12.624 20.0051Z" fill="black"/>
</svg>
