<svg width="20" height="34" viewBox="0 0 20 34" fill="none" xmlns="http://www.w3.org/2000/svg">
<path d="M7.08702 21.5522C7.99702 21.5772 8.882 21.8492 9.648 22.3402C10.414 22.8302 11.032 23.5212 11.435 24.3372C11.638 24.7922 11.75 25.2822 11.764 25.7812C11.778 26.2792 11.693 26.7752 11.515 27.2412C11.337 27.7072 11.069 28.1322 10.726 28.4942C10.383 28.8562 9.97202 29.1462 9.51602 29.3492C8.72202 29.7012 7.86101 29.8772 6.99201 29.8662C6.12401 29.8552 5.268 29.6572 4.482 29.2862C3.697 28.9152 3.001 28.3782 2.441 27.7142C1.882 27.0492 1.47202 26.2722 1.24002 25.4352C0.696015 23.4172 0.934009 21.2682 1.90501 19.4172C2.80501 17.4572 3.88201 15.5822 5.12301 13.8172C6.67001 11.6362 8.48002 9.70216 8.83502 6.94816C9.14502 4.56616 8.65001 1.68818 6.02001 0.915175C2.92601 -0.0138249 1.10002 4.00918 1.88902 6.51518C2.81802 9.50118 6.19 11.3422 8.805 12.5952C11.744 14.0182 14.9 15.2562 16.957 17.9172C19.015 20.5772 20.052 24.3062 18.334 27.2762C16.996 29.4112 14.939 30.9972 12.533 31.7472C12.146 31.8712 12.022 33.3712 12.394 33.2942C14.408 32.6312 16.201 31.4272 17.576 29.8132C18.621 28.4992 19.326 26.9482 19.628 25.2962C19.93 23.6452 19.821 21.9442 19.309 20.3452C18.53 17.7812 16.891 15.5632 14.668 14.0642C11.837 12.1312 8.48001 11.2022 5.63301 9.19118C4.30301 8.21718 2.24501 6.49916 2.26101 4.68916C2.26101 2.43116 5.06101 1.92016 6.62301 2.92616C7.18501 3.35016 7.62501 3.91617 7.89701 4.56517C8.16901 5.21517 8.26301 5.92515 8.17001 6.62315C8.04801 7.99015 7.50801 9.28717 6.62301 10.3362C4.20501 13.3222 2.25901 16.6612 0.853007 20.2372C-0.229993 23.4702 -0.0289924 27.3842 2.60101 29.8442C3.24801 30.4752 4.035 30.9442 4.898 31.2142C5.76 31.4832 6.674 31.5452 7.566 31.3942C8.457 31.2432 9.30001 30.8842 10.026 30.3462C10.752 29.8082 11.34 29.1062 11.744 28.2972C13.291 24.7702 11.527 20.2842 7.30401 20.1132C6.87101 20.1132 6.67 21.6602 7.01 21.6602L7.08702 21.5522Z" fill="black"/>
</svg>
